<svg height="16" viewBox="0 0 16 16" width="16" xmlns="http://www.w3.org/2000/svg"><path d="m2.257507 15.580123c-.650166-.124031-1.0423863-.520086-1.135211-1.146309-.088526-.597221.1410331-1.07724.6328284-1.323275.1218816-.06097.244323-.111097.2720919-.111384.027769-.000281-.049265-.04906-.1711861-.108391-.2511908-.122231-.4507215-.317193-.5545473-.541848-.054961-.118923-.067528-.204271-.067528-.458615 0-.271322.010711-.335336.081285-.485801.1508963-.321714.4082373-.538855.7859609-.663182.2702753-.08896.9514107-.09553 1.2251696-.01181.5497131.168104.8441522.478413.9231475.972903.089333.559202-.1943481 1.050638-.7073887 1.225448l-.1426732.04861.1602644.05644c.5236345.184407.8148595.601166.8148595 1.166111 0 .529598-.2271041.96529-.625 1.199043-.3230175.189763-1.0113976.273758-1.4920729.18206zm.8378254-.505812c.4126927-.122556.632189-.43057.632189-.887135 0-.615347-.4149135-.974312-1.0739554-.92914-.3926791.02692-.6494361.177913-.8030529.472273-.073406.14066-.083494.195864-.083494.456867s.010089.316207.083494.456867c.1212929.232421.3196898.385758.5777389.446521.1911653.04501.4848683.03786.6670804-.01625zm.0001375-2.374976c.2122604-.06296.4428941-.280113.4941563-.465284.090288-.326143.025207-.627614-.1798009-.832877-.1898397-.190076-.4132671-.260397-.7532924-.237092-.5229306.03584-.790968.303118-.790968.788719 0 .41244.2001648.674195.5871394.7678.1667538.04034.4687516.03034.6427656-.02127zm3.4496897 2.881751c-.554284-.13466-.962324-.595801-1.136622-1.284535-.172617-.682097-.172617-1.630403 0-2.3125.139052-.549464.464409-1.002658.849648-1.183489.397679-.18667.958656-.183755 1.346124.007.645847.31795.966731 1.092462.966465 2.332744-.000219 1.019118-.202785 1.687533-.638574 2.107115-.329081.316844-.895466.453095-1.387041.33367zm.754254-.543637c.418208-.213555.637154-.865474.637154-1.897148 0-1.26411-.311059-1.919297-.938212-1.976165-.496421-.04501-.825285.288557-.993205 1.007415-.0398.17039-.0511.384555-.0511.96875 0 .793614.02271.976395.169818 1.367083.08666.230134.330314.501524.509609.567613.178655.06585.498793.0478.665934-.03755zm3.1438054.51433c.02241-.04151.694643-1.160004 1.493862-2.485535l1.453125-2.410057.254433-.000125.254434-.000125-1.490965 2.476562-1.490965 2.476563-.257331.0091-.25733.0091.04074-.07548zm3.078784.04062c-.358657-.09001-.611822-.332152-.735995-.703944-.183717-.550077-.07001-1.228108.261556-1.559675.339285-.339286.930642-.388987 1.362576-.114518.566108.359728.665989 1.490317.183144 2.073069-.14725.177718-.450896.313446-.727458.32517-.124091.0053-.278811-.0038-.343823-.0201zm.5815-.477067c.220515-.168195.334563-.591842.270896-1.006278-.04249-.276605-.131747-.462644-.274022-.571162-.09351-.07132-.142681-.08509-.303921-.08509-.160814 0-.210498.01383-.302921.08432-.06081.04638-.144085.151847-.185067.234375-.067.134923-.07451.191007-.07451.5563 0 .381844.0051.415941.08507.56757.128943.244505.26424.326612.514234.312073.116932-.0068.191881-.03235.270239-.09211zm-3.89347-1.89766c-.198779-.0502-.3517522-.145306-.5013532-.311699-.204515-.22747-.2771022-.438873-.2952902-.860013-.02304-.533473.08789-.868133.3732102-1.1259.212469-.191953.3714432-.246997.7129812-.246864.260112.000094.318783.01077.473792.08613.403994.196423.619216.611242.619216 1.193475 0 .596858-.228467 1.024356-.646199 1.209138-.163302.07224-.553932.1018-.736357.05573zm.506076-.428979c.258187-.131654.397202-.482609.369247-.932199-.02396-.385284-.163933-.655372-.389459-.751467-.3357-.14304-.671728.08471-.7613312.516015-.05801.279231-.02206.687142.0787.893104.142794.29186.440684.408224.702839.274547zm-9.3118514-3.1303563c-.2125963-.0150679-.3083842-.0392541-.46874992-.1183597-.3947118-.1947044-.6835431-.5232172-.8298142-.9438194l-.0754221-.2168763-.018096-2.5413653c-.0099528-1.3977512-.0051119-2.9932918.0107575-3.545646l.0288534-1.0042804.1136484-.2393112c.1981615-.41727178.5461449-.72517072.99357882-.8791279l.2311916-.0795505 6.1406255.0105674 6.1406254.0105674.186277.0692211c.379941.14118721.712863.42573965.892556.76287787.147559.27684983.186002.46004103.186421.88835863l.000371.3787921.351563.022381c.392592.024993.520933.069319.625615.2160754l.0697.09771v2.3492609c0 2.3354941-.000384 2.3497779-.06544 2.4375-.129525.1746569-.27507.2277797-.625627.22835l-.316066.0005136-.01987.1449866c-.01093.079743-.01987.2478006-.01987.3734618 0 .4791482-.136548.8133579-.465141 1.1384647-.259791.2570291-.545461.4031222-.859517.4395602-.251667.0292-11.7959447.0289-12.2081704-.000312zm12.2126424-1.1132663c.05557-.035189.136288-.1117491.179363-.1701337.077-.1043732.07834-.1161426.07968-.7016451.0019-.8351778.0333-.9511681.298452-1.1027896.104271-.059625.168748-.069873.442375-.070312l.320311-.0005146v-1.5897359-1.589736l-.338675-.013954c-.386567-.0159272-.512047-.0687253-.634601-.2670224-.065321-.1056924-.071512-.1612544-.089485-.8031124-.021757-.7770276-.032663-.8207021-.241535-.9672935l-.132421-.092936-6.0137674.00171-6.0137661.00171-.1110661.068642c-.0610863.0377457-.1429582.1133465-.1819376.1679942l-.070872.099359v3.375 3.375l.068538.109375c.07201.1149156.1580386.1804363.2898522.220755.043511.013309 2.7722249.021818 6.0638097.018909 5.9725843-.00528 5.9849043-.00542 6.0857453-.069269zm-9.6323537-.6817234c-.0535675-.0391694-.0554118-.061061-.0230381-.2734375.0193553-.1269725.1064475-.5753903.1935381-.9964841.087091-.4210938.1786988-.878125.2035725-1.015625.0248741-.1375.0544616-.2957031.0657497-.3515625.0184244-.0911731.0129316-.1019856-.0536947-.1056984-.0408203-.002275-.2907078-.0128216-.5553053-.0234375-.603719-.0242216-.605075-.0254113-.423445-.3715557.104625-.1993909.8765491-1.5576128 1.3982421-2.4602459.409241-.7080702.442156-.7493283.545352-.6835967.06882.043835.06724.1846087-.0061.5429717-.0299.1460938-.07338.3640625-.09662.484375s-.07283.3523438-.110199.515625c-.03737.1632812-.07494.3847656-.08349.4921875l-.01555.1953125.495827.0037c.555153.00414.678176.020868.692286.094137.0095.049155-.18987.4513215-.617546 1.2459162-.115636.2148405-.481193.9078165-.812349 1.5399437-.5140603.9812647-.6515703 1.2100531-.7272853 1.2100531-.00644 0-.03791-.01916-.069936-.042578zm6.5462847-.9320091c-.362848-.3243-2.1897654-2.0725016-2.2694024-2.1716206-.199973-.2488938-.281225-.5243297-.250796-.85018.05401-.5783722.568102-1.0557034 1.174836-1.0908267.4601642-.026638.7418512.098575 1.2126724.5390479l.257935.2413094.285818-.2690575c.201864-.1900262.355103-.3032999.521695-.3856338.227291-.1123337.247876-.1165762.565621-.1165762.305829 0 .344985.00722.53985.099531.280014.1326484.499854.3432006.626106.599656.09272.1883431.10129.23092.10129.5032812 0 .5318603-.01295.548075-1.742239 2.1814963-.476981.4505384-.877763.8187487-.890625.818245-.01286-.0005032-.07261-.044906-.132761-.098672z" stroke-width=".03125"/></svg>