<svg height="16" viewBox="0 0 16 16" width="16" xmlns="http://www.w3.org/2000/svg"><path d="m1.3020327 12.697096c-.3394037-.097948-.64630326-.313635-.84753679-.595634-.12862861-.180262-.20163869-.340164-.25868542-.566575-.04426388-.175585-.04527678-.253319-.04558066-3.4777418-.00037477-3.7105612-.01114193-3.4704241.17280134-3.8504979.08690712-.1796455.13426035-.2442333.29828994-.4072612.21473555-.2134258.39252029-.3206882.68063069-.4106513l.1694283-.052904h6.008938c5.7011879 0 6.0158869.00203 6.1444849.040303.514444.152994.890667.4900499 1.080666.9681717.07789.195929.10432.3903385.104866.7704832l.000447.310613h.314384c.356259 0 .454906.027318.582419.1612714.150609.1582115.142334.015275.142334 2.4596842 0 2.1368857-.002 2.2191617-.04335 2.3105547-.05581.121944-.143782.204379-.280423.262741-.09197.0393-.156372.04663-.409263.04663h-.300083l-.01185.412268c-.01266.440573-.03647.558694-.164334.813233-.195906.390039-.565909.689408-.998611.80798-.161244.04418-.246379.04476-6.1783664.04224-5.8097505-.0024-6.0198875-.0041-6.1616434-.04491zm12.0625453-1.016087c.123847-.02854.230871-.107388.311954-.22984l.06128-.09248.01256-.679401c.01165-.633325.0157-.685532.06007-.7697639.06179-.1175596.151489-.2008884.277565-.2579574.0856-.038754.148867-.046097.400968-.046513l.299323-.0004942v-1.5587102-1.5587115h-.278356c-.31477 0-.432034-.028716-.565048-.1383556-.0463-.038125-.106193-.111545-.133187-.1631474-.04629-.088437-.04983-.1327552-.06148-.7715224-.013883-.7603158-.012462-.7534422-.185373-.9014234-.052366-.0447808-.131363-.0914853-.175668-.1037963-.123204-.034226-11.704772-.0307114-11.8192504.0035474-.1211635.0363028-.2645603.1655885-.3155195.2844872-.041225.096205-.042745.2122205-.042745 3.3488787 0 3.136657.00101 3.252668.042745 3.348878.053583.124981.2061259.257689.3276338.285012.1344022.03023 11.6515691.03146 11.7826191.0013zm-4.0434192-.687477c-.018637-.02242-.023499-.06718-.014181-.129893.0081-.05263.024411-.164402.036869-.248381.012459-.08398.031907-.170385.043251-.192015.011345-.02162.033021-.125734.048214-.231342s.035148-.2021803.044264-.2146042c.00911-.012431.034236-.1394934.05581-.2823758.021575-.1428822.0471-.269951.056723-.2823753.010129-.012428.030185-.1140791.045581-.2258997.015396-.1118205.038085-.2159591.050544-.231418.012357-.015457.017625-.053826.011649-.085256-.00608-.031431-.00304-.061797.00608-.06749.00911-.00567.029577-.094393.045175-.1971232.015599-.1027296.038389-.1993586.050544-.2147304.012155-.015376.016207-.043332.00911-.062121-.011243-.029151-.090553-.034175-.5407487-.034175-.522324 0-.528138-.0005256-.5767574-.052286-.062293-.066295-.061686-.076089.011548-.2097844.033325-.060865.08164-.1513298.1074184-.2010279.025728-.049692.076981-.1361048.1138605-.1920151.036869-.055912.08559-.1372342.1081882-.1807202.022588-.043484.070599-.1298917.1065574-.1920151.036059-.062121.0785-.1383636.094504-.1694244.016004-.031066.062293-.109356.1029616-.1739874.040617-.064633.073942-.1240563.073942-.1320532 0-.008.019144-.04153.042542-.074499.023398-.03298.078804-.1272774.1231995-.2095524.044365-.082278.1110953-.1991784.1483094-.2597856.037173-.060602.088933-.1508567.1149037-.2005538.026031-.049693.076879-.1411876.1131006-.203311.03626-.062121.08255-.1485291.102991-.1920151.02046-.043484.05004-.094311.06584-.1129498.0158-.018637.06219-.094879.103093-.1694254.115775-.2110425.151824-.2745313.208081-.366434.02877-.046948.06311-.1056965.07647-.130546.0158-.029598.05217-.047566.105261-.052114.111176-.00952.162642.065525.139822.2038499-.0091.053208-.0238.106916-.03343.1193403-.0091.012429-.02877.107933-.04254.2122407-.01377.1043069-.03393.20088-.04467.2146049-.01073.013725-.03748.1469409-.05935.2960353-.02188.1490932-.04771.2812458-.05734.2936701-.01013.012428-.02978.1039137-.04457.2033099-.01489.099396-.03474.1908858-.04406.20331-.02391.031683-.07445.4199012-.05693.4374163.0081.0079.259811.017452.559833.02121.462248.00577.551596.012347.585498.043038.02198.019914.04001.047505.04001.061301 0 .013806-.0548.1316724-.121821.2619317-.349361.6792278-.418806.811595-.468651.8932807-.02988.048964-.09329.1652673-.140936.2584514-.04761.093187-.155875.3015768-.240534.4630954-.08468.1615187-.208841.4004079-.275965.5308647-.129601.25188-.179547.3431335-.197861.3614407-.0061.00618-.05196.097705-.101654.2033104-.04973.105608-.095412.197098-.1016553.20331-.018433.01843-.068472.110005-.2016787.368939-.069181.134581-.1391324.269275-.1553389.299318-.023297.04311-.047708.05462-.1158357.05462-.04953 0-.098454-.01458-.1147416-.03419zm-5.3086571-.045172c-.018637-.02242-.023499-.06718-.014181-.129893.0081-.05264.024411-.164403.036869-.248381.012459-.08398.031907-.170386.043251-.192015.011345-.02162.033021-.125733.048214-.231341.015193-.105609.035148-.2021808.044264-.2146062.00911-.012428.034337-.139493.055811-.2823753.021574-.1428812.0471-.26995.056723-.2823752.01013-.012428.030185-.1140793.045581-.2258998s.038085-.2159581.050544-.2314181c.012459-.015456.017625-.053825.011649-.085246-.00608-.031431-.00304-.061797.00608-.06749.00911-.00567.029475-.094393.045175-.1971232.015599-.1027298.03839-.1993587.050544-.2147315.012155-.015376.016207-.043322.00911-.062121-.011142-.029151-.090553-.034175-.5407487-.034175-.522324 0-.5281279-.0005268-.5767574-.052286-.062293-.066295-.061686-.076079.011547-.2097845.033325-.060865.08164-.1513288.1074082-.2010269.025728-.049694.076981-.1361049.1138707-.1920151.036869-.055912.085591-.1372343.108178-.1807202.022588-.043484.070498-.1298927.1065676-.1920152.036059-.062121.0785-.1383636.094504-.1694252.016004-.031056.062293-.1093551.1029515-.1739875.040617-.064633.073942-.1240554.073942-.1320522 0-.008.019144-.04153.042542-.074499.023398-.03298.078905-.1272784.1232097-.2095525.044365-.082278.1110953-.1991783.1483093-.2597854.037173-.060602.088933-.1508567.1149038-.2005549.025931-.049694.076879-.1411876.1130906-.20331.036262-.062121.082551-.1485291.102992-.1920151.020461-.043484.050037-.094311.065839-.1129499.015801-.018637.062192-.094879.1030934-.1694252.1157747-.2110436.1518342-.2745313.2080908-.3664341.028767-.046948.063104-.1056975.076474-.1305461.015801-.029598.052165-.047566.105271-.052114.1111764-.00952.1626319.065525.1398111.2038488-.00911.053208-.023803.106916-.033426.1193413-.00911.012428-.028767.107932-.042542.2122398-.013775.1043077-.033932.20088-.044669.2146048-.010737.013725-.037477.146941-.059255.2960352-.021879.1490944-.047708.2812459-.05733.2936701-.010129.012428-.029779.1039148-.044669.2033101-.014889.099396-.034641.1908856-.044061.2033109-.023905.031684-.074449.4199012-.056925.4374163.0081.0079.2598098.017452.5598318.02121.4622482.00577.5515863.012347.5854983.043038.02198.019914.04001.047505.04001.0613 0 .013806-.054798.1316714-.121822.2619318-.3493577.6792258-.418802.8115931-.468647.8932776-.0298806.0489639-.0932885.1652685-.1409252.2584516-.0476065.093187-.1558758.3015767-.2405343.4630953-.0846787.1615186-.2088505.4004079-.2759655.5308658-.129601.2518787-.1795574.3431334-.1978606.3614407-.00608.00618-.051962.097705-.101655.2033102-.049733.105608-.095415.197098-.1016549.203309-.018435.01843-.068472.110005-.2016894.368938-.069283.134582-.1391324.269275-.1553389.299319-.023297.0431-.047708.05462-.1158357.05462-.04953 0-.098454-.01458-.1147416-.03419z" stroke-width=".02259"/></svg>