<svg height="16" viewBox="0 0 16 16" width="16" xmlns="http://www.w3.org/2000/svg"><path d="m4.0828329 15.1046c-.011458-.01146-.020833-.06229-.020833-.112966 0-.07117.2310866-1.299182.4879045-2.592763l.01706-.08594h-.5302699c-.4783134 0-.5374997-.0059-.6040456-.06054l-.073774-.06053.138195-.259776c.1562459-.293709 1.3872825-2.4514895 1.6496305-2.8914998.09444-.1583847.199059-.2966559.232499-.3072694.0828-.02628.151551.038055.151551.1418185 0 .047189-.08437.4961622-.1875.9977172-.103125.5015555-.1875.9519075-.1875 1.0007815 0 .0522.02039.09669.04943.107832.02719.01043.267173.01897.533304.01897.55167 0 .62128.01898.592747.161649-.01027.05136-.175393.391081-.366934.754931-.378836.719632-1.119317 2.126567-1.433687 2.724045-.1085206.20625-.2183449.399609-.2440543.429687-.046405.05429-.1637819.0738-.2037238.03386zm5.3750001-.09375c-.04377-.04377-.01341-.228612.2310231-1.406313.138521-.667413.254537-1.248635.257813-1.291604l.006-.07813-.5572811-.01563c-.50538-.01416-.56141-.02126-.601567-.07627-.02435-.03336-.04428-.06899-.04428-.07917 0-.01906.346226-.635354.8957961-1.594544.172334-.300781.4009989-.7029425.5081439-.8936915.107146-.190749.281713-.4860616.387928-.6562503.160522-.2572069.206251-.3094338.270937-.3094338.07004 0 .07874.014066.08701.140625.0052.079768-.06648.5315331-.165669 1.0439221-.09618.4968145-.170624.9397825-.165443.9843755l.0094.08108.546897.01562c.546247.01561.625.02923.625.108108 0 .07446-.238821.564215-.668084 1.370053-.230711.433105-.618877 1.167152-.86259 1.631214-.2437139.464063-.4778539.889453-.5203109.945313-.07238.09522-.1875571.133854-.2406821.08073zm-2.184783-6.9326548c-1.190393-.2257906-1.89196-1.2685072-2.057464-3.0579419-.04636-.5012631-.0205-1.6041506.04772-2.0351192.231553-1.4628069.876375-2.3499224 1.888521-2.5981371.316814-.077694.96317-.078859 1.253925-.00226.384711.1013527.708491.2868657.98747.5657815.4855881.4854783.753476 1.1086696.90805 2.1124128.07879.5116266.07909 1.8073106.000538 2.3125-.156611 1.0071862-.4233079 1.6272434-.908588 2.1124128-.199508.1994625-.309335.2804491-.51872.3825019-.146094.071205-.35.1515359-.453125.1785122-.269997.070628-.85221.085502-1.148325.029336zm1.044382-.8809706c.481378-.225421.79911-.7757528.944932-1.6366788.118332-.6986293.118439-1.9816921.000219-2.6827269-.144408-.8563888-.465105-1.4097742-.950583-1.6403064-.186905-.088753-.229329-.096455-.53125-.096455-.302242 0-.344275.00765-.532859.097017-.631704.2993468-.950191 1.0610044-1.030499 2.4644266-.03365.5881212.001 1.3814781.081 1.8536749.140191.827611.450544 1.3941472.884073 1.6138325.23017.1166363.35975.1419594.666219.130196.22126-.00849.307377-.027412.46875-.1029798zm4.518119.8809706c-1.190394-.2257906-1.891961-1.2685072-2.057464-3.0579419-.04636-.5012631-.0205-1.6041506.04772-2.0351192.231553-1.4628069.876375-2.3499224 1.888522-2.5981371.316814-.077694.963169-.078858 1.253924-.00226.384712.1013527.708491.2868657.98747.5657814.485588.4854783.753476 1.1086696.90805 2.1124128.07879.5116266.07909 1.8073106.000538 2.3125-.156614 1.0071865-.423311 1.6272437-.908591 2.1124131-.199507.1994625-.309335.2804491-.51872.3825019-.146093.071205-.35.1515359-.453125.1785122-.269996.070628-.85221.085502-1.148324.029337zm1.044382-.8809706c.481377-.225421.79911-.7757528.944931-1.6366788.118332-.6986293.118439-1.9816921.000219-2.6827269-.144408-.8563888-.465105-1.4097742-.950583-1.6403064-.186904-.088753-.229328-.096455-.53125-.096455-.302242 0-.344275.00765-.532858.097017-.489177.2318071-.802032.7735334-.949501 1.644114-.122427.722746-.122427 1.9512416 0 2.6739875.140191.827611.450544 1.3941472.884073 1.6138325.23017.1166363.35975.1419594.666219.130196.22126-.00849.307377-.027412.46875-.1029799zm-13.6616835.3500828v-.421875h.828125.828125v-2.8783878-2.8783877l-.075067.018841c-.0412863.0103618-.4174582.0891748-.83593713.1751395-.41847887.0859648-.79251147.1636539-.83118337.1726427l-.070312.016343v-.4667558-.4667559l.164062-.0355524c1.454534-.3151983 1.6381829-.3446266 2.1506643-.3446266h.4977732v3.34375 3.34375h.828125.8281255v.421875.421875h-2.1562505-2.15625z" stroke-width=".03125"/></svg>