<svg height="16" viewBox="0 0 16 16" width="16" xmlns="http://www.w3.org/2000/svg"><path d="m4.6076835 15.644346c-.260987-.06341-.457361-.176294-.655526-.37684-.408076-.41298-.608804-1.093479-.608804-2.063945 0-.970252.200583-1.650381.608804-2.064317.32647-.33104.77803-.471318 1.283011-.398568.922112.132844 1.39845.97194 1.39813 2.462885-.000219 1.019118-.202785 1.687533-.638574 2.107115-.329081.316844-.895466.453095-1.387041.33367zm.754254-.543637c.418208-.213555.637154-.865474.637154-1.897148 0-1.26411-.311059-1.919297-.938213-1.976165-.49642-.04501-.825285.288557-.993204 1.007415-.0398.17039-.0511.384555-.0511.96875 0 .793614.02271.976395.169818 1.367083.08666.230134.330314.501524.509609.567613.178655.06585.498793.0478.665934-.03755zm2.808246.543637c-.554284-.13466-.962325-.595801-1.136622-1.284535-.172618-.682097-.172618-1.630403 0-2.3125.139052-.549464.464409-1.002658.849648-1.183489.397679-.18667.958656-.183755 1.346124.007.6458475.31795.9667305 1.092462.9664645 2.332744-.000218 1.019118-.202784 1.687533-.6385735 2.107115-.329081.316844-.895466.453095-1.387041.33367zm.754254-.543637c.418208-.213555.637154-.865474.637154-1.897148 0-1.26411-.311059-1.919297-.938213-1.976165-.49642-.04501-.825285.288557-.993204 1.007415-.0398.17039-.0511.384555-.0511.96875 0 .793614.0227.976395.169818 1.367083.08666.230134.330314.501524.509609.567613.178655.06585.498793.0478.665934-.03755zm2.5188045.51433c.02241-.04151.694643-1.160004 1.493862-2.485535l1.453125-2.410057.254433-.000125.254434-.000125-1.490965 2.476562-1.490965 2.476563-.257331.0091-.25733.0091.04074-.07548zm3.078784.04062c-.358657-.09001-.611822-.332152-.735995-.703944-.183717-.550077-.07001-1.228108.261556-1.559675.339285-.339286.930642-.388987 1.362576-.114518.566108.359728.665989 1.490317.183144 2.073069-.14725.177718-.450896.313446-.727458.32517-.124091.0053-.278811-.0038-.343823-.0201zm.5815-.477067c.220515-.168195.334563-.591842.270896-1.006278-.04249-.276605-.131747-.462644-.274022-.571162-.09351-.07132-.142681-.08509-.303921-.08509-.160814 0-.210498.01383-.302921.08432-.06081.04638-.144085.151847-.185067.234375-.067.134923-.07451.191007-.07451.5563 0 .381844.0051.415941.08507.56757.128943.244505.26424.326612.514234.312073.116932-.0068.191881-.03235.270239-.09211zm-14.94767213.149969v-.265625h.53125.53125003v-1.831513-1.831513l-.070312.01683c-.038672.0093-.26718755.0532-.50781253.09765-.2406255.04446-.4691411.0879-.507813.09653-.069092.01543-.070312.01054-.070312-.281767 0-.163608.00352-.29748.00781-.297492.0043-.000012.2609375-.04913.5703125-.10914.41608173-.08071.64587713-.109179.88281263-.109353l.320312-.000235v2.125 2.125h.53125.53125v.265625.265625h-1.375-1.37499963zm11.05420213-2.047632c-.198779-.0502-.351751-.145306-.501352-.311699-.204516-.22747-.277102-.438873-.295291-.860013-.02304-.533473.08789-.868133.37321-1.1259.212469-.191953.371443-.246997.712981-.246864.260112.000094.318783.01077.473792.08613.403994.196423.619216.611242.619216 1.193475 0 .596858-.228467 1.024356-.646199 1.209138-.163302.07224-.553932.1018-.736357.05573zm.506076-.428979c.258187-.131654.397202-.482609.369247-.932199-.02396-.385284-.163933-.655372-.389459-.751467-.3357-.14304-.671728.08471-.761331.516015-.05801.279231-.02206.687142.0787.893104.142794.29186.440684.408224.702839.274547zm-10.2955279-3.1926139c-.2310422-.0151419-.318745-.0365537-.48437505-.1182553-.39910088-.1968681-.68707778-.5264003-.83051228-.9503563l-.0755224-.2232249-.0180456-2.5350944c-.0099251-1.3943019-.0050615-2.9870206.0108079-3.5393748l.0288534-1.0042804.1136484-.2393112c.1982014-.41735585.5463395-.72534973.99357883-.87900813l.2311916-.07943067 6.1406246.010161 6.1406255.010161.1875.0696953c.504574.18755417.901981.61590804 1.035645 1.1162935.02379.089064.0419.319128.04211.5350421l.000371.3787921.351563.022381c.392592.024993.520933.069319.625615.2160754l.0697.09771v2.3492609c0 2.3354941-.000384 2.3497779-.06544 2.4375-.129525.1746569-.27507.2277797-.625627.22835l-.316067.0005135-.01987.1449866c-.01093.079743-.01987.2478006-.01987.3734618 0 .4791482-.136548.8133579-.465141 1.1384647-.267476.2646381-.547755.405311-.876357.4398472-.269325.028306-11.7427835.027967-12.1750049-.0003594zm12.1963189-1.1135053c.05557-.035189.136288-.1117491.179363-.1701337.077-.1043732.07834-.1161426.07968-.7016451.0019-.8351778.0333-.9511681.298452-1.1027896.104271-.059625.168748-.069873.442375-.070312l.320311-.0005146v-1.5897359-1.589736l-.338675-.013954c-.386416-.015921-.512054-.0687366-.634394-.2666872-.065208-.1055086-.071344-.1615937-.090173-.8241722-.022592-.7949751-.025427-.8056749-.253534-.9566288l-.127758-.084546-6.0092565.00217-6.009256.00217-.1116674.069014c-.061417.037956-.1435601.113724-.1825395.1683716l-.070872.09936v3.375 3.375l.068538.1093745c.07201.1149156.1580386.1804363.289852.220755.04351.013309 2.772225.021818 6.06381.018909 5.9725834-.00528 5.9849034-.00542 6.0857444-.069269zm-4.2594045-.6415091c-.02509-.040586.0062-.319039.06467-.5757609.112009-.4917247.255793-1.204205.346856-1.71875.02433-.1375.05689-.2874763.07235-.3332809.01546-.045804.01988-.091507.0098-.1015625-.01006-.010055-.248893-.018282-.530752-.018282-.293499 0-.538299-.013822-.572917-.032349-.09692-.051868-.07126-.1499725.130464-.4989006.104335-.1804688.430239-.75.724231-1.265625 1.0586055-1.8566606.9711645-1.71875 1.0897535-1.71875.08942 0 .105848.011778.113962.081721.0052.044947-.02092.2277592-.05808.40625s-.08638.4229662-.109391.5432787c-.02301.1203125-.07773.3854411-.121611.5891747-.04387.203734-.07977.4160662-.07977.4718497v.1014243l.304688.020177c.167578.011097.412521.020249.544319.020338.274403.0001875.338888.017274.33752.089443-.0011.056735-.198283.442651-1.183992 2.3169691-.9209315 1.7511437-.8652345 1.6562499-.9721305 1.6562499-.04907 0-.09857-.015126-.10999-.033614zm-5.372948-.040214c-.05357-.039169-.05541-.061061-.02304-.2734375.01935-.1269725.106447-.5753903.193538-.9964841.08709-.4210938.178698-.878125.203572-1.015625.02487-.1375.05404-.2935863.06481-.3468584l.01958-.096859-.167028-.020057c-.09187-.011032-.337114-.02018-.544997-.020329-.323781-.0002188-.385252-.00832-.428771-.056408-.04725-.052207-.04403-.069159.04596-.2421875.05322-.1023281.163272-.2985512.244564-.4360512.08129-.1375.355656-.615625.609697-1.0625s.514629-.9039062.579085-1.015625c.06446-.1117187.174296-.3027356.24409-.424482.141313-.2465017.196088-.3043229.273808-.289036.113579.02234.121248.1001089.04622.46865-.03967.1948337-.09079.4526805-.113608.572993-.02282.1203125-.07206.3523438-.109432.515625-.03737.1632812-.07494.3847656-.08349.4921875l-.01555.1953125.495827.0037c.553601.00413.678184.020911.692113.093234.0095.049251-.15382.3788672-.617724 1.246816-.133204.2492187-.505958.9563053-.828343 1.5713034-.50043.9546444-.635568 1.1786966-.71094 1.1786966-.0064 0-.03791-.01916-.06994-.042578z" stroke-width=".03125"/></svg>