<svg height="16" viewBox="0 0 16 16" width="16" xmlns="http://www.w3.org/2000/svg"><path d="m1.302037 12.69726c-.3394-.0979-.6463-.31363-.84753-.59563-.12863-.18026-.20164-.34017-.25868-.56658-.0442-.17558-.0453-.25332-.0456-3.4777401-.00037-3.7105599-.0111-3.4704199.17281-3.8504899.087-.17965.13425-.24424.29828-.40727.21474-.21342.39252-.32068.68063-.41065l.16943-.0529h6.0089399c5.7011901 0 6.0158901.002 6.1444801.0403.51445.15299.89067.49005 1.08067.96817.0778.19593.10431.39034.10486.77048l.00045.3106199h.31439c.35625 0 .4549.0273.58242.16127.1506.15821.14233.0153.14233 2.45968 0 2.1368801-.002 2.2191601-.0434 2.3105501-.0558.12195-.14378.20438-.28042.26275-.092.0393-.15638.0466-.40927.0466h-.30009l-.0118.41227c-.0126.44057-.0365.55869-.16434.81323-.1959.39004-.5659.68941-.99861.80798-.16124.0442-.24637.0448-6.1783701.0422-5.8097399-.002-6.0198799-.004-6.1616399-.0449zm12.06255-1.01609c.12385-.0285.23087-.10738.31195-.22984l.0612-.0925.0125-.67941c.0117-.63332.0158-.6855301.0601-.7697601.0618-.11756.15149-.20089.27756-.25795.0856-.0388.14887-.0461.40097-.0465l.29932-.00049v-1.55871-1.55871h-.27835c-.31477 0-.43203-.0287-.56505-.13836-.0463-.0381-.10619-.11155-.13319-.16315-.0463-.0884-.0498-.13275-.0615-.77152-.0139-.7603199-.0125-.7534399-.18537-.9014199-.0523-.0448-.13137-.0915-.17566-.1038-.12321-.0342-11.70477-.0307-11.81925.004-.12117.0363-.26456.16559-.31553.28449-.0412.0962-.0427.21222-.0427 3.3488799 0 3.1366501.001 3.2526601.0427 3.3488701.0536.12498.20613.25769.32764.28501.13441.0302 11.65157.0315 11.78262.001zm-9.53253-1.8205001c-.19258-.18266-.52805-.50026-.74547-.70578-1.08437-1.02494-1.28329-1.2253-1.36059-1.37035-.17396-.32643-.17409-.77577-.00032-1.10353.0954-.17997.34932-.41841.54813-.51476.2178-.10556.39845-.13982.66085-.12535.37894.0209.57115.1196.98718.50689l.27798.25877.0815-.0761c.0448-.0418.17602-.16443.29149-.27241.31598-.29548.60951-.42256.9760399-.42256.34312 0 .67014.1324.90947.36822.25299.24928.37212.55888.34943.90811-.0242.37192-.13809.55606-.63768 1.03067-.19879.18885-.44785.42577-.55345.52648-.10561.10072-.3851599.36587-.6212299.58923-.23606.22337-.50345.47732-.59418.5643401-.0907.087-.17714.16092-.19201.16422-.0149.003-.18461-.14345-.37719-.3261101zm6.39297-.0452c-.19258-.18266-.5280401-.50026-.7454701-.70578-1.08436-1.02494-1.28329-1.2253-1.36059-1.37035-.17396-.32643-.17409-.77577-.00032-1.10353.0954-.17997.34932-.41841.54813-.51476.21781-.10556.39846-.13982.66085-.12535.37894.0209.57115.1196.9871801.50689l.27798.25877.0815-.0761c.0448-.0418.17603-.16443.2915-.27241.31597-.29548.6095-.42256.97603-.42256.34312 0 .67014.1324.90947.36822.25299.24928.37212.55888.34943.90811-.0242.37192-.13809.55606-.63768 1.03067-.19879.18885-.44784.42577-.55345.52648-.10561.10072-.38516.36587-.62123.58923-.23606.22337-.50344.47732-.59418.56434-.0907.087-.17714.1609101-.19201.1642201-.0149.003-.18461-.1434501-.37719-.3261101z" stroke-width=".02259"/></svg>