<svg height="16" viewBox="0 0 16 16" width="16" xmlns="http://www.w3.org/2000/svg"><path d="m3.8767778 15.111569c-.032401-.03904.00632-.282176.2155191-1.353142.140259-.718053.2621375-1.33016.2708406-1.360238.01453-.05022-.020756-.05484-.4315941-.05649-.7804628-.0031-.8243147-.02931-.6369-.380092.2374913-.444507 1.712405-3.0104096 1.7878382-3.1102955.08251-.1092566.1675728-.1296284.2295328-.054971.049022.059068.03796.1323079-.1719688 1.1385837-.091701.4395618-.1713281.8554518-.1769497.9242018l-.010221.125.15625.0207c.085937.01139.3408562.02193.5664862.02344.4666781.0031.5123221.02242.4532961.191746-.03297.09458-.251556.515701-1.2319676 2.373492-.8404294 1.592537-.8133325 1.545768-.9016547 1.556267-.043455.0052-.096784-.01202-.1185072-.0382zm6.7010972-1.336622c-.540404-.493684-1.8002058-1.693955-2.1011908-2.001901-.315224-.322515-.423645-.509386-.484077-.834344-.117164-.630019.39292-1.342742 1.073226-1.4995804.324055-.074708.73664-.016627 1.0348498.1456787.08387.045647.29903.2139338.478139.3739719.179108.1600388.334406.2909788.345107.2909788.0107 0 .166031-.131522.345179-.2922728.179149-.1607485.393274-.3290357.475835-.373971.317839-.1729894.744124-.2236706 1.069448-.1271472.499003.1480541.845586.4675552.999047.920982.08594.253915.0725.580449-.03527.856784-.08866.22734-.332522.486799-1.481548 1.576275-1.078255 1.022373-1.329892 1.251994-1.370877 1.25094-.01945-.000501-.175993-.129378-.347868-.286394zm-.3125-5.702457c-.3411398-.028665-.8322958-.1232281-1.3671878-.2632272l-.117187-.0306719v-.4987953c0-.2743375.01208-.4987956.02685-.4987956s.130782.047745.257812.1061009c.560624.2575419 1.2045008.3829238 1.8090888.3522832.595308-.030171.971994-.1760754 1.300648-.503791.321269-.3203515.459348-.68245.459348-1.2045931 0-.7053569-.311549-1.2359731-.884996-1.5072841-.349174-.1652028-.515075-.1960231-1.046875-.1944856-.407687.00118-.512792.012659-.8068428.088132-.18595.047727-.43556.1264419-.554687.1749209l-.216596.088144v-1.8872136-1.8872136h1.9843748 1.984375v.42187505.42187495h-1.53125-1.53125v.9254218.9254219l.08594-.0165c.04726-.00908.198437-.038305.335937-.064957.315758-.061202.667276-.062882 1.046875-.005 1.075878.1640438 1.799041.7776691 2.068343 1.7550482.05741.2083703.06777.3278078.0674.7774425-.0004.4884888-.0073.5538881-.08579.8125-.128749.4242281-.276983.6770534-.570045.9722547-.214886.2164544-.304815.2811466-.578125.4158859-.355067.1750447-.644254.2589713-1.073656.3115925-.260569.031932-.767341.038434-1.0625.013632zm-6.9140113-.1899275c.0083344-.0300781.5795057-1.5227481 1.2692697-3.3170444.6897641-1.7942964 1.2541168-3.2743745 1.2541168-3.2890625s-.808594-.026706-1.7968752-.026706h-1.796875v-.42187455-.42187505h2.421875 2.4218752v.20444641c0 .19439125-.06724.37956054-1.367188 3.76494829l-1.3671872 3.5605019-.5270822.0006781c-.4871034.000625-.5259328-.00347-.5119291-.054011z" stroke-width=".03125"/></svg>