<svg height="16" viewBox="0 0 16 16" width="16" xmlns="http://www.w3.org/2000/svg"><path d="m1.85925 12.628056c-.6731285-.01887-.6911366-.021107-.8614651-.106996-.3920915-.197715-.6836292-.514085-.8473962-.919575l-.0723887-.179236.0059555-3.5830296.0059555-3.5830303.1084205-.2152944c.2212016-.4392475.5336329-.7192662 1.0050908-.9008197l.2183277-.084075 6.1716722.020069 6.1716718.020069.265828.128632c.468055.2264875.821535.6616881.906288 1.1158078.01728.09258.03142.3194325.03142.5041163v.3357887l.273438.020485c.399203.029908.55769.072843.665.1801528l.09281.092812v2.3913459 2.3913455l-.103029.103029c-.130045.130045-.279732.171577-.619181.171797l-.269084.000187-.01971.164063c-.01084.09023-.01983.250033-.01998.355109-.000988.695182-.407663 1.279058-1.059455 1.521093-.174878.06494-.18523.06506-5.7689418.07025-3.0765627.0029-5.9031252-.0035-6.2812502-.01408zm11.770782-1.106567c.06299-.03133.150883-.109421.195312-.173532.07855-.113342.0808-.130355.0814-.614888.000666-.535978.03608-.8734031.10582-1.0082671.02403-.04646.104828-.119076.17956-.161365.113944-.06448.187578-.07887.456189-.08915l.320312-.01225v-1.5857191-1.5857175l-.323638-.0165178c-.392761-.0200453-.522481-.0726715-.629574-.2554125-.070951-.1210694-.078104-.1750434-.106104-.8006209-.016513-.3689397-.046358-.7162272-.066322-.77175-.019965-.0555225-.09404-.1434131-.164612-.1953125l-.128313-.0943622h-6.0373388-6.0373386l-.1596298.1435209-.1596298.143521v3.420189 3.4201887l.1226334.131603.1226334.131602.2914291.01926c.160286.01059 2.8859603.01761 6.0570543.0156 5.5120658-.0035 5.7706618-.0062 5.8801568-.06062zm-8.8561829-1.310177-.00835-.7890631-.1796875-.0094-.1796875-.0094v-.24844-.248441h-.75-.75v-.3749995-.375h.75.75v-.296875-.296875h-.75-.75v-.375-.375h.75.75v-.2482318-.2482878l.1484375-.00952.1484375-.00952.00834-.8046875.00834-.8046875h.35832.35832l.00834.8046875.00834.8046875.2890625.00899.2890627.00899v-.8146835-.8146643l.367187.0088.367188.0088.0083.8046875.0083.8046959h.280195.280195l.0083-.8046875.0083-.8046875.367187-.0088.367188-.0088v.8134831.8134919h.296875.296875v-.8134919-.8134915l.367187.0088.367188.0088.0083.8046875.0083.8046959h.280195.280195l.0083-.8046875.0083-.8046875.366658-.0088.366658-.0088.0083.8056747.0083.8056747.164063.00945.164062.00945v.2634263.2634262l.736706.00838.736705.00838v.3593631.359375l-.736705.00838-.736706.00838v.2963056.2963094h.729167c.401041 0 .735026.0058.742187.0129.0072.00709.0087.1758447.0033.375l-.0096.3620995h-.732447-.732483v.234375.234375h-.140625-.140625v.7978671.797866l-.367187-.0088-.367188-.0088-.0083-.789062-.0083-.7890631h-.280275-.280177l-.0084.7890631-.0084.789062-.366649.0088-.366649.0088-.0084-.790049-.0083-.7900501-.289062-.009-.289063-.009v.7990391.799039l-.367187-.0088-.367188-.0088-.0084-.789062-.0084-.7890621h-.280175-.280177l-.0084.7890621-.0084.789062-.366649.0088-.366649.0088-.0084-.790049-.0083-.7900491h-.2812502-.28125l-.00835.7890441-.00835.789062h-.3577191-.3583019zm5.5385259-2.3515626v-.765625h-2.5624998-2.5625002v.765625.765625h2.5625002 2.5624998z" stroke-width=".03125"/></svg>