<svg height="16" viewBox="0 0 16 16" width="16" xmlns="http://www.w3.org/2000/svg"><path d="m1.4396828 12.630974c-.2131531-.015107-.3079643-.039125-.46875004-.118747-.4012375-.198695-.7044986-.548444-.8386227-.967177l-.068342-.213362.00896-3.5312502.00896-3.53125.1163061-.2435916c.2016609-.42233.5475025-.7290012.99624454-.8834084l.2311916-.07955 6.1406245.010567 6.1406252.010567.186277.069221c.379941.1411872.712863.4257397.892556.7628778.147559.27685.186002.460041.186421.8883588l.000372.3787919.351562.022381c.392593.024993.520934.069319.625616.2160753l.0697.09771v2.3492609c0 2.3354945-.000384 2.3497785-.06544 2.4375005-.129525.174657-.27507.22778-.625627.22835l-.316065.000514-.01987.144987c-.01093.07974-.01987.2478-.01987.373461 0 .479149-.136548.813358-.465141 1.138465-.259786.257029-.545456.403122-.859512.43956-.251667.0292-11.7959435.0289-12.2081692-.000313zm12.2126412-1.113266c.05557-.03519.136288-.111749.179363-.170134.077-.104373.07834-.116142.07968-.701645.0019-.8351778.0333-.9511678.298452-1.1027898.104271-.05963.168748-.06987.442375-.07031l.320311-.000514v-1.5897383-1.589736l-.338675-.013954c-.386567-.0159272-.512047-.0687254-.634601-.2670225-.065321-.1056922-.071512-.1612544-.089485-.8031122-.021757-.7770278-.032663-.8207022-.241535-.9672935l-.132421-.092936-6.0137662.00171-6.0137661.00171-.1110661.068643c-.0610863.0377452-.1429582.1133462-.1819376.1679937l-.070872.099358v3.375 3.3750006l.068538.109375c.07201.114916.1580386.180436.2898522.220755.043511.01331 2.7722247.02182 6.0638097.01891 5.9725831-.0053 5.9849031-.0054 6.0857441-.06927zm-6.3248652-.204478c-.255349-.07399-.562912-.38765-.63515-.647741-.04053-.145936-.04119-.456809-.0013-.600505.04929-.1774338.204082-.3937558.365773-.5111808.148964-.108183.464362-.2307388.500585-.1945157.03241.032409-.09401.1477327-.246998.2253137-.303247.15378-.467741.401113-.488041.7338138-.01609.26367.06948.475383.26495.655564.179805.165738.324663.224328.56055.226722.370034.0038.698806-.238555.809435-.596567.07023-.227278.132341-.350571.176605-.350571.05557 0 .01135.340704-.06824.525709-.08801.204585-.347534.448613-.550736.51785-.159674.05441-.525695.06298-.687465.01611zm.118333-.374353c-.307732-.123254-.454176-.446184-.33341-.735218.02537-.06072.204673-.2747198.398451-.4755588.193778-.20084 1.021482-1.0612561 1.839342-1.9120374.8178592-.8507812 1.5131302-1.5679687 1.5450472-1.59375.07223-.058343.09523-.098534-.330861.578125-.183989.2921875-.7812692 1.2414063-1.3272882 2.109375-1.258111 1.9999302-1.210345 1.9300852-1.369294 2.0022582-.139797.06348-.304334.07393-.421987.02681zm.369962-.457399c.114218-.145205.0255-.321665-.161721-.321665-.108795 0-.212778.09926-.212778.203125 0 .192298.253391.272504.374499.11854zm-4.8349772-.470102c.054776-1.1514479.5260082-2.2009213 1.3653142-3.0406666.666375-.6667244 1.418212-1.0750775 2.370703-1.287625.254797-.056858.401297-.067523.927586-.067527.694988-.000005 1.002973.047175 1.537138.2354706.468131.1650188 1.1659872.5398466 1.1659872.6262672 0 .020355-.17308.2116013-.3846222.4249916l-.384622.3879828-.15444-.090667c-1.372704-.8058664-3.158991-.5631532-4.297713.5839564-.628106.6327319-1.027553 1.5708626-1.028418 2.415317l-.000185.179687h-.567098-.5670978zm8.2320084.347051c-.01184-.01184-.02153-.115782-.02153-.230979 0-.2537508-.07233-.6858348-.15856-.9472258-.140588-.4261628-.458438-.9792591-.724419-1.2605775-.0645-.068215-.0888-.1198666-.07723-.16412.03061-.1170569.537393-.9075832.582027-.907901.05545-.0003937.326237.2875228.565799.6015885.581885.762854.91154 1.6776075.943048 2.6168508l.01.296875-.548782.0085c-.30183.0047-.558471-.0012-.570313-.01302z" stroke-width=".03125"/></svg>