<svg height="16" viewBox="0 0 16 16" width="16" xmlns="http://www.w3.org/2000/svg"><path d="m4.0613789 15.08894c-.028727-.03461-.015482-.146947.059869-.508671.08797-.421985.1547209-.761286.3500439-1.778978.036333-.189382.072846-.376025.081079-.414763l.015034-.07043h-.5466011c-.5088098 0-.5505574-.0044-.6038761-.06329-.053784-.0594-.054142-.0695-.00626-.16434.088954-.176234.33543-.61956.5781832-1.040135.1291759-.223812.4602298-.80135.7356741-1.283414.2754353-.4820637.5281578-.915217.5616006-.9625622.070877-.1004116.1503716-.1100247.2252756-.027259.050383.055645.045372.095895-.092641.7434426-.2717214 1.2751276-.2989088 1.4298476-.2560515 1.4570626.021478.01365.2886262.02503.5936115.0253.7273557.000629.7069786-.03232.3737053.604347-.1370733.261845-.3223733.616944-.4118016.789109-.089402.172166-.173532.327115-.1869109.344332-.013334.01722-.1758587.327115-.3610692.688663-.1852015.361548-.396436.763007-.469407.892132-.072935.129123-.1980166.365069-.2778873.524323-.1324645.264121-.1531012.28955-.2349765.28955-.049399 0-.106351-.01998-.1266207-.04441zm5.3857543-.0919c-.040002-.04818-.049131.0046.2441493-1.413176.067655-.327115.1531459-.742661.1899624-.923435.036781-.180774.07401-.35333.08269-.383459.01459-.05072-.025773-.05478-.5449382-.05478-.5034492 0-.5659944-.0058-.6125118-.05725-.028458-.03148-.051815-.07597-.051815-.09885s.097089-.211937.2157447-.420124c.1186657-.208181.2469421-.434859.2850653-.503726.038123-.06886.080094-.139297.093267-.156515.038392-.05024.4918156-.844436.6428046-1.1260217.1348905-.2515707.2813785-.504159.5894865-1.016467.121341-.201761.166489-.2521784.225839-.2521784.141468 0 .148135.084757.04734.6019297-.134406.6895127-.221884 1.1355034-.271811 1.3858004-.02407.120516-.03705.236728-.0289.258249.0111.02929.155186.03913.572966.03913.565726 0 .6333.01284.6333.12037 0 .05114-.414978.884516-.641489 1.288258-.08206.146341-.2874.533714-.456225.860829-.168833.327115-.459804.883523-.646608 1.236463-.3201811.604923-.3451222.642249-.4350606.651133-.055574.0055-.1112194-.0096-.1332521-.03618zm-2.1167208-6.5753831c-1.125519-.2200172-1.791824-1.1237175-2.0083653-2.723893-.069355-.5127528-.069355-1.6202832 0-2.133036.1745522-1.289887.6563178-2.1486647 1.4136173-2.5198178.3801934-.18633538.588063-.23062625 1.0799501-.23010541.4843699.00051368.6934208.0448439 1.0642892.22571591.2772609.135211.7026204.5385647.8711766.8261028.2551737.4352947.4255377.9591552.5275037 1.6220685.07804.5075981.07804 1.7775098 0 2.285108-.101966.6629133-.27233 1.1867737-.5275037 1.6220685-.0573637.0978154-.2239869.2979432-.3703315.444729-.2874987.2883757-.5572065.4478754-.9234303.5460935-.2613584.0700894-.8532517.0884619-1.1269061.0349642zm.8653597-.8011321c.7836276-.2471723 1.1536817-1.2096432 1.1536817-3.0006134 0-1.1139576-.1465325-1.8854029-.456019-2.4008717-.1365274-.2273796-.235227-.3333771-.4197216-.4507454-.3372646-.2145475-.8131418-.2462335-1.1858806-.0789579-.3773834.1693598-.6962039.6264877-.8474347 1.21506-.254566.9907661-.2385382 2.6433135.034633 3.5737189.2748536.9360021.951289 1.3851027 1.7207144 1.1424104zm4.6752489.8011321c-1.125519-.2200172-1.791832-1.1237175-2.008365-2.723893-.06935-.5127528-.06935-1.6202832 0-2.133036.174543-1.289887.656318-2.1486647 1.413608-2.5198178.380194-.18633538.588072-.23062625 1.079951-.23010541.484369.00051368.69342.0448439 1.064298.22571591.277261.135211.70262.5385647.871176.8261028.255175.4352947.42553.9591552.527505 1.6220685.07804.5075981.07804 1.7775098 0 2.285108-.101975.6629133-.27233 1.1867737-.527505 1.6220685-.05736.097815-.223986.2979432-.370331.444729-.287499.2883757-.557216.4478754-.92343.5460935-.261359.070089-.853252.088462-1.126907.034964zm.86536-.8011321c.783628-.2471723 1.153673-1.2096432 1.153673-3.0006134 0-1.1139576-.146524-1.8854029-.456019-2.4008717-.136519-.2273796-.235218-.3333771-.419722-.4507454-.337264-.2145475-.813141-.2462335-1.185871-.0789579-.377384.1693598-.696213.6264877-.847435 1.21506-.254575.9907661-.238547 2.6433135.03463 3.5737189.274845.9360021.951289 1.3851027 1.720714 1.1424104zm-13.43345264.2662186v-.4225889h.81386664.8138756v-2.8049995-2.8049995l-.070429.017164c-.03875.00944-.4084994.082108-.8216971.1614846-.41319768.079379-.77592247.1516031-.80605408.1605048-.0503834.014891-.0547685-.020207-.0547685-.4392208 0-.4467085.00089491-.4557068.0704294-.4712478.0387496-.0086806.43032627-.0864568.87018328-.1727619.7593488-.14898996.8253752-.15691885 1.3068993-.15691885h.5071359v3.25549785 3.2554971h.8138756.8138756v.4225889.4225889h-2.1285963-2.12858739z" stroke-width=".031303"/></svg>