<svg height="16" viewBox="0 0 16 16" width="16" xmlns="http://www.w3.org/2000/svg"><path d="m2.349561 15.927609c-.561465-.111353-.940501-.438933-1.139822-.985086-.119885-.328494-.14875-.537778-.148069-1.073568.000645-.506243.02891-.745497.127164-1.076342.09629-.324231.275657-.64762.491499-.886148.231772-.256132.657108-.481115 1.060596-.561006.183483-.03633.834102-.03949.943889-.0046l.06907.02196.0065.280395c.0036.154218.0036.280262 0 .280099-.0036-.000161-.0738-.02157-.156105-.04757-.0823-.026-.239793-.05327-.349979-.06059-.737181-.04902-1.295013.342559-1.499156 1.052348-.06172.214593-.09855.437412-.0723.437412.0092 0 .05035-.02079.09147-.0462.281998-.174284.688544-.266214 1.081761-.244612.429624.0236.692766.127699.960956.380148.26391.248419.385012.567899.385012 1.015707 0 .501125-.167471.874675-.531924 1.186475-.140279.120012-.385781.248649-.572317.299879-.158098.04342-.594926.06169-.748204.03129zm.706803-.549249c.389417-.148349.606108-.610177.530309-1.130233-.07608-.521962-.443347-.76598-1.097414-.729135-.265861.01498-.442729.05727-.662999.158521-.139928.06432-.156433.07912-.170205.15253-.02217.118182.0093.613029.05006.785899.09411.399616.360018.703774.699373.799976.15421.04372.488106.02445.650875-.03756zm3.137815.550801c-.662739-.12101-1.020872-.568147-1.179699-1.472879-.05601-.319031-.05532-1.351002.0011-1.657834.09463-.514592.229318-.846032.435638-1.071984.152214-.166697.309123-.267892.539728-.348084.164033-.05704.210175-.06267.514024-.06267s.349991.0056.514024.06267c.594554.206755.886144.682512.997341 1.627263.04391.373028.03129 1.136851-.02416 1.462562-.13585.797975-.430383 1.223488-.972947 1.405621-.142687.0479-.234889.06207-.444959.06838-.145738.0044-.316777-.0015-.380087-.01305zm.587983-.520163c.443619-.131741.615334-.529155.655474-1.517021.02879-.7085-.04462-1.346968-.187256-1.62862-.12822-.253186-.255552-.361465-.498295-.423731-.342433-.08784-.716587.01925-.896773.256661-.172599.227418-.23384.480251-.274016 1.13128-.0328.531562-.0019 1.183463.06921 1.458657.10999.42581.2834.646097.570789.725087.154911.04258.413288.04151.560863-.0023zm6.514201.527524c-.263268-.04402-.50602-.191289-.646306-.39209-.299092-.428112-.299092-1.403411 0-1.831524.168684-.241449.441022-.378785.795946-.401383.598254-.03809.990586.244241 1.132533.815001.05337.214604.05325.784916-.00023 1.002866-.07992.325792-.27517.594773-.512821.706482-.200479.09424-.540991.138795-.769133.100648zm.4259-.424051c.11534-.03169.26646-.184298.305662-.308678.09649-.306131.08584-.938962-.01993-1.184828-.08641-.200873-.244832-.299394-.481419-.299394-.170009 0-.279767.04229-.380112.146453-.111166.115397-.141811.205048-.176825.517301-.03013.268703-.0019.649688.06189.834542.08802.25515.380405.379857.690727.294604zm-3.269242.15793c.05537-.104461.577915-1.101073 1.161221-2.214694.583305-1.11362 1.069219-2.033429 1.079809-2.044019s.12455-.01628.253244-.01265l.233988.0066-1.166984 2.227346-1.166983 2.227346h-.247481-.24748zm-.7372922-1.754768c-.414911-.09033-.6649528-.359793-.7609608-.820069-.04707-.225666-.04647-.714848.0012-.939187.116621-.549372.4943088-.853538 1.059857-.853538.538377 0 .895838.26949 1.039371.783581.0591.211673.0591.867058 0 1.078731-.116927.418798-.36663.670297-.745145.750504-.190334.04033-.4089487.04032-.5942722-.000022zm.5951862-.457423c.185707-.108832.268543-.365606.268543-.832424 0-.617266-.141566-.870169-.505565-.903175-.2892142-.02622-.4900402.09775-.5680382.350655-.03527.114376-.04246.213347-.04176.575541.000762.3966.0056.449367.05187.565543.09352.234846.246439.325719.5261572.31267.127216-.0059.188106-.02152.268796-.06881zm-9.123877-3.8160699c-.34588496-.09982-.65865391-.31963-.86372891-.607016-.13109-.183707-.205492-.346664-.26362604-.577402-.04508-.17894-.04612-.258159-.04645-3.5441941-.000377-3.781462-.01136-3.536737.17611104-3.924073.08861-.183078.136819-.2489.303984-.415043.21884-.217504.40001895-.326817.69363691-.418498l.172665-.053914h6.123762c5.810129 0 6.130838.0021 6.261893.04108.524277.155917.907684.499414 1.101312.986672.07935.199672.106311.397797.106869.785205l.000457.316548h.320394c.363062 0 .4636.02784.59355.164353.153481.161235.145052.01557.145052 2.506684 0 2.1777161-.0016 2.2615641-.04419 2.3547041-.05687.124274-.146527.208284-.285774.267762-.09376.04005-.159366.04752-.417086.04752h-.305824l-.01203.420146c-.01286.448991-.03718.569369-.167474.82877-.199649.397493-.57672.702583-1.017692.82342-.16432.04503-.251083.04562-6.296425.04305-5.920765-.0025-6.134911-.0041-6.27938-.04577zm12.293036-1.035503c.12622-.02908.235286-.10944.317916-.234232l.0624-.09424.01277-.692384c.01191-.645426.01606-.698631.0612-.784472.063-.119806.154379-.204727.282861-.262886.08725-.0395.151719-.04698.408635-.0474l.305037-.000505v-1.5884951-1.588495h-.28367c-.320787 0-.440286-.02926-.575845-.140999-.04714-.03886-.10822-.113676-.135733-.166265-.04715-.09012-.05075-.135292-.06265-.786265-.01417-.774844-.01273-.767839-.188915-.918647-.05332-.04564-.133878-.09324-.179022-.10578-.125563-.03488-11.928426-.0313-12.045094.0037-.123481.037-.269611.168753-.321551.289923-.04203.09805-.04354.216276-.04354 3.412869 0 3.1965931.0015 3.3148211.04354 3.4128691.0546.127369.210066.262612.333896.290457.136976.0308 11.874212.03207 12.007761.0013zm-9.71468-1.855292c-.19626-.186153-.538132-.509822-.759715-.719265-1.105081-1.0445311-1.307811-1.2487151-1.386588-1.3965351-.177284-.332666-.177414-.790591-.00032-1.124615.09724-.18341.355991-.426411.558597-.5246.221971-.107572.406071-.142491.673483-.127741.386178.0213.582061.121881 1.006039.516569l.283292.263721.08311-.07754c.04571-.04265.17939-.167573.297065-.277616.322015-.301128.621155-.430637.994683-.430637.349678 0 .682951.134934.926853.37526.257825.254046.379231.569558.356109.925464-.02462.379026-.140731.566687-.649866 1.050365-.202591.19246-.456405.433904-.564031.536541-.107626.1026371-.392519.3728581-.633096.6004911-.240576.227632-.513066.486435-.605533.575116-.09247.08868-.180525.163992-.195684.167359-.01516.0034-.188139-.146187-.384398-.33234zm6.515131-.04604c-.19626-.186154-.5381322-.509823-.7597152-.719265-1.1050808-1.0445311-1.3078108-1.2487151-1.3865878-1.3965361-.177284-.332666-.177414-.79059-.00032-1.124615.09724-.18341.355991-.426411.558597-.524599.221971-.107572.4060708-.142491.6734828-.127741.386178.0213.5820615.12188 1.0060392.516568l.283292.263722.08311-.07754c.04571-.04265.17939-.167572.297065-.277615.322015-.301128.621155-.430637.994683-.430637.349678 0 .682951.134934.926853.375259.257825.254047.379232.569559.356109.925465-.02462.379025-.140731.566687-.649866 1.050364-.202591.192461-.456405.433905-.564031.536542-.107626.1026371-.392519.3728571-.633096.6004901-.240576.227633-.513066.486435-.605533.575117-.09247.08868-.180525.163992-.195684.167358-.01516.0034-.188139-.146187-.384398-.332339z" stroke-width=".023022"/></svg>