<svg height="16" viewBox="0 0 16 16" width="16" xmlns="http://www.w3.org/2000/svg"><path d="m4.6056873 15.928844c-.66274-.12101-1.02088-.568147-1.1797-1.472879-.056-.319031-.0553-1.351002.001-1.657833.0946-.514593.22932-.846032.43564-1.071984.15221-.166697.30912-.267892.53972-.348084.16404-.05704.21018-.06267.51403-.06267s.34999.0056.51402.06267c.59455.206755.88614.682512.99734 1.627262.0439.373029.0313 1.136852-.0242 1.462562-.13585.797975-.43039 1.223488-.97295 1.405621-.14269.0479-.23489.06207-.44496.06838-.14574.0044-.31678-.0015-.38009-.01305zm.58798-.520163c.44362-.131741.61533-.529155.65547-1.517021.0288-.7085-.0446-1.346967-.18725-1.628619-.12822-.253187-.25556-.361465-.4983-.423731-.34243-.08784-.71659.01925-.89677.256661-.1726.227418-.23384.48025-.27402 1.131279-.0328.531563-.002 1.183463.0692 1.458657.10999.42581.2834.646097.57078.725087.15492.04258.41329.04151.56087-.0023zm2.589.520163c-.66273-.12101-1.02087-.568147-1.17969-1.472879-.056-.319031-.0553-1.351002.001-1.657833.0946-.514593.22931-.846032.43563-1.071984.15222-.166697.30913-.267892.53973-.348084.16403-.05704.21018-.06267.51403-.06267.3038403 0 .3499903.0056.5140203.06267.59455.206755.88614.682512.99734 1.627262.0439.373029.0313 1.136852-.0242 1.462562-.13585.797975-.43039 1.223488-.97295 1.405621-.14269.0479-.23489.06207-.4449603.06838-.14574.0044-.31678-.0015-.38009-.01305zm.5879903-.520163c.44362-.131741.61533-.529155.65547-1.517021.0288-.7085-.0446-1.346967-.18726-1.628619-.12822-.253187-.25555-.361465-.49829-.423731-.3424303-.08784-.7165903.01925-.8967703.256661-.1726.227418-.23384.48025-.27402 1.131279-.0328.531563-.002 1.183463.0692 1.458657.10998.42581.2834.646097.57078.725087.15491.04258.41329.04151.5608703-.0023zm5.7774994.527524c-.26326-.04402-.50602-.19129-.6463-.39209-.2991-.428113-.2991-1.403411 0-1.831523.16868-.241449.44102-.378786.79594-.401384.59826-.03809.99059.244242 1.13254.815002.0534.214603.0532.784915-.00024 1.002865-.0799.325792-.27516.594772-.51282.706482-.20047.09424-.54099.138795-.76913.100648zm.4259-.424051c.11534-.03169.26646-.184298.30566-.308678.0965-.306131.0858-.938962-.0199-1.184828-.0864-.200873-.24483-.299393-.48142-.299393-.17001 0-.27977.04229-.38011.146452-.11117.115397-.14181.205048-.17683.517301-.0301.268703-.002.649688.0619.834542.088.25515.38041.379856.69073.294604zm-13.96263268.117641v-.230216h.47194398.471944v-1.484897-1.484897h-.471944-.47194398v-.203799-.203798l.194895-.01498c.25607998-.01968.41440498-.05462.54455498-.120163.170454-.08584.296525-.265865.296525-.423429v-.0698h.241727.241728v2.002885 2.002884h.448922.448921v.230216.230217h-1.208636-1.20863698zm10.69339268.04029c.0554-.10446.57792-1.101072 1.16122-2.214692.58331-1.113621 1.06922-2.033429 1.07981-2.044019.0106-.01059.12455-.01628.25324-.01265l.23399.0066-1.16698 2.227346-1.16698 2.227345h-.24748-.24748zm-.73729-1.754767c-.41491-.09033-.6649498-.359793-.7609594-.820068-.0471-.225667-.0465-.714848.001-.939187.1166196-.549373.4943094-.853538 1.0598594-.853538.53837 0 .89583.26949 1.03937.783581.0591.211673.0591.867057 0 1.07873-.11693.418798-.36663.670297-.74515.750504-.19033.04033-.40895.04032-.59427-.000022zm.59519-.457423c.1857-.108831.26854-.365605.26854-.832424 0-.617265-.14157-.870168-.50557-.903174-.28921-.02623-.49004.09775-.56803.350654-.0353.114377-.0425.213348-.0418.575542.00076.396599.006.449366.0519.565542.0935.234846.24644.32572.52616.31267.12722-.0059.18811-.02152.2688-.06881zm-9.9756797-3.8160695c-.34588498-.09982-.65865398-.319629-.86372898-.607016-.13109-.183706-.205492-.346664-.263625-.577401-.04508-.17894-.04612-.258159-.04645-3.5441931-.000378-3.781462-.01136-3.536736.176112-3.92407204.08861-.183078.136818-.2489.303983-.415044.21884-.217504.400019-.326816.69363698-.418497l.172662-.05391h6.12376c5.8101297 0 6.1308397.0021 6.2618897.04108.52428.155917.90769.499414 1.10132.98667104.0793.199673.10631.397797.10686.785206l.00046.316547h.3204c.36306 0 .4636.02784.59355.164353.15348.161235.14505.01557.14505 2.506683 0 2.1777161-.002 2.2615641-.0442 2.3547041-.0569.124274-.14653.208284-.28578.267761-.0938.04005-.15936.04752-.41708.04752h-.30583l-.012.420145c-.0129.448992-.0372.569369-.16747.828771-.19965.397492-.57672.702582-1.01769.82342-.16432.04503-.25109.04562-6.2964297.04305-5.920761-.0025-6.134907-.0041-6.279376-.04577zm12.2930297-1.035503c.12622-.02908.23529-.109439.31792-.234231l.0624-.09425.0128-.692384c.0119-.645425.0161-.69863.0612-.7844711.063-.119807.15438-.204727.28286-.262887.0872-.0395.15172-.04697.40863-.0474l.30504-.000507v-1.588491-1.588495h-.28367c-.32079 0-.44029-.02926-.57585-.140999-.0471-.03886-.10822-.113676-.13573-.166264-.0471-.09012-.0507-.135293-.0626-.786265-.0142-.774844-.0127-.767839-.18892-.918648-.0533-.04564-.13388-.09324-.17902-.105779-.12556-.03488-11.9284217-.0313-12.0450897.0037-.123481.037-.269612.168753-.321551.289923-.04203.09805-.04354.216276-.04354 3.412868 0 3.1965921.0015 3.3148201.04354 3.4128681.0546.127369.210065.262612.333896.290457.136976.0308 11.8742047.03207 12.0077547.0013zm-4.1206794-.700613c-.019-.02284-.0239-.06847-.0145-.132374.008-.05364.0248-.167544.0376-.253128.0127-.08558.0326-.173641.0441-.195684.0115-.02204.0337-.128135.0491-.235762.0155-.107626.0358-.206044.0452-.218705.009-.01266.0349-.1421591.0569-.2877711.0219-.145612.048-.275109.0578-.287771.01-.01266.0308-.116259.0464-.230217.0157-.113957.0388-.220085.0515-.235839.0126-.01575.018-.05485.0119-.08688-.006-.03203-.003-.06298.006-.06878s.0301-.0962.046-.20089c.0159-.104693.0391-.203168.0515-.218834.0124-.01567.0165-.04416.009-.06331-.0114-.02971-.0923-.03483-.55108-.03483-.53231 0-.53822-.000536-.58778-.05328-.0635-.06756-.0629-.07754.0118-.213793.034-.06203.0833-.15422.10947-.204868.0262-.05065.0784-.138706.11604-.195684.0376-.05698.0872-.139857.11025-.184173.023-.04432.0719-.132375.1086-.195684.0367-.06331.08-.141008.0963-.172663.0163-.03166.0635-.111445.10492-.177312.0414-.06587.0753-.126426.0753-.134576 0-.0081.0195-.04232.0434-.07593s.0804-.12971.12556-.213557c.0452-.08385.11322-.202984.15115-.264749.0379-.06177.0906-.153739.1171-.204387.0265-.05065.0783-.143885.1152494-.207195.0369-.06331.0841-.151367.10496-.195684.0208-.04432.051-.09612.0671-.115108.0161-.01899.0634-.09669.10506-.172663.11799-.215076.15473-.279777.21206-.373436.0293-.04785.0644-.107716.0779-.13304.0162-.03017.0532-.04848.10728-.05311.1133-.0097.16575.06678.14249.207745-.009.05423-.0243.108959-.0341.121621-.01.01266-.0293.109995-.0434.216296-.0141.1063-.0346.204718-.0455.218705-.011.01399-.0382.149749-.0604.301692-.0223.151943-.0486.286619-.0584.299281-.01.01266-.0303.1059-.0455.207195s-.0353.194533-.0449.207195c-.0243.03229-.0759.427925-.0581.445775.008.0081.26478.01779.57053.02161.47108.0059.56213.01259.59668.04386.0224.0203.0408.04841.0408.06248s-.0559.134188-.12414.266936c-.35604.692207-.42682.827103-.47761.910349-.0305.0499-.0951.168426-.14362.26339-.0485.09497-.15886.307339-.24513.471944-.0863.164605-.21284.408059-.28124.541009-.13208.256692-.18299.34969-.20164.368347-.006.0063-.0529.09957-.1036.2071951-.0506.107626-.0973.200864-.1035998.207195-.0188.01878-.0698.112106-.2055396.375988-.0705.137153-.14179.274419-.15831.305037-.0237.04393-.0486.05567-.11804.05567-.0505 0-.10034-.01485-.11694-.03485zm-5.4100903-.04604c-.019-.02284-.0239-.06847-.0145-.132375.008-.05364.0248-.167544.0375-.253127.0127-.08558.0326-.173641.0441-.195684.0115-.02204.0337-.128136.0491-.235762.0155-.107626.0358-.206044.0451-.218706.009-.01266.035-.1421591.0569-.2877711s.048-.275108.0578-.28777c.01-.01266.0307-.11626.0464-.230217s.0388-.220085.0515-.235839c.0126-.01575.018-.05485.0119-.08688-.006-.03203-.003-.06298.006-.06878s.0301-.0962.046-.20089c.0159-.104693.0391-.203168.0515-.218834.0124-.01567.0165-.04416.009-.06331-.0114-.02971-.0923-.03483-.55108-.03483-.53231 0-.53822-.000537-.58778-.05328-.0635-.06756-.0629-.07754.0118-.213793.034-.06203.0833-.154221.10947-.204868.0262-.05065.0784-.138706.11604-.195684.0376-.05698.0872-.139857.11025-.184174.023-.04432.0719-.132374.1086-.195684s.08-.141007.0963-.172662c.0163-.03166.0635-.111445.10492-.177312.0414-.06587.0753-.126426.0753-.134576 0-.0082.0195-.04232.0434-.07593s.0804-.12971.12556-.213556c.0452-.08385.11322-.202984.15115-.264749.0379-.06177.0906-.15374.1171-.204387.0265-.05065.0783-.143886.11525-.207195.0369-.06331.0841-.151368.10496-.195684.0208-.04432.051-.09612.0671-.115109.0161-.01899.0634-.09669.10506-.172662.11799-.215076.15473-.279777.21206-.373436.0293-.04785.0644-.107717.0779-.133041.0162-.03016.0532-.04848.10728-.05311.1133-.0097.16575.06678.14249.207744-.009.05423-.0243.108959-.034.121621-.01.01266-.0293.109995-.0434.216296s-.0346.204718-.0455.218706c-.011.01399-.0382.149748-.0604.301691-.0223.151943-.0486.28662-.0584.299282-.01.01266-.0303.1059-.0455.207195s-.0354.194533-.0449.207195c-.0243.03229-.0759.427925-.0581.445774.008.0081.26478.01779.57053.02161.47108.0059.56213.01258.59668.04386.0224.0203.0408.04841.0408.06248s-.0559.134187-.12414.266936c-.35604.692206-.42681.827103-.47761.910349-.0305.0499-.0951.168426-.14362.26339-.0485.09496-.15886.307339-.24513.471944-.0863.164605-.21284.408059-.28124.541009-.13208.256692-.18299.34969-.20164.368346-.006.0063-.0529.09957-.1036.2071951-.0507.107627-.0973.200864-.1036.207195-.0188.01878-.0698.112107-.20554.375988-.0705.137153-.14179.27442-.15831.305037-.0237.04393-.0486.05567-.11804.05567-.0505 0-.10034-.01485-.11694-.03485z" stroke-width=".023022"/></svg>