<svg height="16" viewBox="0 0 16 16" width="16" xmlns="http://www.w3.org/2000/svg"><path d="m4.2750542 15.934472c-.210615-.0505-.542218-.258558-.727131-.45623-.19649-.210049-.281018-.35088-.375597-.625779-.05609-.163013-.05813-.381103-.05796-6.1816351.000126-3.7114593.01161-6.0824567.03005-6.1950292.08496-.5188135.515085-1.0138732 1.041024-1.1981938.135778-.047585.293914-.068913.609318-.082178l.425949-.017915.000184-.28195114c.000213-.35639474.03361-.47482907.171615-.60859589l.110426-.10704948 2.331715-.008314 2.3317158-.008314.103411.0702701c.168214.11430686.225691.26442687.242048.63218997l.01427.32095794.220531.0002323c.121292.0001258.338135.013755.481873.03028.612891.07046 1.127.4973784 1.304679 1.0834125.06051.1995643.06131.2963691.05314 6.3689136l-.0083 6.1662702-.11625.235206c-.201564.407826-.48903.666794-.909648.819469l-.200558.0728-3.4913808-.0032c-1.92026-.0017-3.533568-.01328-3.585132-.02564zm6.9969038-1.070312c.06541-.03121.153106-.108382.194872-.171496l.07594-.114753.01927-2.945746c.01554-2.376105.01157-2.9550222-.02054-2.9937121-.0355-.04278-.415639-.047965-3.5165138-.047965-1.912189 0-3.563153.00903-3.668809.020079l-.192102.020079.0094 2.9794911.0094 2.97949.08645.113321c.04755.06233.117247.130933.15489.152459.108906.06228.949655.07741 3.956202.07121 2.6169508-.0054 2.7792218-.0089 2.8914798-.06246zm.276632-9.8005656c-.0071-2.4253117-.008-2.4595325-.07126-2.5618818-.129382-.2093404-.185839-.2240772-.953351-.2488467-.7766945-.0250656-.8249095-.0375142-.9772135-.2523033-.0800013-.1128225-.0899143-.1556286-.1051423-.4540043l-.01681-.3294368-1.567679.00803-1.567678.00803-.01549.3252707c-.0179.375872-.07338.5012805-.269528.6092834-.104818.057713-.190513.067184-.783036.08654-.741556.024225-.812307.040628-.949189.2200584l-.08927.1170239-.0088 2.473066-.0088 2.473066 3.695203-.00787 3.6952038-.00787zm-3.8806098 2.3127484c-.084239-.0231953-.394225-.3143439-1.389717-1.3052675-.704711-.7014771-1.321564-1.3297802-1.370784-1.396229-.07044-.095103-.08949-.1535671-.08949-.2747036 0-.1374538.01284-.1667306.120268-.2741555.109662-.1096617.13485-.120268.285614-.120268h.165345l1.178637 1.1771702c.64825.6474437 1.19924 1.1771703 1.224422 1.1771703.02518 0 .569678-.5237592 1.209995-1.1639095 1.0892558-1.0889723 1.1724158-1.1650094 1.2916188-1.1809982.07007-.0094.160916-.00868.201871.0016.10515.026391.233137.1639328.267141.2870827.06546.2370976.06245.2407986-1.3550278 1.6634061-.726929.7295584-1.356538 1.3444548-1.399133 1.3664361-.12076.062319-.222924.075111-.34076.042666z" stroke-width=".030978"/></svg>