<svg height="16" viewBox="0 0 16 16" width="16" xmlns="http://www.w3.org/2000/svg"><path d="m3.3015284 12.887193c-.979702-.929642-1.3747303-1.324722-1.4498075-1.450038-.3210161-.535773-.2182126-1.216452.2490631-1.6490562.3471555-.3214149.8048266-.4638159 1.2495448-.3888071.3366526.056773.6048415.2082812.9741074.5502447.1756786.1627096.3322232.2958246.347881.2958246.015659 0 .1718447-.134642.3470882-.2991817.3726139-.3498882.6310252-.4934704.9876575-.5488017.8580049-.1331223 1.6670774.5295192 1.6670774 1.3653664 0 .374492-.2108847.824377-.4935097 1.052832-.051739.04187-.6319488.587546-1.2893623 1.212726-.6574104.625181-1.2060548 1.136698-1.2192084 1.136698-.013147 0-.629892-.575017-1.3705315-1.277807zm6.7087186.117377c-1.4070529-1.331425-1.5377086-1.465741-1.6373012-1.683293-.2386155-.521209-.1372068-1.078113.2705666-1.4858894.3350029-.334997.7836811-.4825039 1.2480621-.4103112.3608105.0561.5770995.1766892.9658405.5385586l.33837.314961.0807-.07152c.04451-.03931.197499-.179973.340121-.312559.302804-.2814614.553599-.415733.878605-.4703696.83925-.1410811 1.669768.5247067 1.669768 1.3385876 0 .193614-.08489.482049-.197311.669839-.07173.120005-.475546.523985-1.41029 1.411082-.720333.68362-1.327095 1.246497-1.348357 1.250857-.02124.0053-.560743-.486133-1.198864-1.089954zm-5.2993601-4.5593283c-1.0972922-.2143897-1.7668245-1.0373668-2.0276492-2.492355-.0820853-.4579317-.1145515-1.5649263-.059724-2.0365603.1757394-1.5116552.9658652-2.6302334 2.1030471-2.97728393.6299289-.1922442 1.4663597-.15968851 2.2693379.08832653l.207881.064204v.452962.4529605l-.1646261-.0669906c-.3345251-.1361364-.8430771-.2495342-1.1994113-.267447-1.0705232-.0538178-1.7407671.4194366-2.0667803 1.4593256-.1157188.3691101-.2344453 1.1651049-.1737819 1.1651049.016439 0 .029874-.012885.029874-.028625 0-.06412.3828946-.4114236.5841325-.5298399.3584171-.210904.6126013-.2728695 1.1091559-.2703871.4979396.00247.7338297.052642 1.12886.2400017.2196626.104187.313964.1742244.536219.3982632.4515126.4551379.6457894.9461267.677177 1.7114108.0198266.4833909-.0351764.8617772-.1797675 1.2367203-.2531675.6564878-.8367865 1.1738022-1.5263488 1.3529432-.3187841.0828119-.9443498.1065176-1.2475988.047268zm.8372608-.7751059c.5368086-.1139887.9453752-.5602217 1.0755539-1.1747115.058855-.2778083.058855-.7828451 0-1.060653-.1591239-.7511243-.6982954-1.2099971-1.4217347-1.2099971-.6412283 0-1.1312392.3739517-1.3459219 1.0271385-.06942.2112129-.080129.2999829-.082195.6818275-.00342.6411116.109599 1.0031471.4191489 1.3418422.3237951.3542843.8387408.5042102 1.3551488.3945534zm4.6188893.7749486c-1.127473-.220399-1.7949427-1.1256683-2.0118541-2.7286194-.0695-.5136421-.0695-1.6230949 0-2.1367371.1748501-1.2921254.6574594-2.1523929 1.4160655-2.5241904.3808566-.18665843.5890866-.2310264 1.0818216-.23050404.485212.00051398.694628.0449228 1.066145.22610744.277739.1354452.703843.5394999.872688.8275358.255609.4360501.426273.9608184.52842 1.6248838.07813.5084773.07813 1.7805935 0 2.2890726-.102147.6640638-.272811 1.1888329-.52842 1.6248825-.05745.097985-.224371.298461-.370968.4455-.28801.288877-.558185.4486534-.92504.5470413-.261812.070211-.854744.088609-1.128858.035027zm.866849-.8025218c.784982-.2476014 1.155695-1.2117422 1.155695-3.0058198 0-1.1158916-.146795-1.888675-.456822-2.4050375-.136752-.2277754-.235629-.3339573-.420446-.4515278-.337843-.2149207-.814561-.2466613-1.187939-.0790988-.3780342.1696538-.6974083.6275761-.8489008 1.2171679-.2550116.9924862-.2389551 2.6479008.0347264 3.5799206.2753259.9376246.9529394 1.3875052 1.7236864 1.1443924z" stroke-width=".031357"/></svg>