<svg height="16" viewBox="0 0 16 16" width="16" xmlns="http://www.w3.org/2000/svg"><path d="m3.8655541 15.11057c-.028772-.03461-.015502-.147026.059955-.508948.088011-.422208.1548097-.761697.3502367-1.779937.036391-.189482.072867-.376229.081116-.414982l.015057-.07046h-.5469015c-.5090887 0-.5508539-.0049-.6041985-.06328-.053779-.05948-.054136-.06956-.00633-.164431.0891-.176342.3356204-.619908.5784954-1.04071.1292934-.223964.4605212-.801815.7361179-1.284138.275588-.4823242.5284475-.915712.5619046-.9630836.070983-.100465.1504533-.1100837.2253979-.027275.050368.055676.045349.095947-.092692.743844-.2718685 1.2758146-.2990697 1.4306186-.2561845 1.4578466.021506.01364.2887725.02501.5939277.02529.7277466.000625.7073569-.03235.3738976.604676-.1371348.26198-.3225423.617275-.4120147.789529-.08945.172262-.1736219.327294-.1870121.344518-.013359.01722-.1759519.32729-.3612604.68904-.1853005.361751-.3966453.763432-.4696538.89262-.073046.129192-.1981295.365258-.2780481.524597-.1325364.264271-.1531861.289714-.2351121.289714-.049387 0-.1064031-.02003-.1266859-.04448zm5.8703442-2.11683c-1.4053748-1.32984-1.5358781-1.46401-1.6353529-1.681291-.2383311-.52058-.1370367-1.076825.2702463-1.4841157.3346065-.3346023.7827498-.4819347 1.2465766-.409824.3603829.056025.5764147.1764852.9647007.5379121l.33795.3145776.08072-.07139c.0444-.03927.197249-.179757.33971-.3121819.302445-.2811368.552948-.415247.87756-.4698186.838247-.1409197 1.667779.5240801 1.667779 1.3369875 0 .193377-.08492.481478-.197074.669048-.07169.119853-.47499.523364-1.408611 1.409392-.71948.682802-1.325516 1.245012-1.346759 1.249359-.02128.0049-.560071-.485544-1.1974332-1.088638zm-5.4568766-4.5431697c-1.0146635-.1319856-1.6775573-.6601487-1.9039681-1.5170003-.0760921-.2881485-.0936399-.8316183-.0355816-1.1037055.1363205-.6385128.6103651-1.1552685 1.2487732-1.3612831l.2102784-.0678544-.2179949-.0848255c-.5499572-.213969-.9122398-.5993488-1.0497604-1.1166874-.0622897-.2344389-.0622004-.7515019.000251-.9876257.2197333-.8309449.9659786-1.32806899 2.0866331-1.39003572 1.048676-.05798734 1.8753327.27079312 2.2897411.91067662.324631.5012523.3586346 1.2516415.0815591 1.7994981-.1865457.3688394-.5189293.6331575-1.0564734.8401417-.0709815.027315-.0642592.0333238.0939645.0847349.6563688.2132726 1.1227689.698981 1.2691446 1.3216778.0718769.3060015.0467834.9461834-.0490278 1.2492432-.1720607.5441122-.4912693.9208242-.9800485 1.1566213-.1589327.0766739-.3735311.1606772-.4768866.186681-.4202608.1057358-1.0536859.1391736-1.5105857.079743zm.9776034-.7970782c.7725681-.1636477 1.1920494-.7997161 1.0789427-1.6360261-.1018233-.7527911-.6646508-1.1968928-1.5168684-1.1968928-.9292779 0-1.5190111.5589182-1.5190111 1.4396211 0 .8786658.5765137 1.4299974 1.5033445 1.4376767.1291946.00109.3333157-.018905.4535923-.044386zm-.0105763-3.6621934c.6404794-.1357537.9605484-.5668438.9290274-1.251273-.0277838-.6036454-.3427801-.9770256-.9290269-1.1012834-.3962145-.0839788-.8469924-.0447589-1.1544695.1004489-.4613541.2178734-.7008414.7240497-.6125337 1.2946013.099395.6421422.5638852.9927956 1.3240135.9995303.1291946.0012.3285387-.017768.4429892-.042024zm4.6464783 4.4483864c-1.1261305-.2201356-1.7927976-1.1243248-2.0094571-2.7253644-.0694568-.5130297-.0694568-1.6211587 0-2.1341883.1746436-1.290584.656674-2.1498249 1.4143824-2.5211782.3803955-.1864362.5883806-.23075132 1.0805286-.23022973.484636.00051363.693795.0448751 1.06487.22583723.27741.1352845.703002.5388563.871653.8265487.255302.4355294.425759.9596732.52778 1.6229451.07817.5078725.07817 1.7784696 0 2.2863419-.102021.663272-.272478 1.1874159-.52778 1.6229445-.05737.09787-.224109.298105-.370533.4449699-.287659.2885312-.557522.4481181-.923934.5463879-.261499.070127-.853712.088512-1.1275097.034979zm.8658249-.8015646c.784047-.2473063 1.154298-1.2102964 1.154298-3.0022341 0-1.1145588-.146611-1.8864216-.456268-2.4021692-.136591-.2275023-.235352-.333558-.419946-.4509888-.337447-.2146636-.81358-.2463658-1.1865165-.0790046-.3775909.1694514-.6965843.6268267-.8478895 1.2157178-.2547141.9912998-.2386714 2.6447404.0346856 3.5756489.2749964.9365071.9518094 1.3858499 1.7216434 1.143027z" stroke-width=".03132"/></svg>