<svg height="16" viewBox="0 0 16 16" width="16" xmlns="http://www.w3.org/2000/svg"><path d="m2.2344528 15.928324c-.966133-.151848-1.49451402-1.018071-1.108734-1.817645.09527-.197454.340607-.443933.5525-.555069l.157438-.08257-.19432-.129297c-.318819-.212135-.452411-.398765-.505012-.705508-.05846-.340899.0468-.646726.313409-.910609.304525-.301411.622279-.413423 1.164576-.410527.520177.0028.823769.106346 1.118242.381478.338605.316366.411846.769169.195148 1.206484-.104585.21106-.276068.389071-.496049.514931l-.129231.07394.149738.07534c.299406.15064.528233.360235.625686.5731.0303.06618.06749.200081.08264.297559.0992.638114-.337904 1.244525-1.040074 1.442915-.199528.05637-.66472.08026-.885958.04548zm.637718-.462005c.285617-.06007.505338-.222865.613062-.454218.05195-.111558.06068-.161504.06104-.348902.000368-.194167-.0069-.233653-.065-.351925-.110486-.225002-.37972-.387641-.985111-.595085-.337023-.115485-.327416-.11704-.550906.08914-.513859.474062-.424931 1.290986.172344 1.583206.202179.09892.505458.13018.754572.07778zm.292109-2.316794c.204816-.202849.268255-.333055.293238-.601863.03692-.397209-.168566-.667312-.590071-.775636-.197206-.05068-.509728-.03395-.699883.03746-.197506.07417-.365828.244325-.416864.421398-.08295.28781.02034.534052.307757.733683.164642.114354.752179.357718.873139.361663.03595.0012.109394-.0546.232684-.176705zm3.029899 2.779632c-.662739-.12101-1.020872-.568146-1.179699-1.472879-.05601-.319031-.05532-1.351002.0011-1.657834.09463-.514592.229318-.846031.435639-1.071984.152213-.166697.309122-.267892.539727-.348084.164033-.05704.210175-.06267.514024-.06267s.349991.0056.5140241.06267c.594554.206755.886144.682513.997341 1.627263.04391.373029.03129 1.136852-.02416 1.462563-.13585.797975-.430383 1.223488-.972948 1.405621-.142686.0479-.2348891.06207-.4449591.06838-.145738.0044-.316777-.0015-.380086-.01305zm.587983-.520163c.4436191-.13174.6153341-.529155.6554741-1.517021.02879-.7085-.04462-1.346968-.187256-1.628619-.12822-.253187-.255552-.361466-.4982941-.423731-.342434-.08784-.716588.01925-.896774.256661-.172599.227417-.233839.48025-.274015 1.131279-.0328.531563-.0019 1.183464.06921 1.458658.109989.42581.283399.646097.570788.725086.154911.04258.413288.04151.560863-.0023zm6.5142012.527525c-.263268-.04402-.50602-.19129-.646305-.39209-.299093-.428113-.299093-1.403412 0-1.831524.168683-.241449.441022-.378786.795946-.401384.598253-.03809.990585.244242 1.132532.815002.05337.214603.05325.784915-.00023 1.002865-.07992.325792-.275169.594773-.512821.706483-.200478.09424-.54099.138795-.769132.100648zm.425901-.424051c.11534-.03169.26646-.184299.305661-.308679.09649-.306131.08584-.938962-.01993-1.184828-.08641-.200873-.244831-.299393-.481418-.299393-.170009 0-.279768.04229-.380113.146452-.111166.115397-.14181.205048-.176824.517302-.03013.268702-.0019.649687.06189.834541.08802.25515.380405.379857.690728.294605zm-3.269243.157929c.05537-.104461.577916-1.101073 1.161221-2.214693.583305-1.113621 1.06922-2.03343 1.07981-2.04402s.124549-.01628.253243-.01265l.233989.0066-1.166984 2.227346-1.166984 2.227346h-.247481-.24748zm-.7372911-1.754768c-.414912-.09033-.664954-.359793-.760962-.820068-.04707-.225667-.04647-.714849.0012-.939188.116621-.549372.49431-.853537 1.0598571-.853537.538377 0 .895839.269489 1.039372.78358.0591.211674.0591.867058 0 1.078731-.116928.418798-.366631.670297-.745146.750504-.190334.04033-.4089494.04032-.5942721-.000022zm.5951861-.457423c.185707-.108831.268543-.365605.268543-.832424 0-.617266-.141566-.870168-.505565-.903175-.2892151-.02623-.4900411.09775-.5680381.350655-.03527.114377-.04246.213348-.04176.575542.000762.396599.0056.449366.05187.565542.09352.234846.24644.32572.5261571.31267.127216-.0059.188106-.02152.268797-.06881zm-9.1238782-3.81607c-.34588502-.09982-.65865402-.319629-.86372902-.607016-.13109-.183707-.205492-.346664-.263626-.577402-.04508-.17894-.04612-.258158-.04645-3.544194-.000376-3.781462-.01136-3.536737.176111-3.924073.08861-.183078.136819-.2489.303984-.415043.21884-.217504.400019-.326817.69363702-.418498l.172663-.05391h6.1237631c5.8101291 0 6.1308371.0021 6.2618931.04108.524277.155917.907684.499414 1.101311.986672.07935.199672.106312.397797.10687.785205l.000456.316548h.320395c.363061 0 .463601.02784.593549.164353.153481.161235.145052.01557.145052 2.506684 0 2.177716-.0016 2.261564-.04419 2.354704-.05687.124274-.146528.208285-.285775.267762-.09376.04005-.159365.04752-.417086.04752h-.305824l-.01203.420146c-.01286.448991-.03718.569369-.167474.828771-.199649.397492-.57672.702582-1.017693.82342-.16432.04503-.251083.04562-6.2964251.04305-5.9207651-.0025-6.1349111-.0041-6.2793801-.04577zm12.2930372-1.035503c.12622-.02908.235285-.10944.317915-.234232l.0624-.09425.01277-.692384c.01191-.645425.01606-.69863.0612-.784471.063-.119807.154378-.204728.282861-.262887.08725-.0395.151718-.04698.408634-.0474l.305037-.000507v-1.588495-1.588495h-.283669c-.320788 0-.440286-.02926-.575845-.140999-.04714-.03886-.108221-.113676-.135733-.166265-.04715-.09012-.05075-.135292-.06265-.786265-.01417-.774843-.01273-.767839-.188916-.918647-.05332-.04564-.133877-.09324-.179021-.10578-.125564-.03488-11.9284272-.0313-12.0450952.0037-.123481.03699-.269611.168752-.321551.289922-.04203.09805-.04354.216276-.04354 3.412869s.0015 3.314821.04354 3.412869c.0546.12737.210066.262613.333896.290458.136976.0308 11.8742132.03207 12.0077622.0013zm-9.5307742-.746657c-.01895-.02284-.02395-.06847-.01448-.132374.0079-.05364.02484-.167544.03755-.253128.01271-.08558.03256-.173641.0441-.195684.01154-.02204.03365-.128136.04913-.235762s.03579-.206044.04514-.218706c.0093-.01266.03495-.142159.05689-.287771s.04796-.275109.05782-.28777c.0099-.01266.03075-.11626.04641-.230217s.03883-.220085.05148-.23584c.01265-.01575.01799-.05485.01187-.08688-.0061-.03203-.0035-.06298.0059-.06878s.03008-.0962.046-.20089c.01592-.104692.0391-.203168.0515-.218834.0124-.01567.01654-.04415.0092-.06331-.0114-.02971-.09234-.03483-.551083-.03483-.532304 0-.538222-.000536-.587775-.05328-.06347-.06756-.06292-.07754.01175-.213794.03399-.06203.08325-.15422.109468-.204868.02621-.05065.07843-.138706.116041-.195684.03761-.05698.08722-.139857.11025-.184174.02303-.04432.0719-.132374.1086-.195684s.08004-.141007.09631-.172662c.01627-.03166.06348-.111445.104922-.177312.04144-.06587.07534-.126426.07534-.134576 0-.0082.01952-.04232.04337-.07593s.08035-.12971.12556-.213556c.0452-.08385.113218-.202985.151141-.26475.03792-.06177.09062-.153739.1171-.204387.02648-.05065.07835-.143885.115258-.207195.03691-.06331.08414-.151367.104958-.195684.02082-.04432.05103-.09612.06714-.115108.01611-.01899.06339-.09669.105065-.172663.117989-.215076.15473-.279777.21206-.373436.02929-.04785.06435-.107716.07792-.13304.01616-.03016.05316-.04848.107279-.05311.113299-.0097.165744.06678.142489.207745-.0089.05423-.02427.108959-.03406.121621-.0098.01266-.02931.109995-.0434.216296-.01408.1063-.03457.204718-.04553.218706-.01096.01399-.03815.149748-.06043.301691s-.04858.28662-.05843.299282c-.0099.01266-.03032.105899-.04547.207195-.01515.101295-.03535.194533-.04489.207195-.02433.03229-.07586.427925-.05806.445774.008.0081.264775.01779.570526.02161.471082.0059.562134.01258.596689.04386.02243.0203.04078.04841.04078.06248s-.05587.134187-.124145.266936c-.35604.692207-.426812.827103-.477609.910349-.03045.0499-.09508.168426-.143623.26339-.04854.09496-.158851.30734-.245128.471945-.08628.164604-.212835.408059-.281241.541009-.132075.256692-.182984.34969-.201641.368346-.0063.0063-.05295.09957-.103597.207195-.05065.107627-.09727.200864-.103598.207195-.01878.01878-.0698.112107-.205539.375989-.07055.137153-.14179.274419-.158308.305037-.0237.04393-.04859.05567-.118045.05567-.05051 0-.100338-.01485-.116937-.03485zm6.3312242-1.154678c-.19626-.186154-.5381311-.509823-.7597151-.719265-1.105081-1.044531-1.307811-1.248715-1.386588-1.396536-.177284-.332666-.177414-.79059-.00032-1.124615.09724-.18341.355992-.426411.558598-.524599.22197-.107572.406071-.142491.673482-.127741.386178.0213.5820617.12188 1.0060391.516568l.283292.263722.08311-.07754c.04571-.04265.179389-.167572.297065-.277615.322015-.301128.621155-.430637.994683-.430637.349677 0 .682951.134934.926852.375259.257826.254047.379232.569559.35611.925465-.02463.379025-.140732.566687-.649867 1.050364-.20259.192461-.456404.433905-.56403.536542-.107627.102637-.39252.372858-.633096.60049-.240577.227633-.513067.486435-.605534.575117-.09247.08868-.180525.163992-.195684.167358-.01516.0034-.188138-.146186-.384398-.332339z" stroke-width=".023022"/></svg>