<svg height="16" viewBox="0 0 16 16" width="16" xmlns="http://www.w3.org/2000/svg"><path d="m1.4727371 12.575806c-.213153-.01511-.307965-.03913-.46875-.118747-.40123797-.198695-.70449897-.548444-.83862297-.967177l-.06834-.213362.009-3.5312498.009-3.53125.116314-.2435916c.201661-.42233.547503-.7290012.99624497-.8834084l.231191-.07955 6.140625.010567 6.1406249.010567.186277.069221c.379941.1411872.712863.4257397.892556.7628778.147559.27685.186002.460041.186421.8883588l.000372.3787919.351562.022381c.392593.024993.520934.069319.625616.2160753l.0697.09771v2.3492609c0 2.3354941-.000384 2.3497781-.06544 2.4375001-.129525.174657-.27507.22778-.625627.22835l-.316065.000514-.01987.144987c-.01093.07974-.01987.2478-.01987.373461 0 .479149-.136548.813358-.465141 1.138465-.259786.257029-.545456.403122-.859512.43956-.251667.0292-11.7959439.0289-12.2081689-.000313zm4.876572-1.48392v-.450259l-.466138-.01068c-.460845-.01056-.467667-.01175-.60069-.105302-.074-.05204-.177131-.15517-.229174-.229174-.09355-.133023-.09474-.139845-.105302-.6006892l-.01068-.466139h-.465884-.465884v-.46875-.46875h.46875.46875v-.4687496-.46875h-.46875-.46875v-.46875-.46875h.46875.46875l.000188-.3984375c.000093-.2191406.01387-.4476562.03061-.5078125.04511-.1621213.209562-.3421028.388879-.4256009.141357-.065822.203256-.073822.573362-.074094l.414885-.0003053-.0086-.4564934-.0086-.4564935-2.405131.00496c-2.35392.00485-2.407306.0063-2.507253.068072-.05617.034713-.134015.1078268-.172994.1624743l-.07087.099359v3.375 3.3749996l.06854.109375c.07207.115013.158269.180615.289852.220593.04351.01322 1.144345.02524 2.446298.02672l2.367187.0027zm1.875-.0029v-.45309h-.46875-.46875v.453125.453125h.46875.46875zm5.4610889.37352c.05556-.03519.136269-.111749.179343-.170134.077-.104373.07834-.116143.07968-.701645.0019-.8351772.0333-.9511682.298452-1.1027892.104271-.05962.168748-.06987.442375-.07031l.320311-.000481v-1.5897375-1.589736l-.338675-.013954c-.386567-.0159272-.512047-.0687254-.634601-.2670225-.065321-.1056922-.071512-.1612544-.089485-.8031122-.021651-.7732288-.033735-.8227732-.234114-.9598985l-.125-.085541-2.203125-.00902-2.2031249-.00902-.0086.460394-.0086.4603941.414898.0006875c.4443879.0007344.6028259.041208.7695019.1965659.169122.1576391.205637.2855941.21793.7636853l.01145.4453125h.46582.46582v.46875.46875h-.468745-.46875v.46875.4687504h.46875.46875v.46875.46875h-.46875-.46875l-.000312.414062c-.000282.3696282-.0082.4308302-.07399.5703122-.08781.186197-.174213.271068-.363205.356749-.118536.05374-.2056649.06386-.5546869.06444l-.414056.000687v.453933.453933l2.2112819-.0086c2.166985-.0084 2.213305-.0099 2.312307-.0726zm-4.0548389-3.6391108v-1.875h-1.875-1.875v1.875 1.8749996h1.875 1.875zm-2.8125 0v-.9375h.9375.9375v.9375.9374996h-.9375-.9375zm1.399273-3.2734375-.0086-.4609375-.460937-.00865-.460938-.00865v.4695856.4695853h.469586.469585z" stroke-width=".03125"/></svg>