<svg height="16" viewBox="0 0 16 16" width="16" xmlns="http://www.w3.org/2000/svg"><path d="m2.2339534 15.580064c-.017187-.007-.083984-.02159-.1484375-.03237l-.1171875-.0196v-.236506-.236506l.1015625.01856c.2426672.04434.6750878.05614.8504068.0232.6119404-.114952.9996773-.528567 1.1406851-1.216818.065731-.320829.089677-.63388.047599-.622271-.01505.0042-.089659.07415-.1657968.155545-.4409522.471413-1.3919628.485454-1.8883728.02788-.2741678-.252719-.397628-.588603-.3982129-1.083372-.0005991-.50685.1215694-.851465.4099456-1.15638.4160522-.439914 1.1871313-.549553 1.769896-.25166.5728909.292846.8793681.957349.8805872 1.909287.00189 1.47563-.5029425 2.38982-1.4684666 2.659219-.1565962.04369-.9414829.09152-1.0142081.0618zm1.2678706-2.31575c.3115785-.107765.57152-.39071.6243472-.6796.0582444-.318514-.1034725-.811919-.3454078-1.053854-.1846591-.184659-.3582769-.254029-.6385275-.255128-.3891904-.0015-.6887095.184548-.8329444.517462-.094403.217894-.1190701.687552-.048806.929252.1189074.409026.3737468.588898.8350887.589424.1602727.000187.3234546-.01892.4062499-.04756zm3.0297619 2.279014c-.5012184-.134689-.8681813-.58419-1.0305991-1.262403-.1858156-.775917-.1333715-2.003892.1114316-2.609154.2330497-.576203.6110531-.848909 1.2242744-.883238.7925122-.04436 1.3068768.385954 1.5370228 1.285878.151346.591798.151429 1.636859.000188 2.265914-.162672.676557-.5426524 1.10239-1.0867918 1.217936-.2232906.04741-.5473397.04101-.7555168-.01493zm.6887847-.481203c.2819616-.07833.5111147-.416623.6138391-.9062.080565-.383967.08017-1.558502-.00065-1.9375-.1404044-.658403-.4109716-.943015-.8964813-.943015-.4818147 0-.7491181.267623-.8950706.89614-.080912.34843-.083265 1.663249-.0036 2.010258.102774.447658.2837718.733689.5392937.852247.1397566.06484.4599462.07883.6426672.02807zm5.4977564.503959c-.445554-.146095-.670875-.563949-.70908-1.314977-.03139-.617115.127518-1.190052.39038-1.407467.21199-.175338.53852-.23049.838033-.141544.440784.130899.697774.649975.699077 1.412017.0016.945519-.308664 1.441001-.919234 1.467918-.121467.0054-.256096-.0018-.299176-.01595zm.521092-.514388c.161599-.176335.212513-.39843.212513-.927021 0-.348801-.01306-.495792-.05671-.638449-.145267-.474694-.588158-.566685-.784876-.163022-.111071.227917-.158813.698158-.113328 1.116259.05984.550066.207494.766938.501691.736879.109991-.01124.16098-.03764.240713-.124646zm-3.2396404.469226c0-.0055.5803254-1.056674 1.2896104-2.335938l1.289611-2.325934.261734-.0091.261734-.0091-.04598.07165c-.02529.03941-.612723 1.094695-1.305407 2.345086l-1.259426 2.273339h-.245938c-.135266 0-.2459384-.0045-.2459384-.01zm-.1875-1.848631c-.435772-.141148-.666938-.640637-.665626-1.438241.0013-.815232.219916-1.282565.659652-1.4104.4212954-.122474.8724874.05122 1.0589704.407676.135495.258991.1734.438566.188572.893349.01612.4831-.0083.688034-.116696.977572-.146867.392476-.39221.584265-.773199.604425-.129618.0069-.2653074-.0064-.3516734-.03438zm.4484024-.407134c.220539-.1053.331763-.445743.331763-1.015482 0-.703423-.169097-1.0625-.500354-1.0625-.2196604 0-.3702124.179407-.4367474.520454-.05346.27405-.02556 1.07586.04385 1.259906.112853.299245.3238504.411087.5614884.297622zm-8.8562251-3.6068212c-.2125963-.0150675-.3083842-.0392537-.46875-.1183593-.3947118-.1947044-.6835431-.5232172-.8298141-.9438194l-.0754222-.2168763-.0180959-2.5413653c-.00995-1.3977512-.00511-2.9932918.010757-3.545646l.0288538-1.0042804.1136484-.2393112c.1981616-.4172718.5461449-.7251708.9935789-.8791279l.2311916-.07955 6.140625.010567 6.1406256.010567.186277.069221c.379941.1411872.712863.4257396.892556.7628779.147559.2768498.186002.460041.186421.8883586l.000371.3787921.351563.022381c.392592.024993.520933.069319.625615.2160754l.0697.09771v2.3492613c0 2.3354941-.000384 2.3497779-.06544 2.4375-.129525.1746569-.27507.2277797-.625627.22835l-.316066.0005136-.01987.1449866c-.01093.079743-.01987.2478006-.01987.3734618 0 .4791482-.136548.8133579-.465141 1.1384647-.259791.2570291-.545461.4031222-.859517.4395597-.251667.0291991-11.7959444.0289041-12.2081701-.0003125zm12.2126421-1.1132659c.05557-.035189.136288-.1117491.179363-.1701337.077-.1043732.07834-.1161426.07968-.7016451.0019-.8351778.0333-.9511681.298452-1.1027896.104271-.059625.168748-.069873.442375-.070312l.320311-.0005146v-1.5897359-1.589736l-.338675-.013954c-.386567-.0159272-.512047-.0687253-.634601-.2670224-.06532-.1056924-.07151-.1612544-.08948-.8031124-.02176-.7770276-.03266-.8207021-.241535-.9672935l-.132421-.092936-6.0137667.00171-6.0137665.00171-.1110661.068642c-.061086.037746-.1429582.1133465-.1819376.1679942l-.070872.099359v3.375 3.375l.068538.109375c.07201.1149156.1580386.1804363.2898522.220755.043511.013309 2.7722249.021818 6.0638096.018909 5.9725841-.00528 5.9849041-.00542 6.0857451-.069269zm-9.6323534-.6817234c-.0535675-.0391694-.0554118-.061061-.0230381-.2734375.0193553-.1269725.1064475-.5753903.1935381-.9964841.087091-.4210938.1786988-.878125.2035725-1.015625.0248741-.1375.0544616-.2957031.0657497-.3515625.0184244-.0911731.0129316-.1019856-.0536947-.1056984-.0408203-.002275-.2907078-.0128216-.5553053-.0234375-.603719-.0242216-.605075-.0254113-.423445-.3715557.104625-.1993909.8765491-1.5576128 1.3982419-2.4602459.4092416-.7080702.4421559-.7493283.5453522-.6835967.068819.043835.067236.1846087-.00611.5429717-.029899.1460938-.073377.3640625-.096617.484375s-.07283.3523438-.1101991.515625c-.037369.1632812-.074942.3847656-.083495.4921875l-.015551.1953125.4958278.0037c.5551528.00414.6781759.020868.6922859.094137.00947.049155-.18987.4513215-.6175465 1.2459162-.1156323.2148405-.4811892.9078165-.8123448 1.5399437-.5140606.9812647-.6515706 1.2100531-.7272856 1.2100531-.00644 0-.03791-.01916-.069936-.042578zm6.5462844-.9320091c-.362848-.3243-2.1897654-2.0725016-2.2694024-2.1716206-.199973-.2488938-.281224-.5243297-.250796-.85018.05401-.5783722.568102-1.0557034 1.174836-1.0908267.460164-.026638.741851.098575 1.2126724.5390479l.257935.2413094.285818-.2690575c.201864-.1900262.355103-.3032999.521695-.3856338.227291-.1123337.247876-.1165762.565621-.1165762.305829 0 .344985.00722.53985.099531.280014.1326484.499854.3432006.626106.599656.09272.1883431.10129.23092.10129.5032812 0 .5318603-.01295.548075-1.742239 2.1814963-.476981.4505384-.877763.8187487-.890625.818245-.01286-.0005032-.07261-.044906-.132761-.098672z" stroke-width=".03125"/></svg>