<svg height="16" viewBox="0 0 16 16" width="16" xmlns="http://www.w3.org/2000/svg"><path d="m4.4315142 13.946581c-.6703578-.623264-1.9290746-1.828429-2.2343633-2.139303-.3780766-.384992-.4513802-.506817-.5110151-.849266-.1527974-.877428.7420571-1.7170773 1.6559174-1.5537614.3083816.055111.5434847.1788025.8728953.4592447.15917.1355093.3283713.2780677.3760029.3167987l.086603.07042.3381541-.2977344c.5403347-.475744.9429016-.6296274 1.4346766-.5484124.6992456.1154778 1.2086115.6813438 1.2088865 1.3429778.000156.350079-.142081.71832-.3692681.95608-.1534884.160631-2.5435625 2.4049-2.5883575 2.430456-.028664.01635-.1163043-.04448-.2701318-.1875zm6.4168118-.166384c-.487152-.438408-1.4747924-1.373157-1.9646864-1.859471-.343225-.340717-.430753-.447021-.515625-.62624-.09426-.199043-.102225-.240207-.102225-.528361 0-.286778.0082-.329884.100046-.523704.35016-.7392172 1.251993-1.0431769 1.9721944-.6647213.122249.06424.345876.23362.534888.4051359l.324808.2947424.284652-.257089c.355508-.3210846.537915-.4473268.758222-.5247584.697686-.2452172 1.486161.084693 1.803878.7547694.08701.183518.09619.231782.09509.5-.002.478115-.05343.574694-.60514 1.135694-.450555.458143-2.155669 2.077754-2.27667 2.162506-.05785.04052-.0881.02068-.409432-.268503zm-.582536-5.675707c-.3411394-.028665-.8322954-.1232281-1.3671874-.2632272l-.117188-.0306719v-.4987953c0-.2743375.01208-.4987956.02685-.4987956s.130783.047745.257813.1061009c.560624.2575419 1.2045004.3829238 1.8090884.3522832.595308-.030171.971994-.1760754 1.300648-.503791.321269-.3203515.459348-.68245.459348-1.2045931 0-.7053569-.311549-1.2359731-.884996-1.5072841-.349174-.1652028-.515075-.1960231-1.046875-.1944856-.407687.00118-.512792.012659-.8068424.088132-.18595.047727-.43556.1264419-.554687.1749209l-.216596.088144v-1.8872136-1.8872136h1.9843754 1.984375v.421875.421875h-1.53125-1.53125v.9254218.925422l.08594-.0165c.04726-.00908.198437-.038305.335937-.064957.315758-.061202.667276-.062882 1.046875-.005 1.075878.1640438 1.799041.7776691 2.068343 1.7550482.05741.2083703.06777.3278078.0674.7774425-.0004.4884888-.0073.5538881-.08579.8125-.12875.4242281-.276984.6770534-.570046.9722547-.214886.2164544-.304815.2811466-.578125.4158859-.355067.1750447-.644254.2589713-1.073656.3115925-.260569.031932-.767341.038434-1.0625.013632zm-6.9140112-.1899275c.0083344-.0300781.5795057-1.5227481 1.2692697-3.3170444.6897641-1.7942964 1.2541166-3.2743745 1.2541166-3.2890625s-.8085938-.026706-1.796875-.026706h-1.796875v-.4218746-.421875h2.421875 2.421875v.20444641c0 .19439125-.067242.37956049-1.3671875 3.76494829l-1.3671875 3.5605019-.5270822.0006781c-.4871034.000625-.5259328-.00347-.5119291-.054011z" stroke-width=".03125"/></svg>