<svg height="16" viewBox="0 0 16 16" width="16" xmlns="http://www.w3.org/2000/svg"><path d="m4.3300914 15.92832c-.211947-.05082-.545649-.260193-.731733-.459117-.197733-.211378-.282797-.353101-.377974-.629739-.05644-.164046-.0585-.383515-.05832-6.2207586.000127-3.7349497.01168-6.1209535.03024-6.2342385.0855-.5220972.518344-1.0202901 1.047612-1.2057774.136637-.047886.295775-.069349.613174-.082698l.428646-.018028.000185-.28373575c.000214-.35865034.03383-.47783426.172701-.61244772l.111124-.107727 2.346474-.008366 2.3464716-.008366.104066.0707148c.169279.11503032.22712.26610047.24358.63619112l.01436.32298935.221928.0002339c.122059.0001266.340274.013842.484922.030472.61677.070906 1.134133.5005264 1.312936 1.0902696.06089.2008274.0617.2982448.05348 6.4092234l-.0083 6.2052958-.116985.236695c-.20284.410407-.492125.671013-.915405.824656l-.201828.07326-3.5134766-.0032c-1.932414-.0017-3.555934-.01336-3.607824-.0258zm7.0411876-1.077086c.06583-.03141.154717-.110038.197533-.174738l.07785-.117636.01777-3.414493c.01429-2.7473413.01-3.4238795-.0221-3.4625286-.03548-.042748-.430093-.048034-3.5855576-.048034-1.950133 0-3.611457.00901-3.691834.02003l-.146138.020031.0093 3.4505456.0093 3.450547.087.114041c.04785.06272.117989.131765.155871.153427.109595.06267.955665.0779 3.981241.07166 2.6335126-.0054 2.7968096-.009 2.9097786-.06285zm-5.1745726-9.7815106c-.825431-.8272861-1.516276-1.5347984-1.535211-1.5722492-.054429-.1076568-.041046-.3191023.027186-.4295034.092864-.1502577.238103-.2159078.435661-.1969251l.164198.015777 1.298256 1.2979795c.71404.7138886 1.31216 1.2979794 1.329154 1.2979794.01699 0 .615114-.5840908 1.329155-1.2979794l1.2982556-1.2979791.164198-.015777c.315536-.030319.516451.1666833.490398.4808485l-.01428.1722454-1.5247536 1.5250855-1.524751 1.5250851 1.7613442-.00801 1.7613444-.00801-.0092-2.0249882c-.009-1.963395-.01119-2.0280606-.07176-2.1260676-.127942-.2070133-.186972-.2222505-.957338-.247112-.7816104-.0252244-.8301314-.0377517-.9833986-.2539002-.080507-.1135366-.090483-.1566136-.105808-.4568778l-.01692-.3315219-1.577602.00808-1.5776.00808-.01559.3273294c-.01801.378251-.07384.5044532-.271235.6131396-.105481.058079-.191718.06761-.787992.087088-.746243.024378-.817444.040885-.955196.2214442l-.08984.1177575-.0091 2.0365721-.0091 2.0365722h1.739116 1.739115z" stroke-width=".031174"/></svg>