<svg height="16" viewBox="0 0 16 16" width="16" xmlns="http://www.w3.org/2000/svg"><path d="m4.4315142 13.946513c-.6703578-.623264-1.9290746-1.828429-2.2343633-2.139303-.3780766-.384992-.4513802-.506817-.5110151-.849266-.1527974-.877428.7420571-1.717077 1.6559174-1.5537611.3083816.055111.5434847.1788025.8728953.4592447.15917.1355088.3283713.2780674.3760029.3167984l.086603.07042.3381541-.2977337c.5403347-.4757444.9429016-.6296278 1.4346766-.5484128.699246.1154778 1.208611.6813435 1.208887 1.3429775.000156.350079-.142081.71832-.369269.95608-.153488.160631-2.5435621 2.4049-2.5883571 2.430456-.028664.01635-.1163043-.04448-.2701318-.1875zm6.4168118-.166384c-.487152-.438408-1.4747919-1.373157-1.9646859-1.859471-.343226-.340717-.430753-.447021-.515625-.62624-.094261-.199043-.102225-.240207-.102225-.528361 0-.286778.0082-.329884.100045-.523704.350161-.7392169 1.251993-1.0431766 1.9721949-.664721.122249.06424.345876.23362.534888.4051359l.324808.2947421.284652-.257089c.355508-.3210843.537915-.4473265.758222-.5247581.697686-.2452172 1.486161.084693 1.803878.7547691.08701.183518.09619.231782.09509.5-.002.478115-.05343.574694-.60514 1.135694-.450555.458143-2.155669 2.077754-2.27667 2.162506-.05785.04052-.0881.02068-.409432-.268503zm-6.6810181-5.685557c-.8725775-.1233638-1.4860442-.5094716-1.7880729-1.1253897-.1671915-.3409488-.2290812-.6384422-.2275408-1.09375.0014072-.4159488.0499478-.6331897.2088321-.9346188.2502886-.4748378.5576792-.7080306 1.2646388-.9593809.0282297-.0100369-.0172922-.0393375-.1144431-.0736628-.5546295-.1959619-.933021-.5590519-1.1084089-1.0635875-.0578758-.1664904-.0707356-.2707581-.071303-.578125-.0010573-.5728291.1373968-.9437739.4777489-1.27997991.2998942-.29624072.5793148-.45092519 1.0327199-.57170347.2664856-.0709866.3610009-.0799112.8618112-.0813769.4820766-.001411.6027116.008378.84375.0684629.80583.20087519 1.354652.69975409 1.518398 1.38022239.06054.2515674.05286.7570645-.01494.9830403-.142657.4755266-.456041.8391425-.904235 1.0491738-.145578.06822-.290036.1240359-.321019.1240359-.09109 0-.01312.046725.206167.1235453.610891.2140056 1.051756.6939625 1.206769 1.3137747.07275.2908747.04632.9624069-.04981 1.265805-.109523.345655-.246398.574575-.485808.8125-.308227.30631559-.655884.48149369-1.186772.59799219-.2566147.0563119-1.0707591.0822866-1.3484822.0430225zm.9975388-.8275547c.7700104-.1631684 1.2174674-.8452956 1.0905544-1.6624991-.124306-.8004225-.7233704-1.2331903-1.6459694-1.1890584-.8643563.0413459-1.3882753.5198984-1.442935 1.3179906-.053962.7878994.3615484 1.373885 1.0855059 1.5308663.2644262.057338.6496278.058477.9128441.0027zm.1710584-3.7696512c.262226-.096434.47094-.2602179.594814-.4667671.135273-.2255541.17007-.3668315.16907-.6864167-.002266-.7231783-.453112-1.1623977-1.2421446-1.2101064-.6830681-.0413016-1.2219794.2083415-1.4209988.6582576-.1413084.3194515-.141544.8149637-.0005375 1.1337296.1320019.298412.482641.5562961.8612507.633423.2633959.053656.8131406.020774 1.0385475-.06212zm5.4378109 4.580829c-1.1903939-.2257906-1.8919609-1.2685072-2.0574639-3.0579419-.046362-.5012631-.020502-1.6041506.047717-2.0351192.231553-1.4628069.876375-2.34992249 1.8885219-2.59813724.316814-.0776942.963169-.0788585 1.253924-.002259.384712.10135272.708491.28686572.98747.56578144.485588.4854784.753476 1.1086697.90805 2.112413.07879.5116266.07909 1.8073105.000538 2.3124999-.156611 1.0071865-.423308 1.6272437-.908588 2.1124131-.199507.1994625-.309335.2804491-.51872.3825019-.146093.071205-.35.1515359-.453125.1785122-.269996.070628-.85221.085502-1.148324.029336zm1.044382-.8809706c.481377-.2254209.79911-.7757528.944931-1.6366788.118332-.6986293.118439-1.9816921.000219-2.6827269-.144408-.8563888-.465105-1.4097742-.950583-1.6403064-.186904-.088753-.229328-.096455-.53125-.096455-.302242 0-.344275.00765-.532858.097017-.489177.2318071-.8020319.7735334-.9495009 1.644114-.122427.722746-.122427 1.9512416 0 2.6739875.140191.827611.4505439 1.3941472.8840729 1.6138325.23017.1166363.35975.1419594.666219.130196.22126-.00849.307377-.027412.46875-.1029799z" stroke-width=".03125"/></svg>