<svg height="16" viewBox="0 0 16 16" width="16" xmlns="http://www.w3.org/2000/svg"><path d="m6.545252 15.581086c-.554285-.13466-.9623251-.595801-1.1366226-1.284535-.1726175-.682097-.1726175-1.630403 0-2.3125.1390522-.549464.4644086-1.002658.8496476-1.183489.397679-.18667.958656-.183755 1.346124.007.645847.31795.966731 1.092462.966465 2.332744-.000219 1.019118-.202785 1.687533-.638573 2.107115-.329082.316844-.895467.453095-1.387041.33367zm.754254-.543637c.418207-.213555.637153-.865474.637153-1.897148 0-1.26411-.311059-1.919297-.938212-1.976165-.49642-.04501-.825285.288557-.993204 1.007415-.0398.17039-.0511.384555-.0511.96875 0 .793614.02271.976395.169818 1.367083.08666.230134.330313.501524.509608.567613.178655.06585.498794.0478.665935-.03755zm3.143804.51433c.02241-.04151.694643-1.160004 1.493862-2.485535l1.453125-2.410057.254433-.000125.254434-.000125-1.490965 2.476562-1.490965 2.476563-.257331.0091-.25733.0091.04074-.07548zm3.078784.04062c-.358657-.09001-.611822-.332152-.735995-.703944-.183717-.550077-.07001-1.228108.261556-1.559675.339285-.339286.930642-.388987 1.362576-.114518.566108.359728.665989 1.490317.183144 2.073069-.14725.177718-.450896.313446-.727458.32517-.124091.0053-.278811-.0038-.343823-.0201zm.5815-.477067c.220515-.168195.334563-.591842.270896-1.006278-.04249-.276605-.131747-.462644-.274022-.571162-.09351-.07132-.142681-.08509-.303921-.08509-.160814 0-.210498.01383-.302921.08432-.06081.04638-.144085.151847-.185067.234375-.067.134923-.07451.191007-.07451.5563 0 .381844.0051.415941.08507.56757.128943.244505.26424.326612.514234.312073.116932-.0068.191881-.03235.270239-.09211zm-12.228423.393214c.0002746-.01347.3632222-.966682.8065504-2.118245l.8060514-2.09375-1.1503005-.0082-1.1503004-.0082v-.265244-.265245h1.546875 1.546875v.12244c0 .08544-.2632825.805584-.8711447 2.382813l-.8711448 2.260372-.3319802.0089c-.1825892.0049-.3317557-.0022-.3314812-.01563zm8.334953-2.290877c-.198779-.0502-.351751-.145306-.501352-.311699-.204516-.22747-.277102-.438873-.295291-.860013-.02304-.533473.08789-.868133.37321-1.1259.212469-.191953.371443-.246997.712981-.246864.260112.000094.318783.01077.473792.08613.403994.196423.619216.611242.619216 1.193475 0 .596858-.228467 1.024356-.646199 1.209138-.163302.07224-.553932.1018-.736357.05573zm.506076-.428979c.258187-.131654.397202-.482609.369247-.932199-.02396-.385284-.163933-.655372-.389459-.751467-.3357-.14304-.671728.08471-.761331.516015-.05801.279231-.02206.687142.0787.893104.142794.29186.440684.408224.702839.274547zm-9.3118506-3.1303537c-.2125963-.0150675-.3083842-.0392537-.46875005-.1183593-.3949162-.194805-.6835371-.5232-.8300148-.9443963l-.0756227-.2174531-.017893-2.5407888c-.0098411-1.3974334-.00491-2.9927146.0109581-3.5450688l.0288511-1.0042804.1136484-.2393112c.1981615-.41727178.5461448-.72517072.99357885-.8791279l.2311916-.0795505 6.1406251.0105674 6.140625.0105674.186277.0692211c.379941.14118721.712863.42573965.892556.7628779.147559.2768498.186002.460041.186421.8883586l.000371.3787921.351563.022381c.392592.024993.520933.069319.625615.2160754l.0697.09771v2.3492609c0 2.3354941-.000384 2.3497779-.06544 2.4375-.129525.1746569-.27507.2277797-.625627.22835l-.316066.0005136-.01987.1449866c-.01093.079743-.01987.2478006-.01987.3734618 0 .4791482-.136548.8133579-.465141 1.1384647-.259791.2570291-.545461.4031222-.859517.4395597-.251667.0291991-11.7959439.0289041-12.2081696-.0003125zm12.2126416-1.1132659c.05557-.035189.136288-.1117491.179363-.1701337.077-.1043732.07834-.1161426.07968-.7016451.0019-.8351778.0333-.9511681.298452-1.1027896.104271-.059625.168748-.069873.442375-.070312l.320311-.0005146v-1.5897359-1.589736l-.338675-.013954c-.386567-.0159272-.512047-.0687253-.634601-.2670224-.065321-.1056924-.071512-.1612544-.089485-.8031124-.021757-.7770276-.032663-.8207021-.241535-.9672935l-.132421-.092936-6.013766.00171-6.0137667.00171-.1110661.068642c-.0610863.0377457-.1429582.1133465-.1819376.1679942l-.070872.099359v3.375 3.375l.068538.109375c.07201.1149156.1580386.1804363.2898522.220755.043511.013309 2.7722249.021818 6.0638092.018909 5.972584-.00528 5.984904-.00542 6.085745-.069269zm-9.8715307-1.8188325c-.8802696-.8170044-1.9321879-1.8357481-2.0345267-1.9703634-.1661478-.2185491-.2214966-.4207788-.2056839-.7515144.0169019-.3535191.1113019-.5587544.3629921-.7891825.3137622-.2872563.6571455-.3946924 1.0872199-.3401643.127062.01611.2909424.059516.3641786.096459.1508816.076109.4787432.3362269.6629363.5259587.067941.069984.1359934.1272444.1512272.1272444.015234 0 .1541803-.1180241.3087703-.2622756.1632803-.1523606.3618294-.3032121.4737725-.3599573.9180574-.4653736 2.0045204.257166 1.8655084 1.2406345-.052983.3748306-.160508.509994-1.161912 1.4605693-.4521739.4292222-.9586586.9104822-1.1255214 1.0694666-.1668631.1589844-.3222025.2890625-.3451988.2890625-.022996 0-.2046893-.1511719-.4037625-.3359375zm6.5342567-.0283384c-.779912-.725161-1.937265-1.8374482-2.023241-1.9444591-.194675-.2423028-.275888-.5211841-.245752-.8439031.05401-.5783722.568102-1.0557034 1.174836-1.0908267.460164-.026638.741851.098575 1.212672.5390479l.257935.2413094.285818-.2690575c.201864-.1900262.355103-.3032999.521695-.3856338.227291-.1123337.247876-.1165762.565621-.1165762.305829 0 .344985.00722.53985.099531.280014.1326484.499854.3432006.626106.599656.09272.1883431.10129.23092.10129.5032812 0 .5318603-.01295.548075-1.742239 2.1814963-.476981.4505384-.878305.8191609-.89183.8191609-.01352 0-.185768-.1498616-.382761-.3330263z" stroke-width=".03125"/></svg>