<svg height="16" viewBox="0 0 16 16" width="16" xmlns="http://www.w3.org/2000/svg"><path d="m3.876886 15.111909c-.032401-.03904.00632-.282176.2155191-1.353142.140259-.718053.2621375-1.33016.2708406-1.360238.01453-.05022-.020756-.05484-.4315941-.05649-.7804628-.0031-.8243147-.02931-.6369-.380092.2374913-.444507 1.7124051-3.0104083 1.7878381-3.1102942.08251-.1092566.167573-.1296284.229533-.054971.04902.059068.03796.1323079-.171969 1.1385843-.0917.4395599-.171328.8554499-.1769496.9241999l-.010221.125.1562496.0207c.08594.01139.340857.02193.566487.02344.466678.0031.512322.02242.453295.191746-.03297.09458-.251555.515701-1.2319669 2.373492-.8404294 1.592537-.8133325 1.545768-.9016547 1.556267-.043455.0052-.096784-.01202-.1185072-.0382zm6.701098-1.336622c-.540404-.493684-1.8002063-1.693955-2.1011913-2.001901-.315224-.322515-.423645-.509386-.484077-.834344-.117164-.630019.392919-1.3427407 1.073226-1.4995791.324055-.074708.73664-.016627 1.0348503.1456787.08387.045647.29903.2139338.478139.3739715.179108.1600379.334406.2909779.345107.2909779.0107 0 .166031-.131522.345179-.2922709.179149-.1607491.393274-.3290363.475835-.3739716.317839-.1729894.744124-.2236706 1.069448-.1271472.499003.1480541.845586.4675558.999047.9209807.08594.253915.0725.580449-.03527.856784-.08866.22734-.332522.486799-1.481548 1.576275-1.078255 1.022373-1.329892 1.251994-1.370877 1.25094-.01945-.000501-.175993-.129378-.347868-.286394zm-6.7343758-5.9181435c-.0429687-.0073575-.1519531-.0284313-.2421875-.046831l-.1640625-.0334534v-.3727591c0-.2773871.00999-.3727521.039063-.3727331.021484.0000141.1445313.022988.2734375.051053.3078184.067017.963635.065962 1.28125-.00206.883775-.1892755 1.472495-.842348 1.68822-1.8727561.07245-.3460434.144225-1.0104819.112579-1.0421281-.01257-.012569-.05967.025938-.104669.08557-.459137.6084375-1.261202.8854778-2.1336305.7369753-.3463547-.0589556-.7686644-.2505735-1.0063312-.4566106-.5594292-.4849785-.7985286-1.4409998-.6028721-2.41054.1265285-.626989.5249164-1.20618258 1.0273955-1.49367196.7146165-.4088621 1.7506623-.40738584 2.4516393.003493.09737.057076.297283.22330581.444241.36939946.234605.2332237.288823.3094621.444476.625.29023.5883494.397209 1.1146139.397517 1.9555101.000219.6050368-.04075 1.0572005-.14165 1.5632883-.288733 1.4481872-1.018016 2.311405-2.217806 2.6251122-.271455.070977-.3877408.082937-.8903595.091579-.3179688.00547-.6132812.00392-.65625-.00344zm1.8408415-3.5926703c.444188-.1047025.843863-.4173294 1.036599-.81083.101957-.2081603.106811-.2336169.10429-.546875-.00772-.9595463-.567676-1.7148581-1.341105-1.8089981-.7877639-.095885-1.3935433.2953712-1.596933 1.0314138-.074134.2682812-.090298.8442118-.031438 1.120169.1211187.5678531.4604506.931099.9620044 1.0298009.2199796.04329.6516736.035977.8665826-.014681zm5.0185343 3.5610128c-.346073-.0764713-.643879-.23648-.9091923-.4885013-.479451-.4554309-.754784-1.0873634-.909262-2.0868934-.07765-.5024478-.07724-1.8565775.000722-2.3833818.266783-1.8026196 1.045372-2.60478568 2.4719273-2.54678127.593197.0241197.96234.17049403 1.356489.53788159.461418.43008858.739943 1.05157798.901881 2.01241518.08052.4777872.08052 1.9893382-.000001 2.4987338-.218539 1.3824556-.721766 2.1269678-1.631315 2.4134903-.291604.09186-.958869.1142735-1.28125.043037zm.96875-.7796522c.55818-.1544275.883861-.6963222 1.036715-1.7249738.07684-.5170915.0774-1.9333803.000969-2.4470352-.16947-1.1389315-.559722-1.6917308-1.25323-1.7752213-.958745-.11542178-1.4893343.455937-1.6787463 1.8077378-.056.3996431-.0571 1.9065019-.0017 2.3415062.119392.9377185.3989223 1.4939947.8663753 1.724121.310641.1529281.654657.1776075 1.029634.073865z" stroke-width=".03125"/></svg>