<svg height="16" viewBox="0 0 16 16" width="16" xmlns="http://www.w3.org/2000/svg"><path d="m6.5451585 15.582085c-.554285-.13466-.962325-.595801-1.136623-1.284535-.172617-.682097-.172617-1.630403 0-2.3125.139053-.549464.46441-1.002658.849648-1.183489.397679-.18667.958656-.183755 1.346124.007.645848.31795.966731 1.092462.966465 2.332744-.000218 1.019118-.202785 1.687533-.638573 2.107115-.329082.316844-.895467.453095-1.387041.33367zm.754254-.543637c.418207-.213555.637153-.865474.637153-1.897148 0-1.26411-.311059-1.919297-.938212-1.976165-.49642-.04501-.825285.288557-.993204 1.007415-.0398.17039-.0511.384555-.0511.96875 0 .793614.02271.976395.169818 1.367083.08666.230134.330313.501524.509608.567613.178655.06585.498794.0478.665935-.03755zm3.1438035.51433c.02241-.04151.694643-1.160004 1.493862-2.485535l1.453125-2.410057.254433-.000125.254434-.000125-1.490965 2.476562-1.490965 2.476563-.257331.0091-.25733.0091.04074-.07548zm3.078784.04062c-.358657-.09001-.611822-.332152-.735995-.703944-.183717-.550077-.07001-1.228108.261556-1.559675.339285-.339286.930642-.388987 1.362576-.114518.566108.359728.665989 1.490317.183144 2.073069-.14725.177718-.450896.313446-.727458.32517-.124091.0053-.278811-.0038-.343823-.0201zm.5815-.477067c.220515-.168195.334563-.591842.270896-1.006278-.04249-.276605-.131747-.462644-.274022-.571162-.09351-.07132-.142681-.08509-.303921-.08509-.160814 0-.210498.01383-.302921.08432-.06081.04638-.144085.151847-.185067.234375-.067.134923-.07451.191007-.07451.5563 0 .381844.0051.415941.08507.56757.128943.244505.26424.326612.514234.312073.116932-.0068.191881-.03235.270239-.09211zm-12.2284225.393214c.0002746-.01347.3632222-.966682.8065504-2.118245l.8060514-2.09375-1.1503005-.0082-1.1503004-.0082v-.265244-.265245h1.546875 1.5468751v.12244c0 .08544-.263283.805584-.8711448 2.382813l-.8711448 2.260372-.3319802.0089c-.1825892.0049-.3317557-.0022-.3314812-.01563zm8.3349525-2.290877c-.198779-.0502-.3517507-.145306-.5013517-.311699-.2045158-.22747-.2771018-.438873-.2952908-.860013-.02304-.533473.08789-.868133.3732098-1.1259.212469-.191953.3714427-.246997.7129807-.246864.260112.000094.318783.01077.473792.08613.403994.196423.619216.611242.619216 1.193475 0 .596858-.228467 1.024356-.646199 1.209138-.163302.07224-.553932.1018-.736357.05573zm.506076-.428979c.258187-.131654.397202-.482609.369247-.932199-.02396-.385284-.163933-.655372-.389459-.751467-.3357-.14304-.671728.08471-.7613307.516015-.05801.279231-.02206.687142.0787.893104.142794.29186.440684.408224.702839.274547zm-9.3118501-3.1303527c-.2125963-.0150675-.3083842-.0392537-.46874991-.1183593-.39471183-.1947044-.68354313-.5232172-.82981423-.9438194l-.0754221-.2168763-.018096-2.5413653c-.00995-1.3977512-.00511-2.9932918.010758-3.545646l.0288529-1.0042804.1136484-.2393112c.1981615-.41727178.54614493-.72517072.99357884-.8791279l.2311916-.0795505 6.1406251.0105674 6.1406245.0105674.186277.0692211c.379941.14118721.712863.42573965.892556.76287793.147559.27684977.186002.46004097.186421.88835857l.000371.3787921.351563.022381c.392592.024993.520933.069319.625615.2160754l.0697.09771v2.3492609c0 2.3354941-.000384 2.3497779-.06544 2.4375-.129525.1746569-.27507.2277797-.625627.22835l-.316066.0005136-.01987.1449866c-.01093.079743-.01987.2478006-.01987.3734618 0 .4791482-.136548.8133579-.465141 1.1384647-.259791.2570291-.545461.4031222-.859517.4395597-.251667.0291991-11.7959434.0289041-12.2081691-.0003125zm12.2126411-1.1132659c.05557-.035189.136288-.1117491.179363-.1701337.077-.1043732.07834-.1161426.07968-.7016451.0019-.8351778.0333-.9511681.298452-1.1027896.104271-.059625.168748-.069873.442375-.070312l.320311-.0005146v-1.5897359-1.589736l-.338675-.013954c-.386567-.0159272-.512047-.0687253-.634601-.2670224-.065321-.1056924-.071512-.1612544-.089485-.8031124-.021757-.7770276-.032663-.8207021-.241535-.9672935l-.132421-.092936-6.0137655.00171-6.0137667.00171-.1110661.068642c-.0610863.0377457-.1429582.1133465-.1819376.1679942l-.070872.099359v3.375 3.375l.068538.109375c.07201.1149156.1580386.1804363.2898522.220755.043511.013309 2.7722253.021818 6.0638093.018909 5.9725834-.00528 5.9849034-.00542 6.0857444-.069269zm-9.6323525-.6817234c-.05357-.039169-.05541-.061061-.02304-.2734375.01936-.1269725.106448-.5753903.193538-.9964841s.178699-.878125.203573-1.015625c.02487-.1375.05446-.2957031.06575-.3515625.01842-.091173.01293-.1019856-.05369-.1056984-.040824-.00228-.290711-.012822-.555309-.023437-.6037187-.0242221-.6050747-.0254118-.4234447-.3715562.104625-.1993909.8765487-1.5576128 1.3982417-2.4602459.409242-.7080702.442156-.7493283.545352-.6835967.06882.043835.06724.1846087-.0061.5429717-.0299.1460938-.07338.3640625-.09662.484375s-.07283.3523438-.110199.515625c-.03737.1632812-.07494.3847656-.08349.4921875l-.01555.1953125.495828.0037c.555153.00414.678176.020868.692286.094137.0095.049155-.18987.4513215-.617547 1.2459162-.115636.2148405-.481193.9078165-.812348 1.5399437-.514061.9812647-.651571 1.2100531-.727286 1.2100531-.0064 0-.03791-.01916-.06994-.042578zm6.5462835-.9320091c-.362848-.3243-2.1897645-2.0725016-2.2694015-2.1716206-.199973-.2488938-.281224-.5243297-.250796-.85018.05401-.5783722.568102-1.0557034 1.174836-1.0908267.460164-.026638.7418508.098575 1.2126715.5390479l.257935.2413094.285818-.2690575c.201864-.1900262.355103-.3032999.521695-.3856338.227291-.1123337.247876-.1165762.565621-.1165762.305829 0 .344985.00722.53985.099531.280014.1326484.499854.3432006.626106.599656.09272.1883431.10129.23092.10129.5032812 0 .5318603-.01295.548075-1.742239 2.1814963-.476981.4505384-.877763.8187487-.890625.818245-.01286-.0005032-.07261-.044906-.132761-.098672z" stroke-width=".03125"/></svg>