<svg height="16" viewBox="0 0 16 16" width="16" xmlns="http://www.w3.org/2000/svg" xmlns:xlink="http://www.w3.org/1999/xlink"><filter id="a" color-interpolation-filters="sRGB" height="1.306397" width="1.187297" x="-.093648" y="-.153198"><feGaussianBlur stdDeviation=".37887677"/></filter><filter id="b" color-interpolation-filters="sRGB" height="1.125522" width="1.07673" x="-.038365" y="-.062761"><feGaussianBlur stdDeviation=".13639569"/></filter><filter id="c" color-interpolation-filters="sRGB" height="1.058807" width="1.035948" x="-.017974" y="-.029403"><feGaussianBlur stdDeviation=".060620231"/></filter><g fill-opacity=".695376" stroke-opacity=".698039" transform="matrix(.89227326 0 0 .89227326 -.97193862269 -22.97759035273)"><path d="m3.9076516 30.117996c-.7628294 0-1.3769531.614124-1.3769531 1.376953v6.445313c0 .762828.6141237 1.376952 1.3769531 1.376952h11.4453124c.762829 0 1.376953-.614124 1.376953-1.376952v-.800781h.560547c.01 0 .01957-.000979.0293-.002.0097-.000982.01989-.002.0293-.0039.0093-.0019.01836-.0051.02734-.0078.009-.0028.01871-.0061.02734-.0098.0088-.0037.01708-.0072.02539-.01172.0082-.0044.01577-.0085.02344-.01367.0077-.0052.01436-.0117.02149-.01758.0071-.0059.01497-.01106.02148-.01758.0065-.0065.0117-.01436.01758-.02148.0059-.0071.0124-.01381.01758-.02148.0051-.0076.0093-.01537.01367-.02344.0044-.0082.0081-.01675.01172-.02539.0037-.0087.0069-.01817.0098-.02734.0028-.009.0059-.01793.0078-.02734.0019-.0095.0029-.0195.0039-.0293.000982-.0097.002-.01931.002-.0293v-.195255-3.902343-.195313c.000001-.01-.000979-.01957-.002-.0293-.000981-.0097-.002-.01989-.0039-.0293-.0019-.0093-.0051-.01836-.0078-.02734-.0028-.0091-.0061-.01871-.0098-.02734-.0037-.0088-.0072-.01708-.01172-.02539-.0044-.0082-.0085-.01577-.01367-.02344-.0052-.0077-.0117-.01436-.01758-.02148-.0059-.0071-.01106-.01497-.01758-.02148-.0065-.0065-.01436-.01171-.02148-.01758-.0071-.0059-.01381-.0124-.02149-.01758-.0076-.0051-.01537-.0093-.02344-.01367-.0082-.0044-.01675-.0081-.02539-.01172-.0087-.0037-.01817-.0069-.02734-.0098-.009-.0028-.01794-.0059-.02734-.0078-.0095-.0019-.0195-.0029-.0293-.0039-.0097-.000981-.01931-.0019-.0293-.0019h-.560547v-.773481c0-.762829-.614124-1.376953-1.376953-1.376953zm.064453.798828h11.3164064c.327594 0 .591797.264204.591797.591797v1.048828.195313c0 .159849.129212.289062.289062.289062h.560547v3.324219h-.560547c-.15985 0-.289062.129213-.289062.289062v.195313 1.076172c0 .327593-.264203.591796-.591797.591796h-11.3164063c-.3275926 0-.5917968-.264203-.5917968-.591796v-6.417969c0-.327593.2642042-.591797.5917967-.591797z" fill="#0ff" filter="url(#a)" stroke="#0ff" stroke-linecap="round" stroke-linejoin="round"/><path d="m3.9076367 30.118005c-.76283 0-1.376951.6141-1.376951 1.3769v.0002 6.4451l.000001.0004c.000199.7627.61425 1.3766 1.37695 1.3766h.00035 11.4449193.000401c.762699-.0002 1.376599-.6142 1.376599-1.377v-.0003-.8004h.0003.5602.0007c.0097-.0001.0191-.001.0286-.002l.000699-.0001c.0095-.001.0194-.002.0286-.0038l.000601-.0002c.0091-.0019.018-.005.0268-.0076l.000501-.0002c.0089-.0028.0184-.006.0268-.0096l.000601-.0003c.0086-.0036.0167-.007.0248-.0115l.0005-.0002c.008-.0043.0154-.0084.023-.0134l.0004-.0004c.0075-.0051.0141-.0114.021-.0172l.0005-.0004c.007-.0057.0147-.0108.021-.0172l.0004-.0004c.0063-.0064.0114-.0141.0172-.0211l.0004-.0004c.0058-.0069.0121-.0135.0172-.021l.0003-.0005c.005-.0075.0091-.0151.0134-.023l.0002-.0005c.0043-.008.0079-.0164.0115-.0249l.0002-.0005c.0036-.0086.0067-.0178.0096-.0268l.0002-.0006c.0027-.0088.0057-.0175.0076-.0268l.0001-.0005c.0018-.0094.0028-.0192.0038-.0288v-.0006c.001-.0095.002-.0189.002-.0287v-.0003-.1949-.0005-3.9019-.0003-.195-.0006c-.0001-.0098-.001-.0191-.002-.0287l-.0001-.0006c-.0009-.0095-.002-.0195-.0038-.0287l-.0001-.0005c-.002-.0092-.0051-.018-.0077-.0268l-.0002-.0006c-.0028-.0089-.006-.0183-.0096-.0267l-.0003-.0006c-.0036-.0086-.007-.0167-.0114-.0248l-.0003-.0005c-.0043-.008-.0084-.0155-.0134-.023l-.0003-.0005c-.0052-.0074-.0115-.014-.0173-.021l-.0004-.0004c-.0057-.007-.0108-.0147-.0172-.021l-.0004-.0004c-.0064-.0064-.0141-.0115-.0211-.0172l-.0004-.0004c-.0069-.0058-.0135-.0121-.021-.0172l-.0005-.0003c-.0075-.005-.0151-.0091-.023-.0134l-.0005-.0002c-.008-.0043-.0164-.0079-.0249-.0115l-.0005-.0002c-.0086-.0036-.0178-.0068-.0268-.0096l-.0006-.0002c-.0088-.0027-.0176-.0057-.0268-.0076l-.0005-.0001c-.0094-.0018-.0192-.0028-.0288-.0038h-.0006c-.0095-.001-.0189-.0019-.0287-.0019h-.0002-.5603v-.0004-.7731-.0002c-.0001-.7627-.6142-1.3767-1.377-1.3767h-.0001zm.06446.7988h7.5444403 3.771969c.218501 0 .394701.1761.3948.3945.109101.0002.197.0882.197.1973v.6995.3493.1304.0649c0 .1067.0861.193.1927.1931.0002.0531.0432.096.0964.096h.3738.1867v2.2164 1.1078h-.3738-.1867c-.1067 0-.193.0862-.1931.1927-.0531.0002-.096.0432-.096.0964v.1304.0649.7177.3585c0 .2185-.176099.3947-.3945.3948-.0002.1091-.0882.197-.1973.197h-7.5444493-3.77196c-.21851 0-.39475-.1762-.39486-.3946-.10904-.0001-.19694-.0881-.19694-.1972v-4.2788-2.1392c0-.2185.17614-.3947.39453-.3948.00017-.1091.08817-.197.19727-.197" fill="#5ff" filter="url(#b)" stroke="#5ff" stroke-width=".5"/><path d="m3.9076528 30.118005c-.76283 0-1.376953.6141-1.376953 1.3769v.0001 6.4452.0002c.0001.7628.614183 1.3768 1.376953 1.3768h.00017 11.4451692.0002c.7627-.0001 1.3767-.6142 1.3767-1.377v-.0002-.8005h.0002.5604.0003c.0099-.0001.0193-.001.029-.002l.0003-.0001c.0096-.0009.0197-.002.029-.0038l.0003-.0001c.0092-.0019.0181-.0051.027-.0077l.0003-.0001c.0089-.0028.0185-.0061.0271-.0097l.0002-.0002c.0087-.0036.0169-.0071.0251-.0116l.0003-.0001c.0081-.0043.0156-.0084.0232-.0135l.0002-.0002c.0076-.0052.0142-.0116.0213-.0174l.0002-.0002c.007-.0058.0148-.0109.0213-.0174l.0002-.0002c.0064-.0065.0115-.0142.0173-.0213l.0002-.0002c.0059-.007.0123-.0137.0174-.0213l.0002-.0002c.005-.0075.0092-.0152.0135-.0232l.0001-.0003c.0044-.0081.008-.0165.0116-.0251l.0001-.0003c.0037-.0086.0068-.0179.0097-.027l.0001-.0003c.0028-.0089.0058-.0178.0077-.0271l.0001-.0003c.0018-.0094.0028-.0193.0038-.029v-.0003c.001-.0096.002-.0191.002-.029v-.0002-.195-.0003-3.9021-.0001-.1952-.0003c0-.0099-.001-.0193-.002-.029v-.0003c-.001-.0096-.002-.0197-.0039-.029l-.0001-.0003c-.0019-.0092-.005-.0181-.0077-.027l-.0001-.0003c-.0028-.009-.006-.0185-.0097-.0271l-.0001-.0002c-.0037-.0087-.0071-.0169-.0116-.0251l-.0002-.0003c-.0043-.0081-.0084-.0156-.0135-.0232l-.0002-.0002c-.0051-.0076-.0115-.0142-.0174-.0213l-.0002-.0002c-.0058-.007-.0109-.0148-.0173-.0213l-.0003-.0002c-.0064-.0064-.0142-.0115-.0212-.0173l-.000199-.0002c-.0071-.0058-.0137-.0123-.0213-.0174l-.000299-.0002c-.0075-.005-.0152-.0092-.0232-.0135l-.0002-.0001c-.0081-.0044-.0166-.008-.0251-.0116l-.000299-.0001c-.0086-.0037-.018-.0069-.0271-.0097l-.000299-.0001c-.0089-.0027-.0177-.0058-.027-.0077h-.000299c-.0094-.0019-.0193-.0029-.029-.0039h-.0003c-.0096-.001-.0191-.0019-.029-.0019h-.0002-.5604v-.0002-.7733-.0003c-.0002-.7627-.614201-1.3766-1.376901-1.3766h-.000399zm.06445.7988h3.77248 7.5439102c.1094 0 .1977.0881.1979.1973.2181.0003.3939.1763.3939.3945v.3501.6987.0655.1298c0 .0535.0431.0968.0964.097.0003.1063.0863.1921.192699.1921h.187101.3734v1.1085 2.2157h-.187101-.3734c-.0535 0-.0968.0431-.097.0964-.1063.0003-.1921.0863-.1921.1927v.0655.1298.3592.717c0 .1094-.0881.1977-.1972.1979-.0004.2181-.1764.3939-.3946.3939h-3.77246-7.5439302c-.10941 0-.19769-.0881-.1979-.1973-.2181-.0003-.39389-.1764-.39389-.3945v-2.1396-4.2784c0-.1094.08806-.1977.19726-.1979.00035-.2181.17635-.3939.39453-.3939" fill="#aff" filter="url(#c)" stroke="#a9ffff" stroke-width=".25"/></g><g stroke-width=".999887" transform="matrix(.89227326 0 0 .89227326 .960247 .849615)"><path d="m1.7421875 3.4140625c-.76282938 0-1.37695313.6141239-1.37695312 1.3769531v6.4453124c0 .762829.61412374 1.376953 1.37695312 1.376953h11.4453125c.762829 0 1.376953-.614124 1.376953-1.376953v-.800781h.560547c.01 0 .01957-.000979.0293-.002.0097-.000982.01989-.002.0293-.0039.0093-.0019.01836-.0051.02734-.0078.009-.0028.01871-.0061.02734-.0098.0088-.0037.01708-.0072.02539-.01172.0082-.0044.01577-.0085.02344-.01367.0077-.0052.01436-.0117.02149-.01758.0071-.0059.01497-.01106.02148-.01758.0065-.0065.0117-.01436.01758-.02148.0059-.0071.0124-.01381.01758-.02148.0051-.0076.0093-.01537.01367-.02344.0044-.0082.0081-.01675.01172-.02539.0037-.0087.0069-.01817.0098-.02734.0028-.009.0059-.01793.0078-.02734.0019-.0095.0029-.0195.0039-.0293.000982-.0097.002-.01931.002-.0293v-.1952551-3.9023438-.1953125c.000001-.010003-.000979-.019566-.002-.029297-.000981-.00972-.002-.019888-.0039-.029297-.0019-.00934-.0051-.018362-.0078-.027344-.0028-.00905-.0061-.018708-.0098-.027344-.0037-.00879-.0072-.01708-.01172-.025391-.0044-.00818-.0085-.015765-.01367-.023438-.0052-.00768-.0117-.014356-.01758-.021484-.0059-.00712-.01106-.014965-.01758-.021484-.0065-.00652-.01436-.011705-.02148-.017578-.0071-.00587-.01381-.012403-.02149-.017578-.0076-.0051-.01537-.0093-.02344-.013672-.0082-.00443-.01675-.00808-.02539-.011719-.0087-.00368-.01817-.00695-.02734-.00977-.009-.0028-.01794-.0059-.02734-.00781-.0095-.00192-.0195-.00293-.0293-.00391-.0097-.0009814-.01931-.00195-.0293-.00195h-.560547v-.773434c0-.7628292-.614124-1.3769531-1.376953-1.3769531zm.064453.7988281h11.3164065c.327594 0 .591797.264204.591797.5917969v1.0488281.1953125c0 .1598498.129212.2890625.289062.2890625h.560547v3.3242188h-.560547c-.15985 0-.289062.1292126-.289062.2890625v.1953121 1.076172c0 .327594-.264203.591797-.591797.591797h-11.3164064c-.3275926 0-.5917968-.264203-.5917968-.591797v-6.4179685c0-.3275929.2642042-.5917969.5917967-.5917969z" fill-opacity=".998536"/><path d="m1.8066412 4.2128906c-.327592 0-.591797.2642043-.591797.5917969v6.4179685c0 .327594.264205.591797.591797.591797h11.3164058c.327594 0 .591797-.264203.591797-.591797v-1.076173-.1953114c0-.1598495.129212-.2890622.289062-.2890622h.560547v-3.3242188h-.560547c-.15985 0-.289062-.1292128-.289062-.2890625v-.1953125-1.0488281c0-.3275926-.264203-.5917969-.591797-.5917969z" fill="#0f0"/></g><path d="m4.6378034 10.841889c-.023297-.03769.00576-.296243.06005-.53462.1040051-.4565909.2375155-1.1181609.3220717-1.5959397.022591-.127675.052825-.2669349.067181-.3094668.014356-.042531.01846-.084968.00909-.094306-.00934-.00934-.2311085-.016975-.4928275-.016975-.2725274 0-.4998355-.012834-.5319799-.030038-.089987-.048161-.06616-.139256.12115-.4632515.09688-.1675737.3994968-.6964095.6724818-1.1751911.9829634-1.7239947.9017713-1.5959384 1.0118866-1.5959384.083031 0 .098285.010927.1058197.075882.00483.041735-.019426.2114847-.05393.3772216-.034505.1657373-.080208.3927437-.1015746.5044596-.021364.1117148-.072176.3578998-.1129206.5470758-.040735.1891764-.07407.3863366-.07407.438134v.094177l.2829166.018737c.1556051.010304.3830458.018802.5054255.018885.2547957.000174.3146738.01604.3134028.083052-.00102.05268-.1841151.4110208-1.0993913 2.1514114-.8551266 1.6260171-.8034094 1.5379041-.9026672 1.5379041-.045563 0-.091527-.01404-.1021303-.03122z" fill-opacity=".996078" stroke-width=".928546"/><path d="m9.1260512 6.3370451a1.1173598 1.1173598 0 0 0 -.7901314.3270626 1.1173598 1.1173598 0 0 0 0 1.5802629l.7901314.7901309.7901324.7901319.7901294-.7901319.790131-.7901309a1.1173598 1.1173598 0 0 0 0-1.5802629 1.1173594 1.1173594 0 0 0 -1.5802604 0 1.1173598 1.1173598 0 0 0 -.7901324-.3270626z"/></svg>