<svg height="16" viewBox="0 0 16 16" width="16" xmlns="http://www.w3.org/2000/svg"><path d="m6.2339534 15.604545c-.1760297-.022091-.5623222-.102546-.7266034-.151332l-.1640216-.04871v-.327365-.327364l.1807887.09126c.3544572.17893.6075841.236513 1.0379613.236124.3376616-.000312.4160162-.01044.5778947-.07475.2561056-.101747.5164006-.361915.5930884-.592799.073772-.222108.073772-.595763 0-.817872-.077637-.23374-.3379647-.492572-.5930884-.589678-.375371-.142874-.92879-.114585-1.3881478.07096l-.1897469.07664v-1.199492-1.199493h1.265625 1.265625v.265625.265625h-.96875-.96875v.597093c0 .55592.00377.595629.054687.575852.2443453-.09491.7773437-.09436 1.1015625.0011.7575056.223126 1.1551695.805981 1.1175715 1.638025-.03776.835559-.4842087 1.33233-1.3363215 1.486935-.2175878.03948-.6402594.05107-.859375.02358zm4.2092626-.05177c.02241-.04151.694643-1.160004 1.493862-2.485535l1.453125-2.410057.254433-.000125.254434-.000125-1.490965 2.476562-1.490965 2.476563-.257331.0091-.25733.0091.04074-.07548zm3.078784.04062c-.358657-.09001-.611822-.332152-.735995-.703944-.183717-.550077-.07001-1.228108.261556-1.559675.339285-.339286.930642-.388987 1.362576-.114518.566108.359728.665989 1.490317.183144 2.073069-.14725.177718-.450896.313446-.727458.32517-.124091.0053-.278811-.0038-.343823-.0201zm.5815-.477067c.220515-.168195.334563-.591842.270896-1.006278-.04249-.276605-.131747-.462644-.274022-.571162-.09351-.07132-.142681-.08509-.303921-.08509-.160814 0-.210498.01383-.302921.08432-.06081.04638-.144085.151847-.185067.234375-.067.134923-.07451.191007-.07451.5563 0 .381844.0051.415941.08507.56757.128943.244505.26424.326612.514234.312073.116932-.0068.191881-.03235.270239-.09211zm-12.2284225.393217c.0002746-.01347.3632222-.966682.8065504-2.118245l.8060514-2.09375-1.1503005-.0082-1.1503004-.0082v-.265244-.265245h1.546875 1.546875v.12244c0 .08544-.2632825.805584-.8711447 2.382813l-.8711448 2.260372-.3319802.0089c-.1825892.0049-.3317557-.0022-.3314812-.01563zm8.3349525-2.290877c-.198779-.0502-.3517506-.145306-.5013516-.311699-.204516-.22747-.277102-.438873-.295291-.860013-.02304-.533473.08789-.868133.37321-1.1259.212469-.191953.3714426-.246997.7129806-.246864.260112.000094.318783.01077.473792.08613.403994.196423.619216.611242.619216 1.193475 0 .596858-.228467 1.024356-.646199 1.209138-.163302.07224-.553932.1018-.736357.05573zm.506076-.428979c.258187-.131654.397202-.482609.369247-.932199-.02396-.385284-.163933-.655372-.389459-.751467-.3357-.14304-.671728.08471-.7613306.516015-.05801.279231-.02206.687142.0787.893104.142794.29186.440684.408224.702839.274547zm-9.3118501-3.1303526c-.2125963-.015068-.3083842-.039254-.46875-.118359-.3947118-.194705-.6835431-.5232176-.8298141-.9438198l-.0754221-.2168763-.018096-2.5413653c-.00995-1.3977512-.00511-2.9932918.010757-3.545646l.0288539-1.0042804.1136484-.2393112c.1981615-.4172718.5461448-.7251708.9935788-.8791279l.2311916-.0795505 6.140625.0105674 6.1406246.0105674.186277.0692211c.379941.1411872.712863.4257396.892556.7628779.147559.2768498.186002.460041.186421.8883586l.000371.3787921.351563.022381c.392592.024993.520933.069319.625615.2160754l.0697.09771v2.3492609c0 2.3354941-.000384 2.3497779-.06544 2.4375-.129525.1746569-.27507.2277797-.625627.22835l-.316066.0005136-.01987.1449866c-.01093.079743-.01987.2478006-.01987.3734618 0 .4791482-.136548.8133579-.465141 1.1384646-.259789.257029-.545459.403122-.859515.43956-.251667.0292-11.7959434.0289-12.2081691-.000313zm12.2126411-1.113266c.05557-.035189.136288-.1117491.179363-.1701337.077-.1043732.07834-.1161426.07968-.7016451.0019-.8351778.0333-.9511681.298452-1.1027896.104271-.059625.168748-.069873.442375-.070312l.320311-.0005146v-1.5897359-1.589736l-.338675-.013954c-.386567-.0159272-.512047-.0687253-.634601-.2670224-.065321-.1056924-.071512-.1612544-.089485-.8031124-.021757-.7770276-.032663-.8207021-.241535-.9672935l-.132421-.092936-6.0137657.00171-6.0137665.00171-.1110661.068642c-.0610863.0377457-.1429582.1133465-.1819376.1679942l-.070872.099359v3.375 3.375l.068538.109375c.07201.1149156.1580386.1804363.2898522.220755.043511.013309 2.7722249.021818 6.0638096.018909 5.9725831-.00528 5.9849031-.00542 6.0857441-.069269zm-9.6323524-.6817234c-.0535675-.0391694-.0554118-.061061-.0230381-.2734375.0193553-.1269725.1064475-.5753903.1935381-.9964841.087091-.4210938.1786988-.878125.2035725-1.015625.0248741-.1375.0544616-.2957031.0657497-.3515625.0184244-.0911731.0129316-.1019856-.0536947-.1056984-.0408203-.002275-.2907078-.0128216-.5553053-.0234375-.603719-.0242216-.605075-.0254113-.423445-.3715557.104625-.1993909.8765491-1.5576128 1.3982419-2.4602459.4092416-.7080702.4421559-.7493283.5453522-.6835967.068819.043835.067236.1846087-.00611.5429717-.029899.1460938-.073377.3640625-.096617.484375s-.07283.3523438-.1101991.515625c-.037369.1632812-.074942.3847656-.083495.4921875l-.015551.1953125.4958278.0037c.5551528.00414.6781759.020868.6922859.094137.00947.049155-.18987.4513215-.6175465 1.2459162-.1156323.2148405-.4811892.9078165-.8123448 1.5399437-.5140606.9812647-.6515706 1.2100531-.7272856 1.2100531-.00644 0-.03791-.01916-.069936-.042578zm6.5462834-.9320091c-.362848-.3243-2.1897646-2.0725016-2.2694016-2.1716206-.199973-.2488938-.2812242-.5243297-.2507958-.85018.0540091-.5783722.5681018-1.0557034 1.1748358-1.0908267.460164-.026638.741851.098575 1.2126716.5390479l.257935.2413094.285818-.2690575c.201864-.1900262.355103-.3032999.521695-.3856338.227291-.1123337.247876-.1165762.565621-.1165762.305829 0 .344985.00722.53985.099531.280014.1326484.499854.3432006.626106.599656.09272.1883431.10129.23092.10129.5032812 0 .5318603-.01295.548075-1.742239 2.1814963-.476981.4505384-.877763.8187487-.890625.818245-.01286-.0005032-.07261-.044906-.132761-.098672z" stroke-width=".03125"/></svg>