<svg height="16" viewBox="0 0 16 16" width="16" xmlns="http://www.w3.org/2000/svg"><path d="m8.5450375 15.290368c-.1990522-.065061-.4005493-.244752-.4826952-.430457-.0575117-.130006-.0780758-.343452-.0455564-.472631.031663-.125722 3.2115721-7.8362048 3.2740271-7.938682.126419-.2074291.384782-.3443254.649841-.3443254.226032 0 .384989.065592.541365.2233905l.124779.1259167 1.608874 3.8987192c.884881 2.144294 1.62235 3.943429 1.638823 3.998078.104956.348203-.08006.732162-.432038.896617-.188884.08825-.43839.09008-.620767.0047-.146178-.06854-.270748-.172189-.338283-.281462-.02643-.04278-.197719-.440112-.380619-.882959l-.332545-.805263h-1.809689-1.809689l-.3403217.822587c-.1871768.452422-.3632129.854735-.3911913.894027-.069343.09738-.1698732.178885-.3070731.248951-.1392541.07111-.3986056.09142-.547246.04283zm4.5450225-3.580279c.000088-.03614-1.134385-2.7882681-1.149401-2.7883517-.01497-.0000834-1.14947 2.7521227-1.149393 2.7883517.000047.02216.244982.02817 1.149393.02817.904405 0 1.149347-.0059 1.149401-.02817zm-11.2990496 1.322266c-.2153852-.068801-.3730804-.205384-.4793852-.415194-.0537786-.106144-.0629067-.151467-.0635367-.315503-.0012619-.327961.1225037-.52397.4577604-.724976.4493038-.269385 1.0361692-.702243 1.5697391-1.157804.3343128-.285436 1.543764-1.4739593 1.6211096-1.5930582l.0400311-.0616419-.3150311-.4228809c-.6005345-.8061229-1.1092271-1.6055259-1.4608802-2.2957507-.1092429-.2144214-.1959816-.4162449-.2119494-.4931607-.1299975-.6261943.5208766-1.1222739 1.1028358-.8405524.1743257.0843903.2790063.2130961.4485374.5514857.1969924.3932025.4237457.7842469.6967246 1.2015288.2418648.3697201.6707205.9770963.7170644 1.0155585.0615345.0510709.640058-.905495 1.0571578-1.7479767.3046026-.6152526.7711721-1.7202706.8348531-1.9772558l.015291-.061701-3.5799563-.0059-3.57995527-.0059-.11908331-.062743c-.15918697-.0838873-.2896275-.2185682-.36161868-.3733875-.0849222-.1826273-.0849222-.4550479 0-.6376753.07199107-.1548191.20243171-.2895002.36161716-.373373l.11908331-.0627434 2.15218259-.011268 2.1521827-.011268.0113919-.4619868c.011156-.4510921.012868-.4647952.074009-.5810702.083664-.15909788.2183574-.28959057.3732526-.36161714.1826268-.0849222.4550481-.0849222.6376749 0 .1548951.072026.2895868.20251926.3732526.36161714.061152.116275.062898.1299781.074008.5810702l.011392.4619868 2.1521826.011268 2.1521821.011268.119083.062744c.159186.083873.289626.2185539.361618.373373.08492.1826275.08492.455048 0 .6376753-.07199.1548193-.202432.2895002-.361618.373373l-.119083.062744-.680246.00684-.6802479.00684-.1059639.319927c-.5071527 1.5311217-1.3472836 3.2350852-2.1846089 4.4308492l-.2117128.3023406.06425.08077c.1177176.1479913.8201111.8229672 1.094218 1.051505.237281.1978334.2801004.2444314.3493072.3801214.072464.142083.078786.170389.077816.348405-.0008923.16387-.010594.21354-.062977.321992-.1376869.285154-.4548263.467972-.7632869.440001-.2852037-.02586-.5747274-.239405-1.3249873-.977273l-.4395704-.4323108-.3153838.3355898c-.3186357.33905-.9341159.928357-1.3069653 1.251385-.6545023.567047-1.5553959 1.218942-1.9652717 1.422089-.194866.09658-.4004929.118485-.5784957.06163z"/></svg>