<svg height="16" viewBox="0 0 16 16" width="16" xmlns="http://www.w3.org/2000/svg"><path d="m7.608519 15.722293c-.195195-.0929-.44585-.34367-.545323-.545567-.05969-.121149-.07117-.194881-.07117-.456958 0-.262836.01141-.335655.07177-.458198.116614-.236723.299031-.418189.543145-.540314.372534-.186371.495242-.126814.162579.07891-.428668.265093-.575139.480473-.599159.881041-.01344.224042-.007.257975.08342.441692.103825.210899.288163.390286.486.472948.141646.05918.504371.05881.673012-.000688.272407-.09611.463636-.313309.598905-.680237.137034-.371717.202219-.408721.173235-.09834-.02491.2668-.129655.491251-.316377.677974-.239393.239393-.350675.283154-.751532.295537-.314553.0097-.357743.004-.508502-.0678zm.179605-.400962c-.192586-.09741-.318069-.285997-.336261-.505372-.02456-.296224-.133231-.165878 1.929915-2.314941.915076-.953183 2.071702-2.152168 2.276021-2.359375.132234-.134103.04838.0034-1.619581 2.65625-1.034652 1.645573-1.341371 2.125368-1.469975 2.299452-.211188.285875-.49605.367664-.780119.223986zm.38564-.403542c.165746-.08828.196289-.263603.06404-.367628-.109227-.08592-.215966-.0818-.309706.01194-.118001.118-.0884.301529.05815.360577.09287.03742.108868.037.187512-.0049zm-5.307693-.408305c.01022-.124969.02631-.318622.03574-.430341.0251-.297133.124281-.788376.217348-1.076486.132135-.409055.486519-1.092341.745653-1.437687.769086-1.024959 1.736818-1.6836471 2.954883-2.0112468l.422324-.1135844.8125-.0008093c.8852-.0008844.991369.012916 1.6074.2089128.543573.172944 1.408225.6233187 1.408225.7335087 0 .02649-.187786.238686-.417302.471542l-.417303.423375-.34051-.173579c-1.119544-.570701-2.357772-.589212-3.50885-.05246-1.083049.505035-1.917028 1.55969-2.17921 2.755844-.02722.124185-.05859.380478-.06972.569541l-.02023.34375-.634769.0085-.634769.0085.01859-.227216zm9.216605.202377c-.01889-.01284-.04331-.163968-.05427-.335843-.02139-.335504-.105122-.769219-.202107-1.046875-.138893-.397626-.448105-.938532-.745937-1.304869-.158013-.194357-.159456-.185927.10509-.613888.272942-.441545.408402-.613426.466019-.591316.08911.03419.54365.580071.782581.93983.525848.791771.825412 1.713986.834893 2.570243l.0043.390625-.578125.0077c-.317969.0042-.593581-.0028-.612471-.01563zm-4.738978-6.3049553c-1.190394-.2257906-1.891961-1.2685072-2.057464-3.0579419-.046362-.5012631-.020502-1.6041506.047717-2.0351192.231553-1.4628069.876375-2.34992237 1.888522-2.59813712.316814-.0776942.963169-.0788585 1.253924-.002259.384712.10135272.708491.28686572.98747.56578142.485588.4854784.753476 1.1086697.90805 2.1124129.07879.5116266.07909 1.8073106.000538 2.3125-.156611 1.0071862-.423308 1.6272434-.908588 2.1124128-.199507.1994625-.309335.2804491-.51872.3825019-.146093.071205-.35.1515359-.453125.1785122-.269996.070628-.85221.085502-1.148324.029336zm1.044382-.8809706c.481377-.225421.79911-.7757528.944931-1.6366788.118332-.6986293.118439-1.9816921.000219-2.6827269-.144408-.8563888-.465105-1.4097742-.950583-1.6403064-.186904-.088753-.229328-.096455-.53125-.096455-.302242 0-.344275.00765-.532858.097017-.631704.2993468-.950191 1.0610044-1.030499 2.4644266-.03365.5881212.001 1.3814781.081 1.8536749.14019.827611.450544 1.3941472.884072 1.6138325.230171.1166363.359751.1419594.666219.130196.221261-.00849.307377-.027412.468751-.1029798zm4.518118.8809706c-1.190394-.2257906-1.891961-1.2685072-2.057464-3.0579419-.04636-.5012631-.0205-1.6041506.04772-2.0351192.231553-1.4628069.876375-2.34992237 1.888522-2.59813712.316814-.0776942.963169-.0788585 1.253924-.002259.384712.10135272.708491.28686572.98747.56578142.485588.4854783.753476 1.1086696.90805 2.1124128.07879.5116266.07909 1.8073106.000538 2.3125-.156614 1.0071865-.423311 1.6272437-.908591 2.1124131-.199507.1994625-.309335.2804491-.51872.3825019-.146093.071205-.35.1515359-.453125.1785122-.269996.070628-.85221.085502-1.148324.029336zm1.044382-.8809706c.481377-.225421.79911-.7757528.944931-1.6366788.118332-.6986293.118439-1.9816921.000219-2.6827269-.144408-.8563888-.465105-1.4097742-.950583-1.6403064-.186904-.088753-.229328-.096455-.53125-.096455-.302242 0-.344275.00765-.532858.097017-.489177.2318071-.802032.7735334-.949501 1.644114-.122427.722746-.122427 1.9512416 0 2.6739875.140191.827611.450544 1.3941472.884073 1.6138325.23017.1166363.35975.1419594.666219.130196.22126-.00849.307377-.027412.46875-.1029799zm-13.66168295.3500828v-.421875h.82812495.828125v-2.8783878-2.8783877l-.07507.018841c-.04129.010362-.417458.089175-.835937.17514-.41847895.085965-.79251195.1636539-.83118395.1726427l-.07031.016343v-.4667563-.4667559l.164062-.035552c1.45453495-.3151987 1.63818395-.34462695 2.15066595-.34462695h.497773v3.34374995 3.34375h.828125.828125v.421875.421875h-2.15625-2.15624995z" stroke-width=".03125"/></svg>