<svg height="16" viewBox="0 0 16 16" width="16" xmlns="http://www.w3.org/2000/svg" xmlns:xlink="http://www.w3.org/1999/xlink"><filter id="a" height="100%" width="100%" x="0%" y="0%"><feColorMatrix color-interpolation-filters="sRGB" values="0 0 0 0 1 0 0 0 0 1 0 0 0 0 1 0 0 0 1 0"/></filter><mask id="b"><g filter="url(#a)"><path d="m-1.6-1.6h19.2v19.2h-19.2z" fill-opacity=".5"/></g></mask><clipPath id="c"><path d="m0 0h1600v1200h-1600z"/></clipPath><mask id="d"><g filter="url(#a)"><path d="m-1.6-1.6h19.2v19.2h-19.2z" fill-opacity=".7"/></g></mask><clipPath id="e"><path d="m0 0h1600v1200h-1600z"/></clipPath><mask id="f"><g filter="url(#a)"><path d="m-1.6-1.6h19.2v19.2h-19.2z" fill-opacity=".35"/></g></mask><clipPath id="g"><path d="m0 0h1600v1200h-1600z"/></clipPath><path d="m3 1c-1.644531 0-3 1.355469-3 3v7c0 1.644531 1.355469 3 3 3h3c.5625 0 1 .4375 1 1 0 .550781.449219 1 1 1s1-.449219 1-1c0-1.644531-1.355469-3-3-3h-3c-.5625 0-1-.4375-1-1v-7c0-.5625.4375-1 1-1h3c.5625 0 1 .4375 1 1 0 .550781.449219 1 1 1s1-.449219 1-1c0-1.644531-1.355469-3-3-3zm0 0"/><path d="m7 4v10h2v-10zm0 0"/><path d="m10 1c-1.644531 0-3 1.355469-3 3 0 .550781.449219 1 1 1s1-.449219 1-1c0-.5625.4375-1 1-1h3c.5625 0 1 .4375 1 1v7c0 .5625-.4375 1-1 1h-3c-1.644531 0-3 1.355469-3 3 0 .550781.449219 1 1 1s1-.449219 1-1c0-.5625.4375-1 1-1h3c1.644531 0 3-1.355469 3-3v-7c0-1.644531-1.355469-3-3-3zm0 0"/><path d="m3 4h3v1h-3zm0 0"/><path d="m3 6h3v1h-3zm0 0"/><path d="m3 8h3v1h-3zm0 0"/><path d="m10 4h3v1h-3zm0 0"/><path d="m10 6h3v1h-3zm0 0"/><path d="m10 8h2v1h-2zm0 0"/><g mask="url(#b)"><g clip-path="url(#c)" transform="translate(-580 -261)"><path d="m550 182c-.351562.003906-.695312.101562-1 .28125v3.4375c.304688.179688.648438.277344 1 .28125 1.105469 0 2-.894531 2-2s-.894531-2-2-2zm0 5c-.339844 0-.679688.058594-1 .175781v6.824219h4v-4c0-1.65625-1.34375-3-3-3zm0 0"/></g></g><g mask="url(#d)"><g clip-path="url(#e)" transform="translate(-580 -261)"><path d="m569 182v4c1.105469 0 2-.894531 2-2s-.894531-2-2-2zm0 5v7h3v-4c0-1.65625-1.34375-3-3-3zm0 0"/></g></g><g mask="url(#f)"><g clip-path="url(#g)" transform="translate(-580 -261)"><path d="m573 182.269531v3.449219c.613281-.355469.996094-1.007812 1-1.71875 0-.714844-.382812-1.375-1-1.730469zm0 4.90625v6.824219h2v-4c0-1.269531-.800781-2.402344-2-2.824219zm0 0"/></g></g></svg>