<svg height="16" viewBox="0 0 16 16" width="16" xmlns="http://www.w3.org/2000/svg"><path d="m4.9383546 15.557521c-.877196-.361292-1.6920956-.900821-2.4490178-1.621447-.7752028-.738029-1.2578674-1.397913-1.7037586-2.329325-1.04613712-2.1852517-1.04749398-4.6900822-.00372306-6.8706513.41650316-.8701272.79156956-1.4092306 1.46061066-2.0994153 1.545528-1.594371 3.239425-2.35042472 5.4434897-2.42964678 1.6407927-.05897583 2.9609265.25102346 4.2494165.99786528 2.295653 1.3306195 3.737411 3.5417546 4.022349 6.1688254.199787 1.8419904-.314832 3.8123737-1.409117 5.3952777-.865202 1.251529-2.47528 2.485895-3.814912 2.924699-.336494.11022-.382964.111196-.535511.01124-.166777-.109274-.167078-.11191-.18928-1.66219l-.022252-1.55274-.2271811-.400871-.2271827-.400872h.16374c.2766788 0 1.2031818-.261234 1.6113838-.454341.522986-.247406 1.085151-.776833 1.345861-1.2674816.334886-.6302499.458526-1.1974282.460532-2.1126032.002-.902391-.113567-1.3116532-.549041-1.9447058-.209854-.3050639-.228885-.3696387-.169734-.5758899.100382-.3499999.080093-1.1037375-.040655-1.5103266-.105118-.3539692-.112674-.3612376-.375443-.3612376-.380617 0-.912998.1874942-1.485762.5232557l-.493911.2895427-.4246136-.1073943c-.588867-.1489382-2.5620052-.1486864-3.1516758.0003921-.372683.0942269-.4428945.0951027-.5577469.0069658-.3327908-.2553916-1.2845912-.6534159-1.6535887-.6914988-.3818402-.0394081-.3931076-.0355404-.4686434.1608987-.172754.4492607-.2260093 1.0120585-.1408545 1.4885415l.0830269.4645758-.2468498.3668095c-.3536235.5254699-.5283382 1.1488882-.5268697 1.8799829.0042379 2.1080935 1.0011804 3.3691351 2.9709467 3.7579641l.6365903.125662-.163511.205057c-.089934.112783-.2010457.351508-.2469219.530502-.074025.288815-.1124838.334154-.3417306.402836-.4075667.122107-1.0133819.0958-1.3129327-.05702-.1449104-.073928-.3711174-.262177-.5026814-.418333-.1315639-.156146-.3490142-.414291-.4832223-.573644-.3892232-.462148-.9893163-.670561-1.2924878-.448881-.1286778.09409-.1247212.105696.1010055.296295.5007093.422792.6905458.656588.971302 1.196224.1600408.307612.3869464.640039.5042334.738728.3333325.280474.8900846.410701 1.6089225.376334l.6168887-.02949v.819262c0 .767568-.00978.826109-.1549502.92779-.2051473.143687-.2075576.143318-.8845508-.135517z" stroke-width=".261441"/></svg>