<svg height="16" viewBox="0 0 16 16" width="16" xmlns="http://www.w3.org/2000/svg"><path d="m2.2575988 15.580122c-.650166-.124031-1.0423863-.520086-1.135211-1.146309-.088526-.597221.1410331-1.07724.6328284-1.323275.1218816-.06098.244323-.111097.2720919-.111384.027769-.000281-.049265-.04906-.1711861-.108391-.2511908-.122231-.4507215-.317193-.5545473-.541848-.054961-.118923-.067528-.204271-.067528-.458615 0-.271322.010711-.335336.081285-.485801.1508963-.321714.4082373-.538855.7859609-.663182.2702753-.08896.9514107-.09553 1.2251696-.01181.5497131.168104.8441522.478413.9231475.972903.089333.559202-.1943481 1.050638-.7073887 1.225448l-.1426732.04861.1602644.05644c.5236345.184407.8148595.601166.8148595 1.166111 0 .529598-.2271041.96529-.625 1.199043-.3230175.189763-1.0113976.273758-1.4920729.18206zm.8378254-.505812c.4126927-.122556.632189-.43057.632189-.887135 0-.615347-.4149135-.974312-1.0739554-.92914-.3926791.02692-.6494361.177913-.8030529.472273-.073406.14066-.083494.195864-.083494.456867s.010089.316207.083494.456867c.1212929.232421.3196898.385758.5777389.446521.1911653.04501.4848683.03786.6670804-.01625zm.0001375-2.374976c.2122604-.06296.4428941-.280113.4941563-.465284.090288-.326143.025207-.627614-.1798009-.832877-.1898397-.190076-.4132671-.260397-.7532924-.237092-.5229306.03584-.790968.303118-.790968.788719 0 .41244.2001648.674195.5871394.7678.1667538.04034.4687516.03034.6427656-.02127zm3.4496899 2.881751c-.5542844-.13466-.9623247-.595801-1.1366222-1.284535-.1726175-.682097-.1726175-1.630403 0-2.3125.1390522-.549464.4644091-1.002658.8496478-1.183489.3976788-.18667.9586561-.183755 1.3461241.007.645847.31795.966731 1.092462.966465 2.332744-.000219 1.019118-.202785 1.687533-.638574 2.107115-.329081.316844-.895466.453095-1.3870407.33367zm.7542537-.543637c.418208-.213555.637154-.865474.637154-1.897148 0-1.26411-.311059-1.919297-.9382124-1.976165-.4964203-.04501-.825285.288557-.9932041 1.007415-.039802.17039-.051098.384555-.051098.96875 0 .793614.022705.976395.1698178 1.367083.086657.230134.3303138.501524.5096085.567613.178655.06585.4987932.0478.6659342-.03755zm3.1438047.51433c.02241-.04151.694643-1.160004 1.493862-2.485535l1.453125-2.410057.254433-.000125.254434-.000125-1.490965 2.476562-1.490965 2.476563-.257331.0091-.25733.0091.04074-.07548zm3.078784.04062c-.358657-.09001-.611822-.332152-.735995-.703944-.183717-.550077-.07001-1.228108.261556-1.559675.339285-.339286.930642-.388987 1.362576-.114518.566108.359728.665989 1.490317.183144 2.073069-.14725.177718-.450896.313446-.727458.32517-.124091.0053-.278811-.0038-.343823-.0201zm.5815-.477067c.220515-.168195.334563-.591842.270896-1.006278-.04249-.276605-.131747-.462644-.274022-.571162-.09351-.07132-.142681-.08509-.303921-.08509-.160814 0-.210498.01383-.302921.08432-.06081.04638-.144085.151847-.185067.234375-.067.134923-.07451.191007-.07451.5563 0 .381844.0051.415941.08507.56757.128943.244505.26424.326612.514234.312073.116932-.0068.191881-.03235.270239-.09211zm-3.89347-1.89766c-.198779-.0502-.3517517-.145306-.5013527-.311699-.204515-.22747-.277102-.438873-.29529-.860013-.02304-.533473.08789-.868133.37321-1.1259.212469-.191953.3714427-.246997.7129807-.246864.260112.000094.318783.01077.473792.08613.403994.196423.619216.611242.619216 1.193475 0 .596858-.228467 1.024356-.646199 1.209138-.163302.07224-.553932.1018-.736357.05573zm.506076-.428979c.258187-.131654.397202-.482609.369247-.932199-.02396-.385284-.163933-.655372-.389459-.751467-.3357-.14304-.671728.08471-.7613307.516015-.05801.279231-.02206.687142.0787.893104.142794.29186.440684.408224.702839.274547zm-9.3118506-3.1303556c-.2125963-.0150675-.3083842-.0392537-.46875005-.1183593-.3949162-.194805-.6835371-.5232-.8300148-.9443963l-.0756227-.2174531-.017893-2.5407888c-.0098411-1.3974334-.00491-2.9927146.0109581-3.5450688l.028851-1.0042804.1136484-.2393112c.1981616-.41727188.5461449-.72517082.99357895-.879128l.2311916-.0795505 6.1406254.0105674 6.1406247.0105674.186277.0692211c.379941.14118721.712863.42573965.892556.76287795.147559.27684975.186002.46004095.186421.88835865l.000371.3787921.351563.022381c.392592.024993.520933.069319.625615.2160754l.0697.09771v2.3492608c0 2.3354942-.000384 2.3497779-.06544 2.4375-.129525.174657-.27507.2277798-.625627.22835l-.316066.0005136-.01987.1449866c-.01093.079743-.01987.2478006-.01987.3734619 0 .4791481-.136548.8133579-.465141 1.1384647-.259791.2570291-.545461.4031222-.859517.4395597-.251667.0291991-11.7959439.0289041-12.2081696-.0003125zm12.2126416-1.1132659c.05557-.035189.136288-.1117491.179363-.1701337.077-.1043732.07834-.1161426.07968-.7016451.0019-.8351778.0333-.9511681.298452-1.1027896.104271-.059625.168748-.069873.442375-.070312l.320311-.0005146v-1.5897359-1.589736l-.338675-.013954c-.386567-.0159272-.512047-.0687253-.634601-.2670224-.065321-.1056924-.071512-.1612544-.089485-.8031124-.021757-.7770276-.032663-.8207021-.241535-.9672935l-.132421-.092936-6.0137667.00171-6.013766.00171-.1110661.068642c-.0610863.0377457-.1429582.1133465-.1819376.1679942l-.070872.099359v3.375 3.375l.068538.109375c.07201.1149156.1580386.1804363.2898522.220755.043511.013309 2.7722249.021818 6.0638095.018909 5.9725837-.00528 5.9849037-.00542 6.0857447-.069269zm-9.8715307-1.8188325c-.8802696-.8170044-1.9321879-1.8357481-2.0345267-1.9703634-.1661478-.2185491-.2214966-.4207788-.2056839-.7515144.0169019-.3535191.1113019-.5587544.3629921-.7891825.3137622-.2872563.6571455-.3946924 1.0872199-.3401643.127062.01611.2909424.059516.3641786.096459.1508816.076109.4787432.3362269.6629363.5259587.067941.069984.1359934.1272444.1512272.1272444.015234 0 .1541803-.1180241.3087703-.2622756.1632803-.1523606.3618294-.3032121.4737725-.3599573.9180578-.4653736 2.0045203.257166 1.8655081 1.2406345-.0529822.3748306-.1605072.509994-1.1619119 1.4605693-.4521737.4292222-.9586584.9104822-1.1255212 1.0694666-.1668631.1589844-.3222025.2890625-.3451988.2890625-.022996 0-.2046893-.1511719-.4037625-.3359375zm6.5342567-.028338c-.7799117-.7251614-1.9372647-1.8374486-2.0232407-1.9444595-.194676-.2423028-.275888-.5211841-.245752-.8439031.05401-.5783722.568102-1.0557034 1.174836-1.0908267.460164-.026638.741851.098575 1.2126717.5390479l.257935.2413094.285818-.2690575c.201864-.1900262.355103-.3032999.521695-.3856338.227291-.1123337.247876-.1165762.565621-.1165762.305829 0 .344985.00722.53985.099531.280014.1326484.499854.3432006.626106.599656.09272.1883431.10129.23092.10129.5032812 0 .5318603-.01295.548075-1.742239 2.1814963-.476981.4505384-.878305.8191609-.89183.8191609-.01352 0-.185768-.1498616-.382761-.3330259z" stroke-width=".03125"/></svg>