<?xml version="1.0" encoding="UTF-8" standalone="no"?>
<svg
   height="16"
   viewBox="0 0 16 16"
   width="16"
   xmlns="http://www.w3.org/2000/svg">
  <defs
     id="defs1" />
  <path
     class="error"
     d="m 7.949686,6.6062267 c -2.4929549,0 -4.5102213,2.0871718 -4.5102213,4.6665163 0,2.579345 2.0172664,4.666516 4.5102213,4.666516 2.492955,0 4.510222,-2.087171 4.510222,-4.666516 0,-2.5793445 -2.017267,-4.6665163 -4.510222,-4.6665163 z M 5.6945754,10.106113 h 4.5102216 c 0.625441,0 1.127555,0.519514 1.127555,1.16663 0,0.647115 -0.502114,1.166628 -1.127555,1.166628 H 5.6945754 c -0.6254415,0 -1.1275554,-0.519513 -1.1275554,-1.166628 0,-0.647116 0.5021139,-1.16663 1.1275554,-1.16663 z m 0,0"
     fill="#e01b24"
     id="path2"
     style="display:inline;stroke-width:1.14693"/>
  <path
     id="path1"
     style="display:inline"
     d="M 1.5546875 0.1171875 L 1.3847656 0.16992188 C 1.0966533 0.25988379 0.91786152 0.36860576 0.703125 0.58203125 C 0.53909452 0.74505889 0.49319847 0.80863623 0.40625 0.98828125 C 0.22229428 1.3683542 0.23205195 1.1273351 0.23242188 4.8378906 C 0.23274568 8.062309 0.23310904 8.1408224 0.27734375 8.3164062 C 0.33438767 8.542818 0.40847745 8.7025507 0.53710938 8.8828125 C 0.73833899 9.1648102 1.0453663 9.3805677 1.3847656 9.4785156 C 1.4693112 9.5029143 2.0371999 9.5126427 3.34375 9.5175781 A 4.9622278 4.9622278 0 0 1 3.8691406 8.4785156 C 2.6190499 8.4746288 1.7003951 8.4691064 1.6640625 8.4609375 C 1.5425544 8.4336145 1.3895134 8.3007621 1.3359375 8.1757812 C 1.2946835 8.0795713 1.2949219 7.9647786 1.2949219 4.828125 C 1.2949219 1.6914716 1.2946955 1.5747265 1.3359375 1.4785156 C 1.3869035 1.3596176 1.5311782 1.2296653 1.6523438 1.1933594 C 1.766824 1.1590164 13.347494 1.1571803 13.470703 1.1914062 C 13.515 1.2037108 13.594164 1.2501379 13.646484 1.2949219 C 13.819362 1.4429021 13.818121 1.4349977 13.832031 2.1953125 C 13.843701 2.8340791 13.848261 2.878367 13.894531 2.9667969 C 13.921528 3.0183997 13.981084 3.0927284 14.027344 3.1308594 C 14.160361 3.2405035 14.277025 3.2695312 14.591797 3.2695312 L 14.871094 3.2695312 L 14.871094 4.828125 L 14.871094 6.3867188 L 14.570312 6.3867188 C 14.318214 6.3871307 14.255542 6.3948348 14.169922 6.4335938 C 14.04385 6.4906622 13.954398 6.5738468 13.892578 6.6914062 C 13.848288 6.7756377 13.843721 6.8276141 13.832031 7.4609375 L 13.820312 8.140625 L 13.759766 8.2324219 C 13.678685 8.3548738 13.571119 8.4343607 13.447266 8.4628906 C 13.421009 8.4689356 12.858883 8.4730206 12.101562 8.4765625 A 4.9622278 4.9622278 0 0 1 12.634766 9.5195312 C 13.48938 9.5143839 13.641472 9.5052071 13.724609 9.4824219 C 14.157313 9.363851 14.526751 9.0638674 14.722656 8.6738281 C 14.85051 8.4192904 14.874099 8.2999466 14.886719 7.859375 L 14.898438 7.4472656 L 15.199219 7.4472656 C 15.452106 7.4472656 15.517375 7.4396906 15.609375 7.4003906 C 15.746011 7.3420277 15.832872 7.2606158 15.888672 7.1386719 C 15.930432 7.047279 15.931641 6.9650062 15.931641 4.828125 C 15.931641 2.3837219 15.939665 2.5273524 15.789062 2.3691406 C 15.661549 2.2351875 15.563285 2.2070312 15.207031 2.2070312 L 14.892578 2.2070312 L 14.892578 1.8964844 C 14.89203 1.5163407 14.864969 1.322881 14.787109 1.1269531 C 14.597112 0.64883173 14.221478 0.31119657 13.707031 0.15820312 C 13.578434 0.11995316 13.263683 0.1171875 7.5625 0.1171875 L 1.5546875 0.1171875 z M 5.3886719 1.5566406 C 5.3355664 1.5611836 5.2990601 1.579771 5.2832031 1.609375 C 5.2698871 1.6342242 5.2357722 1.6913283 5.2070312 1.7382812 C 5.1507753 1.8301841 5.1157756 1.8944257 5 2.1054688 C 4.959106 2.1800173 4.9122924 2.2567566 4.8964844 2.2753906 C 4.8806764 2.2940323 4.8505081 2.3451829 4.8300781 2.3886719 C 4.8096501 2.4321579 4.7647336 2.5179552 4.7285156 2.5800781 C 4.6922998 2.642201 4.6412183 2.7335032 4.6152344 2.7832031 C 4.5892511 2.8329014 4.537209 2.9237631 4.5 2.984375 C 4.462788 3.0449818 4.3959145 3.1618627 4.3515625 3.2441406 C 4.3071997 3.3264144 4.2519186 3.420145 4.2285156 3.453125 C 4.2051126 3.486105 4.1855469 3.5192938 4.1855469 3.5273438 C 4.1855469 3.5353409 4.1519911 3.5955213 4.1113281 3.6601562 C 4.0706635 3.7247882 4.0237775 3.8029184 4.0078125 3.8339844 C 3.9918475 3.8650458 3.9500745 3.9417833 3.9140625 4.0039062 C 3.8780507 4.0660291 3.8292386 4.1518235 3.8066406 4.1953125 C 3.7840428 4.2387985 3.7361237 4.3190881 3.6992188 4.375 C 3.6623126 4.4309096 3.6116565 4.5186594 3.5859375 4.5683594 C 3.560211 4.6180576 3.5118686 4.7086643 3.4785156 4.7695312 C 3.4052457 4.9032305 3.4045169 4.9122227 3.4667969 4.9785156 C 3.5154206 5.0302707 3.5206461 5.03125 4.0429688 5.03125 C 4.4931095 5.03125 4.5727984 5.0353002 4.5839844 5.0644531 C 4.5911744 5.0832441 4.5863867 5.1115771 4.5742188 5.1269531 C 4.5620518 5.1423254 4.5410116 5.2390679 4.5253906 5.3417969 C 4.5097686 5.444524 4.4877356 5.5333725 4.4785156 5.5390625 C 4.4692956 5.5447535 4.4666663 5.5759929 4.4726562 5.6074219 C 4.4786622 5.6388508 4.4733505 5.6759513 4.4609375 5.6914062 C 4.4485245 5.7068658 4.4274754 5.8120079 4.4121094 5.9238281 C 4.3967434 6.0356483 4.3749444 6.1360145 4.3652344 6.1484375 C 4.3555594 6.1608621 4.3301227 6.288759 4.3085938 6.4316406 C 4.2870658 6.5745222 4.2630362 6.7004676 4.2539062 6.7128906 C 4.2447413 6.7253152 4.2241744 6.8221265 4.2089844 6.9277344 C 4.1937944 7.0333423 4.1714802 7.1385263 4.1601562 7.1601562 C 4.1488333 7.1817862 4.1296595 7.2675926 4.1171875 7.3515625 C 4.1047155 7.4355414 4.0878281 7.5469794 4.0800781 7.5996094 C 4.0707951 7.6623123 4.0770991 7.7080588 4.0957031 7.7304688 C 4.1119905 7.7500987 4.1594214 7.7636719 4.2089844 7.7636719 C 4.277137 7.7636719 4.3029159 7.7520943 4.3261719 7.7089844 C 4.3423802 7.6789414 4.4112418 7.5447371 4.4804688 7.4101562 C 4.6136637 7.1512235 4.6632126 7.0594456 4.6816406 7.0410156 C 4.6878501 7.0348036 4.7335032 6.9434985 4.7832031 6.8378906 C 4.8329007 6.7322834 4.8805388 6.6409456 4.8867188 6.6347656 C 4.9050259 6.6164584 4.9543859 6.5253162 5.0839844 6.2734375 C 5.1511077 6.1429795 5.2747131 5.903706 5.359375 5.7421875 C 5.4440342 5.5806701 5.5519794 5.3724858 5.5996094 5.2792969 C 5.6472424 5.1861136 5.7103554 5.0704483 5.7402344 5.0214844 C 5.7900788 4.9397994 5.8596165 4.8061797 6.2089844 4.1269531 C 6.2759805 3.9966934 6.3320312 3.8790404 6.3320312 3.8652344 C 6.3320313 3.8514284 6.3130246 3.8246065 6.2910156 3.8046875 C 6.2571086 3.7739935 6.1673269 3.7675087 5.7050781 3.7617188 C 5.4050603 3.7579698 5.1543344 3.7481844 5.1464844 3.7402344 C 5.1290174 3.7227201 5.179251 3.3344193 5.203125 3.3027344 C 5.212486 3.2903098 5.2331809 3.1990053 5.2480469 3.0996094 C 5.2629129 3.0002128 5.2813056 2.9089074 5.2910156 2.8964844 C 5.3006816 2.8840598 5.3277474 2.7506565 5.3496094 2.6015625 C 5.3714714 2.4524686 5.3974481 2.3203686 5.4082031 2.3066406 C 5.4189571 2.2929148 5.439309 2.1961037 5.453125 2.0917969 C 5.466951 1.9874892 5.4864738 1.8913292 5.4960938 1.8789062 C 5.5056997 1.8664817 5.5205669 1.8129786 5.5292969 1.7597656 C 5.5521159 1.621444 5.4998465 1.5471206 5.3886719 1.5566406 z M 12.023438 2.7714844 C 11.656914 2.7714844 11.364805 2.899831 11.048828 3.1953125 C 10.93336 3.3032921 10.800709 3.4249469 10.755859 3.4667969 L 10.675781 3.5429688 L 10.396484 3.2832031 C 9.9804564 2.8959159 9.789093 2.7982443 9.4101562 2.7773438 C 9.1477585 2.7628704 8.9678088 2.7967889 8.75 2.9023438 C 8.551193 2.9986907 8.2965885 3.2379978 8.2011719 3.4179688 C 8.0273985 3.7457304 8.0272121 4.1950562 8.2011719 4.5214844 C 8.2784717 4.6665336 8.4781404 4.8656801 9.5625 5.890625 C 9.779928 6.0961398 10.114061 6.4149928 10.306641 6.5976562 C 10.499219 6.7803177 10.670677 6.9271281 10.685547 6.9238281 C 10.700422 6.9205251 10.786213 6.8467825 10.876953 6.7597656 C 10.967687 6.6727465 11.234637 6.4186771 11.470703 6.1953125 C 11.706769 5.9719478 11.986189 5.7061812 12.091797 5.6054688 C 12.197405 5.5047564 12.445739 5.2669772 12.644531 5.078125 C 13.14412 4.6035175 13.259043 4.420746 13.283203 4.0488281 C 13.305893 3.6995957 13.186584 3.3899084 12.933594 3.140625 C 12.694265 2.9048063 12.366558 2.7714844 12.023438 2.7714844 z " />
</svg>
