<svg height="16" viewBox="0 0 16 16" width="16" xmlns="http://www.w3.org/2000/svg"><path d="m.78521893 14.434714c-.20793495-.233891-.38158886-.434922-.38589759-.446738-.004273-.01182.3394923-.331561.76400246-.710545.4245102-.378985.771836-.69999.771836-.713346 0-.01335-.1594946-.02975-.3544338-.03645-.328954-.011287-.3702685-.020032-.5747026-.121544-.43306405-.215048-.77877499-.665941-.86618376-1.129723-.04230227-.224462-.04296805-6.4726764-.00072939-6.8401258.04137811-.3599846.1662309-.6119052.43882759-.8854697.21442488-.2151861.36507439-.3088711.65964796-.4102197.1654817-.0569396.3780384-.0591854 5.7354713-.0607058l5.5636209-.00159 1.209305-1.0878697c.983189-.8844601 1.21651-1.08003527 1.247839-1.04596689.04763.0517922.636241.71035399.716052.80114439.05782.065774.0538.070007-.762027.8005641-.451084.4039414-.820154.7439455-.820154.7555639 0 .011617.03695.040901.0821.065058.14373.076923.397234.3846057.5047.6125669.121062.2568007.168757.5159754.169089.9188177l.000266.2887117.360119.010583c.389516.011448.456539.036916.598845.2274962.06422.086016.06496.1130405.06496 2.3980076 0 2.2962741-.000422 2.3115821-.06597 2.3999741-.131083.176757-.276954.229641-.635019.230215l-.322943.00052-.0017.244165c-.0033.471068-.04476.712369-.16654.968807-.15205.320175-.394306.562159-.72753.726715-.24587.12142-.257326.123759-.708867.144781-.252428.01176-2.493411.02284-4.9799625.02463l-4.5210039.0033-1.2759622 1.148007c-.7017794.631405-1.2901395 1.147541-1.3074679 1.146971-.01733-.00057-.20163279-.192402-.40956774-.426292zm12.74891307-2.992222c.04609-.0233.125942-.09348.177443-.155963l.09364-.113601.01257-.702064c.01224-.6834879.01462-.7050485.08981-.814783.126473-.1845758.271834-.245687.631549-.2655085l.313163-.017251v-1.5511822-1.5511813l-.307176-.0227262c-.350109-.0258961-.458391-.0628124-.587673-.2003092-.1172-.124652-.140184-.2659318-.144318-.8871431-.004373-.6512631-.02369-.7415963-.190715-.8900229-.117804-.1046874-.151816-.1181453-.298607-.1181453h-.165661l-1.292216 1.157818c-.710719.6368006-1.280596 1.1701082-1.266394 1.1851312.0142.015025.165229-.097076.335616-.2491024.398583-.3556381.615153-.4622265.97785-.481263.45781-.024028.844774.15389 1.119607.5147739.149425.1962111.21292.403202.21292.6941198 0 .2696632-.05424.4390084-.207428.6477016-.06233.084913-.54091.5608274-1.06351 1.0575933-.5226.4967649-1.031817.9819064-1.131593 1.0780916-.174326.1680534-.184387.1730646-.257642.1283576-.041925-.025588-.474022-.4222237-.9602082-.8814124-.4861869-.4591897-.8973595-.8348899-.913718-.8348899-.016356 0-.8596652.7443122-1.8740142 1.6540255l-1.8442704 1.6540259.5739743.0178c.3156869.0097 2.2185484.01143 4.2285838.0037 2.9767727-.01153 3.6701527-.02201 3.7384137-.05652zm-9.9764514-.314351.4095678-.365143.0376517-.257063c.0207089-.141384.1098129-.6044074.1980028-1.0289405.1813671-.8730732.25975-1.2786015.2648954-1.370478.0033786-.0602984-.0189898-.0633789-.519973-.0716267-.4771769-.0078503-.5285438-.0141902-.5804771-.071577-.0727396-.0803713-.0861646-.0519909.5181436-1.0954249.2577606-.4450661.5675688-.9864277.6884646-1.2030258.5579059-.9995597.6218194-1.1030715.6928081-1.1220514.1830425-.0489402.2004543.0364294.1007881.4941683-.0355748.1633929-.0841474.4034078-.1079269.5333673-.0237795.1299585-.0797353.404007-.124346.6089956-.0446077.2049895-.0811066.4118761-.0811066.4597491v.087039l.5584554.021067c.4150282.015661.5698175.032435.6026945.065307.048612.048612.067324.010802-1.1547962 2.3336827-.3281948.6238049-.5928338 1.1387463-.5880859 1.1443143.00477.0056.8003723-.6999706 1.7680537-1.5678645l1.7594194-1.5779902.0186917-.2647901c.0239683-.3394615.1243838-.5536827.3608342-.7697849.2677575-.2447142.4704129-.3271693.8567209-.3485758l.3225972-.0178769.879401-.7876309c.483671-.4331973.872861-.7982647.864867-.8112605-.017987-.0292449-6.3312693-.0312621-8.3436169-.002683l-1.4750044.020957-.110125.096688c-.2062487.1810889-.1952552-.019357-.1952552 3.560191 0 2.2265598.010623 3.2878648.033508 3.3484438.039798.105336.177428.257962.2657908.294752.034661.01443.424533.02713.8663944.02821l.8033833.002.4095688-.365143z" stroke-width=".031505"/></svg>