<svg height="16" viewBox="0 0 15.999999 15.999999" width="16" xmlns="http://www.w3.org/2000/svg"><path d="m7.5286 15.97961c-1.62839-.14474-3.1543-1.08536-4.02377-2.48038l-.10172-.16319h-1.24605-1.24604v-.88552-.88551h.92963c.8755 0 .92895-.002.91815-.0373-.0387-.12583-.0767-.72647-.0767-1.21031v-.5447097h-.88552-.88551v-.88552-.88551h.88296.88296l.0113-.67747c.01-.5900503.0276-.8564903.0693-1.0455403l.0106-.048h-.9286-.92859v-.89619-.89618h1.24484 1.24483l.15327-.2346c.0843-.12903.22871-.32827.32094-.44276.2177-.27025.68479-.72433.93716-.91105l.19896-.1472-.7216-.72184-.72161-.72184.62922-.6295.62923-.62949.96424.96407.96424.96406.24145-.046c.41291-.0787.59045-.0952 1.02027-.0952.42548 0 .59563.0157 1.02134.0943l.24252.0448.96317-.963.96317-.963.62923.62949.62922.6295-.72214.72238-.72215.72237.21017.15754c.26666.19989.70994.63006.92707.89964.0922.11449.23661.31373.32091.44276l.15326.2346h1.24484 1.24483v.89618.89619h-.92859-.9286l.0106.048c.0418.18905.0594.45549.0693 1.0455403l.0113.67747h.88295.88296v.88551.88552h-.88312-.88313l-.0109.6774697c-.01.59007-.0222.78649-.0681 1.05621l-.01.0587h.92766.92765v.88551.88552h-1.24604-1.24605l-.10171.16319c-.78824 1.26467-2.10929 2.15855-3.57278 2.41748-.46512.0823-.96212.1042-1.42672.0629zm2.25889-5.31078v-.8961797h-1.77103-1.77103v.8961797.89618h1.77103 1.77103zm0-3.5527197v-.8855103h-1.77103-1.77103v.8855103.88551h1.77103 1.77103z" stroke-width=".020004"/></svg>