<svg height="16" viewBox="0 0 16 16" width="16" xmlns="http://www.w3.org/2000/svg"><path class="error" d="m7.949686 6.6062267c-2.4929549 0-4.5102213 2.0871718-4.5102213 4.6665163 0 2.579345 2.0172664 4.666516 4.5102213 4.666516 2.492955 0 4.510222-2.087171 4.510222-4.666516 0-2.5793445-2.017267-4.6665163-4.510222-4.6665163zm-2.2551106 3.4998863h4.5102216c.625441 0 1.127555.519514 1.127555 1.16663 0 .647115-.502114 1.166628-1.127555 1.166628h-4.5102216c-.6254415 0-1.1275554-.519513-1.1275554-1.166628 0-.647116.5021139-1.16663 1.1275554-1.16663zm0 0" fill="#e01b24" stroke-width="1.14693"/><path d="m1.5546875.1171875-.1699219.05273438c-.2881123.08996191-.46690408.19868388-.6816406.41210937-.16403048.16302764-.20992653.22660498-.296875.40625-.18395572.38007295-.17419805.13905385-.17382812 3.84960935.0003238 3.2244184.00068716 3.3029318.04492187 3.4785156.05704392.2264118.1311337.3861445.25976563.5664063.20122961.2819977.50825692.4977552.84765622.5957031.0845456.0243987.6524343.0341271 1.9589844.0390625a4.9622278 4.9622278 0 0 1 .5253906-1.0390625c-1.2500907-.0038868-2.1687455-.0094092-2.2050781-.0175781-.1215081-.027323-.2745491-.1601754-.328125-.2851563-.041254-.0962099-.0410156-.2110026-.0410156-3.3476562 0-3.1366534-.0002264-3.2533985.0410156-3.3496094.050966-.118898.1952407-.2488503.3164063-.2851562.1144802-.034343 11.6951502-.0361791 11.8183592-.0019532.044297.0123046.123461.0587317.175781.1035157.172878.1479802.171637.1400758.185547.9003906.01167.6387666.01623.6830545.0625.7714844.026997.0516028.086553.1259315.132813.1640625.133017.1096441.249681.1386718.564453.1386718h.279297v1.5585938 1.5585938h-.300782c-.252098.0004119-.31477.008116-.40039.046875-.126072.0570684-.215524.140253-.277344.2578124-.04429.0842315-.048857.1362079-.060547.7695313l-.011719.6796875-.060546.0917969c-.081081.1224519-.188647.2019388-.3125.2304687-.026257.006045-.588383.01013-1.345704.0136719a4.9622278 4.9622278 0 0 1 .533204 1.0429687c.854614-.0051473 1.006706-.0143241 1.089843-.0371093.432704-.1185709.802142-.4185545.998047-.8085938.127854-.2545377.151443-.3738815.164063-.8144531l.011719-.4121094h.300781c.252887 0 .318156-.007575.410156-.046875.136636-.0583629.223497-.1397748.279297-.2617187.04176-.0913929.042969-.1736657.042969-2.3105469 0-2.4444031.008024-2.3007726-.142579-2.4589844-.127513-.1339531-.225777-.1621094-.582031-.1621094h-.314453v-.3105468c-.000548-.3801437-.027609-.5736034-.105469-.7695313-.189997-.47812137-.565631-.81575653-1.080078-.96874998-.128597-.03824996-.443348-.04101562-6.144531-.04101562zm3.8339844 1.4394531c-.0531055.004543-.0896118.0231304-.1054688.0527344-.013316.0248492-.0474309.0819533-.0761719.1289062-.0562559.0919029-.0912556.1561445-.2070312.3671876-.040894.0745485-.0877076.1512878-.1035156.1699218-.015808.0186417-.0459763.0697923-.0664063.1132813-.020428.043486-.0653445.1292833-.1015625.1914062-.0362158.0621229-.0872973.1534251-.1132812.203125-.0259833.0496983-.0780254.14056-.1152344.2011719-.037212.0606068-.1040855.1774877-.1484375.2597656-.0443628.0822738-.0996439.1760044-.1230469.2089844s-.0429687.0661688-.0429687.0742188c0 .0079971-.0335558.0681775-.0742188.1328124-.0406646.064632-.0875506.1427622-.1035156.1738282-.015965.0310614-.057738.1077989-.09375.1699218-.0360118.0621229-.0848239.1479173-.1074219.1914063-.0225978.043486-.0705169.1237756-.1074218.1796875-.0369062.0559096-.0875623.1436594-.1132813.1933594-.0257265.0496982-.0740689.1403049-.1074219.2011718-.0732699.1336993-.0739987.1426915-.0117187.2089844.0486237.0517551.0538492.0527344.5761719.0527344.4501407 0 .5298296.0040502.5410156.0332031.00719.018791.0024023.047124-.0097656.0625-.012167.0153723-.0332072.1121148-.0488282.2148438-.015622.1027271-.037655.1915756-.046875.1972656-.00922.005691-.0118493.0369304-.0058594.0683594.006006.0314289.0006943.0685294-.0117187.0839843-.012413.0154596-.0334621.1206017-.0488281.2324219s-.037165.2121864-.046875.2246094c-.009675.0124246-.0351117.1403215-.0566406.2832031-.021528.1428816-.0455576.268827-.0546876.28125-.0091649.0124246-.0297318.1092359-.0449218.2148438s-.0375042.2107919-.0488282.2324218c-.0113229.02163-.0304967.1074364-.0429687.1914063-.012472.0839789-.0293594.1954169-.0371094.2480469-.009283.0627029-.002979.1084494.015625.1308594.0162874.0196299.0637183.0332031.1132813.0332031.0681526 0 .0939315-.0115776.1171875-.0546875.0162083-.030043.0850699-.1642473.1542969-.2988282.1331949-.2589327.1827438-.3507106.2011718-.3691406.0062095-.006212.0518626-.0975171.1015625-.203125.0496976-.1056072.0973357-.196945.1035157-.203125.0183071-.0183072.0676671-.1094494.1972656-.3613281.0671233-.130458.1907287-.3697315.2753906-.53125.0846592-.1615174.1926044-.3697017.2402344-.4628906.047633-.0931833.110746-.2088486.140625-.2578125.0498444-.081685.1193821-.2153047.46875-.8945313.0669961-.1302597.1230468-.2479127.1230468-.2617187.0000001-.013806-.0190066-.0406279-.0410156-.0605469-.033907-.030694-.1236887-.0371788-.5859375-.0429687-.3000178-.003749-.5507437-.0135344-.5585937-.0214844-.017467-.0175143.0327666-.4058151.0566406-.4375.009361-.0124246.0300559-.1037291.0449219-.203125.014866-.0993966.0332587-.190702.0429687-.203125.009666-.0124246.0367318-.1458279.0585938-.2949219.021862-.1490939.0478387-.2811939.0585937-.2949219.010754-.0137258.0311059-.1105369.0449219-.2148437.013826-.1043077.0333488-.2004677.0429688-.2128907.0096059-.0124245.0244731-.0659276.0332031-.1191406.022819-.1383216-.0294504-.212645-.140625-.203125zm6.6347661 1.2148438c-.366524 0-.658633.1283466-.97461.4238281-.115468.1079796-.248119.2296344-.292969.2714844l-.080078.0761719-.279297-.2597657c-.4160276-.3872872-.607391-.4849588-.9863278-.5058593-.2623977-.0144734-.4423474.0194451-.6601562.125-.198807.0963469-.4534115.335654-.5488281.515625-.1737734.3277616-.1739598.7770874 0 1.1035156.0772998.1450492.2769685.3441957 1.3613281 1.3691406.217428.2055148.551561.5243678.744141.7070312.192578.1826615.364036.3294719.378906.3261719.014875-.003303.100666-.0770456.191406-.1640625.090734-.0870191.357684-.3410885.59375-.5644531.236066-.2233647.515486-.4891313.621094-.5898437s.353942-.3384916.552734-.5273438c.499589-.4746075.614512-.657379.638672-1.0292969.02269-.3492324-.096619-.6589197-.349609-.9082031-.239329-.2358187-.567036-.3691406-.910156-.3691406z"/></svg>
