<svg height="16" viewBox="0 0 16 16" width="16" xmlns="http://www.w3.org/2000/svg"><path d="m4.6076854 15.644346c-.2609875-.06341-.457361-.176294-.6555259-.37684-.4080763-.41298-.6088038-1.093479-.6088038-2.063945 0-.970252.2005822-1.650381.6088038-2.064317.3264696-.33104.7780293-.471318 1.2830103-.398568.9221121.132844 1.39845.97194 1.3981303 2.462885-.0002188 1.019118-.2027853 1.687533-.6385735 2.107115-.3290815.316844-.8954665.453095-1.3870412.33367zm.7542541-.543637c.4182075-.213555.6371534-.865474.6371534-1.897148 0-1.26411-.3110588-1.919297-.9382122-1.976165-.4964203-.04501-.825285.288557-.9932041 1.007415-.039802.17039-.051098.384555-.051098.96875 0 .793614.022705.976395.1698178 1.367083.086657.230134.3303138.501524.5096085.567613.178655.06585.4987937.0478.6659347-.03755zm2.8082459.543637c-.5542844-.13466-.9623247-.595801-1.1366222-1.284535-.1726175-.682097-.1726175-1.630403 0-2.3125.1390522-.549464.4644091-1.002658.8496478-1.183489.3976788-.18667.958656-.183755 1.3461241.007.6458472.31795.9667309 1.092462.9664649 2.332744-.000218 1.019118-.2027852 1.687533-.6385734 2.107115-.3290815.316844-.8954665.453095-1.3870412.33367zm.7542541-.543637c.4182074-.213555.6371534-.865474.6371534-1.897148 0-1.26411-.3110588-1.919297-.9382122-1.976165-.4964203-.04501-.825285.288557-.9932041 1.007415-.039802.17039-.051098.384555-.051098.96875 0 .793614.022705.976395.1698178 1.367083.086657.230134.3303138.501524.5096085.567613.178655.06585.4987937.0478.6659347-.03755zm2.5188045.51433c.02241-.04151.694643-1.160004 1.493862-2.485535l1.453125-2.410057.254433-.000125.254434-.000125-1.490965 2.476562-1.490965 2.476563-.257331.0091-.25733.0091.04074-.07548zm3.078784.04062c-.358657-.09001-.611822-.332152-.735995-.703944-.183717-.550077-.07001-1.228108.261556-1.559675.339285-.339286.930642-.388987 1.362576-.114518.566108.359728.665989 1.490317.183144 2.073069-.14725.177718-.450896.313446-.727458.32517-.124091.0053-.278811-.0038-.343823-.0201zm.5815-.477067c.220515-.168195.334563-.591842.270896-1.006278-.04249-.276605-.131747-.462644-.274022-.571162-.09351-.07132-.142681-.08509-.303921-.08509-.160814 0-.210498.01383-.302921.08432-.06081.04638-.144085.151847-.185067.234375-.067.134923-.07451.191007-.07451.5563 0 .381844.0051.415941.08507.56757.128943.244505.26424.326612.514234.312073.116932-.0068.191881-.03235.270239-.09211zm-14.94767232.149969v-.265625h.53125.53125002v-1.831513-1.831513l-.070312.01683c-.038672.0093-.26718752.0532-.50781252.09765-.2406255.04446-.4691411.0879-.507813.09653-.069092.01543-.070312.01054-.070312-.281767 0-.163608.00352-.29748.00781-.297492.0043-.000012.2609375-.04913.5703125-.10914.41608172-.08071.64587712-.109179.88281252-.109353l.3203125-.000235v2.125 2.125h.53125.53125v.265625.265625h-1.375-1.37500002zm11.05420232-2.047632c-.198779-.0502-.351751-.145306-.501352-.311699-.204516-.22747-.277102-.438873-.295291-.860013-.02304-.533473.08789-.868133.37321-1.1259.212469-.191953.371443-.246997.712981-.246864.260112.000094.318783.01077.473792.08613.403994.196423.619216.611242.619216 1.193475 0 .596858-.228467 1.024356-.646199 1.209138-.163302.07224-.553932.1018-.736357.05573zm.506076-.428979c.258187-.131654.397202-.482609.369247-.932199-.02396-.385284-.163933-.655372-.389459-.751467-.3357-.14304-.671728.08471-.761331.516015-.05801.279231-.02206.687142.0787.893104.142794.29186.440684.408224.702839.274547zm-10.2955281-3.1926139c-.2310422-.0151419-.318745-.0365537-.48437502-.1182553-.399101-.1968681-.6870779-.5264003-.8305123-.9503563l-.0755224-.2232249-.0180456-2.5350944c-.00993-1.3943019-.00506-2.9870206.010808-3.5393748l.028854-1.0042804.1136484-.2393112c.1982014-.41735585.5463394-.72534973.99357882-.87900813l.2311916-.07943067 6.140625.010161 6.1406246.010161.1875.0696953c.504574.18755417.901981.61590804 1.035645 1.1162935.02379.089064.0419.319128.04211.5350421l.000371.3787921.351563.022381c.392592.024993.520933.069319.625615.2160754l.0697.09771v2.3492609c0 2.3354941-.000384 2.3497779-.06544 2.4375-.129525.1746569-.27507.2277797-.625627.22835l-.316067.0005135-.01987.1449866c-.01093.079743-.01987.2478006-.01987.3734618 0 .4791482-.136548.8133579-.465141 1.1384647-.267476.2646381-.547755.405311-.876357.4398472-.269327.028306-11.7427861.0279669-12.1750071-.0003594zm12.1963191-1.1135053c.05557-.035189.136288-.1117491.179363-.1701337.077-.1043732.07834-.1161426.07968-.7016451.0019-.8351778.0333-.9511681.298452-1.1027896.104271-.059625.168748-.069873.442375-.070312l.320311-.0005146v-1.5897359-1.589736l-.338675-.013954c-.386416-.015921-.512054-.0687366-.634394-.2666872-.065208-.1055086-.071344-.1615937-.090173-.8241722-.022592-.7949751-.025427-.8056749-.253534-.9566288l-.127758-.084546-6.0092563.00217-6.009256.00217-.1116678.069014c-.061417.037956-.1435601.113724-.1825395.1683716l-.070872.09936v3.375 3.375l.068538.1093745c.07201.1149156.1580386.1804363.2898522.220755.043511.013309 2.7722249.021818 6.0638096.018909 5.9725838-.00528 5.9849038-.00542 6.0857448-.069269zm-6.1249043-.6397069c-.2400722-.060792-.5393553-.3233865-.6680381-.586145-.08861-.1809322-.081993-.6630047.01171-.8531547.1124834-.2282615.2736259-.3925953.4855375-.4951531.40693-.1969397.4953737-.1476269.1479812.082509-.4164937.2759125-.5403387.4700375-.5438694.8525059-.00188.2034294.010102.2567484.090738.4038269.1090663.1989362.3381416.3922853.5245338.4427275.071977.019479.2156563.028685.3192866.020458.368602-.029263.6028666-.2260886.7885104-.6624946.1459522-.3431006.2130231-.3884928.1810772-.12255-.0441356.3674181-.29179.7244035-.5958578.8589069-.1599619.070759-.5666294.1028725-.7416094.0585632zm.0128434-.4414922c-.2016131-.0997959-.3021334-.2701187-.3021334-.5119393 0-.1756954.010608-.2066116.1187347-.3460322.2594356-.3345228 3.9251756-4.1184047 3.8266466-3.9499744-.196283.3355362-2.5086766 4.0097819-2.7435804 4.359375-.2416125.3595772-.3221628.4427141-.4700281.4851212-.1632744.046827-.2815197.036767-.4296394-.0365503zm.414075-.40528c.068083-.053553.082213-.087438.074527-.1787056-.017395-.206535-.2721515-.2591641-.3892709-.080418-.065977.1006944-.028617.2283281.08343.2850197.1060262.053646.1342031.050491.2313139-.025896zm-5.044011-.2073534c.00127-.2146378.076711-.8555531.1294626-1.0997916.26411-1.2228262 1.0311844-2.3311875 2.10459-3.0409655.4668416-.308694.9323409-.5145154 1.515625-.6701363.3194662-.085234.3495653-.087544 1.140625-.087544.8708088 0 .9523009.00978 1.4796481.1775773.5187628.1650657 1.3484772.5929845 1.3484772.6954668 0 .022264-.173401.2211981-.385335.4420767l-.3853362.4015975-.3568519-.1775734c-.6071044-.3021022-1.1635481-.4199116-1.8382094-.3891831-1.7661884.0804437-3.2143206 1.3634222-3.5150594 3.1141809-.027752.1615603-.050458.3826738-.050458.4913641v.1976181h-.59375c-.5447657 0-.5937234-.00451-.593428-.054687zm8.6461939.034536c-.01183-.011833-.02152-.095498-.02152-.1859207 0-.7499319-.329743-1.6264397-.853995-2.2700487-.0803-.098585-.146005-.20533-.146005-.2372107 0-.071294.384254-.71956.51871-.8751025l.09797-.1133393.180506.1868243c.833749.8629344 1.339652 2.0421725 1.367172 3.1868241l.0075.3125-.564422.00849c-.310432.00467-.574104-.00119-.585937-.013021z" stroke-width=".03125"/></svg>