<svg height="16" viewBox="0 0 16 16" width="16" xmlns="http://www.w3.org/2000/svg" xmlns:xlink="http://www.w3.org/1999/xlink"><filter id="a" height="100%" width="100%" x="0%" y="0%"><feColorMatrix color-interpolation-filters="sRGB" values="0 0 0 0 1 0 0 0 0 1 0 0 0 0 1 0 0 0 1 0"/></filter><mask id="b"><g filter="url(#a)"><path d="m-1.6-1.6h19.2v19.2h-19.2z" fill-opacity=".5"/></g></mask><clipPath id="c"><path d="m0 0h1600v1200h-1600z"/></clipPath><mask id="d"><g filter="url(#a)"><path d="m-1.6-1.6h19.2v19.2h-19.2z" fill-opacity=".7"/></g></mask><clipPath id="e"><path d="m0 0h1600v1200h-1600z"/></clipPath><mask id="f"><g filter="url(#a)"><path d="m-1.6-1.6h19.2v19.2h-19.2z" fill-opacity=".35"/></g></mask><clipPath id="g"><path d="m0 0h1600v1200h-1600z"/></clipPath><path d="m7.007812 0c-.519531 0-1.035156.136719-1.5.402344-.925781.535156-1.5 1.527344-1.5 2.597656v7h-3.9999995v3c0 1.070312.5742185 2.066406 1.4999995 2.601562.464844.265626.984376.398438 1.5.398438v.007812l7-.003906v-.003906h.015626c.792968 0 1.558593-.316406 2.121093-.875.558594-.5625.878907-1.328125.878907-2.125 0-.058594-.003907-.117188-.015626-.175781v-6.824219h3v-3c0-.796875-.316406-1.558594-.878906-2.121094s-1.324218-.878906-2.121094-.878906zm0 2c.171876 0 .34375.046875.5.136719.3125.175781.5.503906.5.863281v3h3v7h.015626c0 .265625-.105469.519531-.292969.707031-.191407.1875-.445313.292969-.707031.292969-.023438 0-.050782 0-.070313.003906l-4.125.003906c.113281-.320312.179687-.660156.179687-1.007812v-10c0-.359375.1875-.6875.5-.863281.15625-.089844.328126-.136719.5-.136719zm2.820313 0h3.179687c.265626 0 .519532.105469.707032.292969s.292968.441406.292968.707031v1h-4v-1c0-.347656-.066406-.683594-.179687-1zm-7.820313 10h2v1c0 .359375-.1875.6875-.5.867188-.3125.179687-.6875.179687-1 0-.3125-.179688-.5-.507813-.5-.867188zm0 0" fill="#222"/><g mask="url(#b)"><g clip-path="url(#c)" transform="translate(-580 -240)"><path d="m550 182c-.351562.003906-.695312.101562-1 .28125v3.4375c.304688.179688.648438.277344 1 .28125 1.105469 0 2-.894531 2-2s-.894531-2-2-2zm0 5c-.339844 0-.679688.058594-1 .175781v6.824219h4v-4c0-1.65625-1.34375-3-3-3zm0 0"/></g></g><g mask="url(#d)"><g clip-path="url(#e)" transform="translate(-580 -240)"><path d="m569 182v4c1.105469 0 2-.894531 2-2s-.894531-2-2-2zm0 5v7h3v-4c0-1.65625-1.34375-3-3-3zm0 0"/></g></g><g mask="url(#f)"><g clip-path="url(#g)" transform="translate(-580 -240)"><path d="m573 182.269531v3.449219c.613281-.355469.996094-1.007812 1-1.71875 0-.714844-.382812-1.375-1-1.730469zm0 4.90625v6.824219h2v-4c0-1.269531-.800781-2.402344-2-2.824219zm0 0"/></g></g></svg>