<svg height="16" viewBox="0 0 16 16" width="16" xmlns="http://www.w3.org/2000/svg"><path d="m1.3020248 12.697261c-.3393997-.097948-.64630425-.313636-.84753407-.595634-.12863205-.180262-.20163901-.340164-.25868299-.566576-.04423475-.175584-.04525525-.253318-.04557906-3.4777396-.00036993-3.7105592-.011147-3.4704229.1728089-3.8504963.08694856-.1796452.13425363-.2442331.29828427-.4072609.21473673-.2134257.39251865-.3206891.68063125-.4106511l.1694276-.0529031h6.0089408c5.7011885 0 6.0158845.00206 6.1444815.04031.514447.1529936.890665.49005 1.080663.9681719.07786.1959281.104317.3903382.104865.7704823l.000448.3106127h.314387c.356254 0 .454907.027318.582421.1612713.150603.1582119.142332.015278.142332 2.4596835 0 2.1368833-.0016 2.2191593-.04336 2.3105523-.0558.121944-.14378.204379-.280416.262742-.092.0393-.156378.04663-.409266.04663h-.30009l-.0118.412268c-.01262.440572-.03648.558693-.164334.813231-.195905.39004-.565906.689409-.99861.80798-.161239.04419-.246375.04476-6.1783663.04224-5.8097501-.0025-6.0198808-.004-6.161641-.04491zm12.0625402-1.016087c.123853-.02853.230874-.107388.311955-.22984l.06123-.09247.01253-.679402c.01169-.633324.01576-.6855312.06005-.7697627.06182-.1175596.151485-.2008883.277557-.2579568.08562-.038759.148875-.046099.400974-.046511l.299317-.0004955v-1.5587139-1.5587106h-.278348c-.314772 0-.432031-.028711-.565048-.1383552-.04626-.038131-.106191-.1115446-.133188-.1631475-.04627-.08843-.0498-.1327553-.06147-.7715225-.01391-.7603156-.012497-.7534419-.185378-.9014223-.05232-.0447842-.131368-.0914917-.175665-.1037966-.123209-.034226-11.7047672-.0307131-11.8192476.0036306-.1211657.0363063-.2645558.1655889-.3155219.284487-.041242.096211-.042724.2122208-.042724 3.3488773 0 3.1366567.00147 3.2526677.042724 3.3488777.053576.124981.2061272.257688.3276354.285011.1344077.03022 11.6515691.03147 11.7826141.0013zm-9.3520699-.732657c-.018604-.02241-.023501-.06719-.014218-.129893.00775-.05263.024374-.164402.036846-.248381.012472-.08397.03195-.170385.043273-.192015.011324-.02163.033019-.125733.048209-.231341s.035129-.2021807.044294-.2146053c.00913-.012423.034295-.1394935.055823-.2823752.021529-.1428818.047061-.2699507.056736-.2823753.00971-.012423.030174-.1140791.04554-.2258994s.038102-.2159584.050515-.231418c.012413-.015455.017653-.053822.011647-.085251-.00599-.031429-.00343-.061799.00579-.06749.00922-.00569.029516-.094396.045138-.1971232.015621-.1027291.038367-.1993586.050534-.2147309.012168-.015376.01622-.043332.00903-.062123-.011186-.029153-.090609-.034177-.5407502-.034177-.5223232 0-.5281303-.0005259-.5767541-.052281-.06228-.066293-.06174-.076086.01153-.2097854.033353-.060867.081689-.1513284.1074155-.2010267.025719-.0497.076959-.1361052.1138652-.1920149.036905-.055912.085585-.1372347.1081828-.1807207.022598-.043489.070552-.129892.1065638-.1920149.036012-.062123.078539-.1383631.094504-.1694246.015965-.031066.06229-.1093554.1029547-.1739874.040663-.064635.073927-.1240555.073927-.1320527 0-.00805.019154-.041526.042557-.074506s.078843-.1272779.1232058-.2095518c.044352-.082278.1110951-.199179.1483071-.2597859.037209-.060612.088921-.1508564.1149043-.2005547.025984-.0497.076881-.1411872.1130969-.2033101.036218-.062123.082562-.1485288.10299-.1920149.02043-.043489.050073-.094308.065881-.1129497.015808-.018634.062201-.094877.103095-.1694256.1157757-.2110433.1518278-.2745311.2080838-.366434.028741-.046953.063143-.1056963.076459-.1305455.015857-.029604.052163-.047571.1052685-.052114.1111747-.00952.1626363.065528.1398173.2038498-.00873.053213-.023815.106916-.033421.1193406-.00962.012423-.02876.1079326-.042586.2122404-.013816.1043069-.033922.2008795-.044676.2146053-.010755.013728-.037435.1469402-.059297.2960342-.021862.1490941-.047669.2812459-.057335.2936705-.00971.012423-.029751.1039133-.044617.20331-.014866.099396-.034687.1908855-.044048.2033101-.023874.031685-.074438.4199014-.056971.4374157.00785.00795.2598105.017456.5598286.021205.4622492.00579.551593.012344.5855001.043038.022009.019919.040015.047502.040015.061308s-.054822.131671-.1218182.2619309c-.3493682.6792273-.4188132.811594-.4686577.8932791-.029879.048964-.093297.165268-.1409301.2584514-.04763.093189-.1558725.3015774-.2405318.463095-.084662.1615187-.2088443.4004079-.2759677.530866-.1295986.251879-.179553.3431323-.1978602.3614395-.00618.00618-.051957.097703-.1016546.2033103-.0497.105608-.095446.197098-.1016555.20331-.018428.01843-.068491.110005-.2016861.368938-.069227.134581-.1391304.269275-.1553387.299318-.023256.04311-.047679.05463-.1158317.05463-.049563 0-.098457-.01457-.1147444-.0342zm6.2125129-1.1330275c-.19258-.1826636-.528042-.5002638-.7454702-.7057788-1.0843607-1.0249459-1.2832895-1.2253014-1.3605894-1.3703508-.1739599-.3264285-.1740875-.7757663-.000314-1.1035283.0954167-.1799711.3493161-.4184158.5481233-.5147628.217809-.105555.3984571-.1398192.6608551-.1253458.3789371.0209006.5711472.1195947.9871752.5068823l.277981.2587772.08155-.076086c.04485-.04185.176027-.16443.291495-.2724097.315977-.2954818.609509-.4225625.976033-.4225625.343121 0 .670145.1324039.909474.3682228.252991.2492836.372122.5588797.349432.9081125-.02416.3719182-.138092.5560615-.637681 1.0306695-.198792.1888524-.447847.4257693-.553455.5264818-.105608.1007126-.385159.3658659-.621225.5892308-.236066.2233648-.503446.4773143-.59418.5643335-.09074.087017-.17714.1609168-.192015.1642198-.01487.0033-.184611-.1434458-.37719-.3261074z" stroke-width=".02259"/></svg>