<svg height="16" viewBox="0 0 16 16" width="16" xmlns="http://www.w3.org/2000/svg"><path d="m14.574537 2.307952h-3.820581c-1.3145201 0-2.4568683.9100525-2.7438219 2.1945114-.2896864-1.2844589-1.4293017-2.1945114-2.7438221-2.1945114h-3.8178482c-.72421592 0-1.31178739.5875712-1.31178739 1.311787v6.717445c0 .724216.58757147 1.311787 1.31178739 1.311787h2.4514029c2.7930142 0 3.6265458.666826 4.0255479 2.049668.01913.07652.1421103.07652.1639734 0 .4017349-1.382842 1.2352665-2.049668 4.025547-2.049668h2.451403c.724216 0 1.311787-.587571 1.311787-1.311787v-6.7147119c0-.7214827-.582105-1.3090549-1.303588-1.3145201zm-7.8242654 7.2530918c0 .051927-.040994.095649-.095651.095649h-4.3808238c-.051925 0-.095651-.040997-.095651-.095649v-.6258328c0-.051927.040994-.095649.095651-.095649h4.3835565c.051925 0 .095651.040997.095651.095649v.6258328zm0-1.6643306c0 .051927-.040994.095649-.095651.095649h-4.3808238c-.051925 0-.095651-.040997-.095651-.095649v-.6258318c0-.051927.040994-.095649.095651-.095649h4.3835565c.051925 0 .095651.040997.095651.095649v.6258318zm0-1.6643306c0 .051927-.040994.095649-.095651.095649h-4.3808238c-.051925 0-.095651-.040997-.095651-.095649v-.6258317c0-.051927.040994-.095649.095651-.095649h4.3835565c.051925 0 .095651.040997.095651.095649v.6258317zm7.0863844 3.3259281c0 .051927-.041.095649-.09565.095649h-4.3808238c-.051925 0-.095651-.040997-.095651-.095649v-.6258318c0-.051927.040994-.095649.095651-.095649h4.3835568c.05193 0 .09565.040997.09565.095649v.6258318zm0-1.6643306c0 .051927-.041.095649-.09565.095649h-4.3808238c-.051925 0-.095651-.040997-.095651-.095649v-.6258318c0-.051927.040994-.095649.095651-.095649h4.3835568c.05193 0 .09565.040997.09565.095649v.6258318zm0-1.6643306c0 .051927-.041.095649-.09565.095649h-4.3808238c-.051925 0-.095651-.040997-.095651-.095649v-.6230986c0-.051927.040994-.095649.095651-.095649h4.3835568c.05193 0 .09565.040997.09565.095649v.6230986z" stroke-width=".999995"/></svg>