<svg height="16" viewBox="0 0 16 16" width="16" xmlns="http://www.w3.org/2000/svg"><path d="m4.431514 13.946514c-.670358-.623264-1.929074-1.828429-2.234363-2.139303-.378077-.384992-.45138-.506817-.511015-.849266-.152798-.877428.742057-1.7170778 1.655917-1.5537615.308382.05511.543485.178802.872896.459244.15917.135509.328371.2780685.376002.3167995l.0866.07042.338155-.2977345c.540334-.475744.942901-.629628 1.434676-.548413.699246.115478 1.208611.6813445 1.208887 1.3429785.000156.350079-.142081.71832-.369268.95608-.153489.160631-2.543563 2.4049-2.588358 2.430456-.02866.01635-.116304-.04448-.270132-.1875zm6.416812-.166384c-.487152-.438408-1.474792-1.373157-1.964686-1.859471-.343226-.340717-.430753-.447021-.515625-.62624-.09426-.199043-.102225-.240207-.102225-.528361 0-.286778.0082-.329884.100045-.523704.350161-.7392175 1.251994-1.0431774 1.972195-.6647215.122249.06424.345876.23362.534888.405136l.324808.2947425.284652-.257089c.355508-.3210855.537915-.4473275.758222-.5247585.697686-.2452176 1.486161.08469 1.803878.7547695.08701.183518.09619.231782.09509.5-.002.478115-.05343.574694-.60514 1.135694-.450555.458143-2.155669 2.077754-2.27667 2.162506-.05785.04052-.0881.02068-.409432-.268503zm-.07461-5.7019347c-1.190394-.2257906-1.891961-1.2685072-2.057464-3.0579419-.04636-.5012631-.0205-1.6041506.04772-2.0351192.231552-1.4628069.876375-2.3499224 1.888521-2.5981372.316814-.077694.963169-.078859 1.253924-.00226.384712.1013527.708491.2868657.98747.5657814.485588.4854784.753476 1.1086697.90805 2.112413.07879.5116266.07909 1.8073105.000537 2.3124999-.15661 1.0071865-.423307 1.6272437-.908587 2.1124131-.199507.1994625-.309335.2804491-.51872.3825019-.146093.071205-.35.1515359-.453125.1785122-.269996.070628-.85221.085502-1.148324.029336zm1.044382-.8809706c.481377-.225421.79911-.7757528.944931-1.6366788.118332-.6986293.118439-1.9816921.000219-2.6827269-.144408-.8563888-.465105-1.4097742-.950583-1.6403064-.186904-.088753-.229328-.096455-.53125-.096455-.302242 0-.344275.00765-.532858.097017-.489177.2318071-.802032.7735334-.949501 1.644114-.122426.722746-.122426 1.9512416 0 2.6739875.140191.827611.450544 1.3941472.884073 1.6138325.23017.1166363.35975.1419594.666219.130196.22126-.00849.307377-.027412.46875-.1029798zm-8.466319.7172703c.0083-.030078.579506-1.5227481 1.26927-3.3170444.689764-1.7942964 1.254116-3.2743745 1.254116-3.2890625s-.808594-.026706-1.796875-.026706h-1.796875v-.4218746-.421875h2.421875 2.421875v.2044464c0 .1943912-.06724.3795605-1.367187 3.7649483l-1.367188 3.5605019-.527082.0006781c-.487103.000625-.525933-.00347-.511929-.054011z" stroke-width=".03125"/></svg>