<svg height="16" viewBox="0 0 16 16" width="16" xmlns="http://www.w3.org/2000/svg"><path d="m3.876778 15.1115c-.0324-.03904.0063-.282176.215519-1.353142.140259-.718053.262138-1.33016.270841-1.360238.01453-.05022-.02076-.05484-.431594-.05649-.780463-.0031-.824315-.02931-.6369-.380092.237491-.444507 1.712405-3.0104084 1.787838-3.1102943.08251-.1092566.167573-.1296284.229533-.054971.04902.059068.03796.1323079-.171969 1.1385841-.0917.4395602-.171328.8554502-.17695.9242002l-.01022.125.15625.0207c.08594.01139.340856.02193.566486.02344.466678.0031.512323.02242.453296.191746-.03297.09458-.251556.515701-1.231967 2.373492-.84043 1.592537-.813333 1.545768-.901655 1.556267-.04345.0052-.09678-.01202-.118507-.0382zm6.701097-1.336622c-.540404-.493684-1.800205-1.693955-2.10119-2.001901-.315224-.322515-.423645-.509386-.484077-.834344-.117165-.630019.392919-1.3427408 1.073225-1.4995792.324055-.074708.73664-.016627 1.03485.1456787.08387.045647.29903.2139338.478139.3739719.179108.1600376.334406.2909776.345107.2909776.0107 0 .166031-.131522.345179-.2922711.179149-.160749.393274-.3290362.475835-.3739715.317839-.1729894.744124-.2236706 1.069448-.1271472.499003.1480541.845586.4675556.999047.9209808.08594.253915.0725.580449-.03527.856784-.08866.22734-.332522.486799-1.481548 1.576275-1.078255 1.022373-1.329892 1.251994-1.370877 1.25094-.01945-.000501-.175993-.129378-.347868-.286394zm.195426-5.728683c-1.190394-.2257906-1.891961-1.2685072-2.057464-3.0579419-.04636-.5012631-.0205-1.6041506.04772-2.0351192.231552-1.4628069.876375-2.34992239 1.888521-2.59813714.316814-.0776942.963169-.0788585 1.253924-.002259.384712.10135272.708491.28686572.98747.56578144.485588.4854783.753476 1.1086696.90805 2.1124129.07879.5116266.07909 1.8073105.000537 2.3124999-.15661 1.0071865-.423307 1.6272437-.908587 2.1124131-.199507.1994625-.309335.2804491-.51872.3825019-.146093.071205-.35.1515359-.453125.1785122-.269996.070628-.85221.085502-1.148324.029336zm1.044382-.8809706c.481377-.2254209.79911-.7757528.944931-1.6366788.118332-.6986293.118439-1.9816921.000219-2.6827269-.144408-.8563888-.465105-1.4097742-.950583-1.6403064-.186904-.0887525-.229328-.0964551-.53125-.0964551-.302242 0-.344275.00765-.532858.097017-.489177.2318071-.802031.7735334-.949501 1.644114-.122426.722746-.122426 1.9512416 0 2.6739875.140191.827611.450544 1.3941472.884073 1.6138325.23017.1166363.35975.1419594.666219.130196.22126-.00849.307377-.027412.46875-.1029798zm-8.466319.7172703c.0083-.030078.579506-1.5227481 1.26927-3.3170444.689764-1.7942964 1.254116-3.2743745 1.254116-3.2890625s-.808594-.026706-1.796875-.026706h-1.796875v-.42187497-.421875h2.421875 2.421875v.20444641c0 .19439125-.06724.37956053-1.367187 3.76494826l-1.367188 3.5605019-.527082.0006781c-.487103.000625-.525933-.00347-.511929-.0540118z" stroke-width=".03125"/></svg>