<svg height="16" viewBox="0 0 16 16" width="16" xmlns="http://www.w3.org/2000/svg"><path d="m4.4315142 13.946513c-.6703578-.623264-1.9290746-1.828429-2.2343633-2.139303-.3780766-.384992-.4513802-.506817-.5110151-.849266-.1527974-.877428.7420571-1.7170771 1.6559174-1.5537612.3083816.055111.5434847.178803.8728953.459245.15917.1355092.3283713.2780672.3760029.3167982l.086603.07042.3381541-.297734c.5403347-.4757442.9429016-.6296276 1.434677-.5484126.699245.1154774 1.208611.6813436 1.208886 1.3429776.000156.350079-.142081.71832-.369268.95608-.153488.160631-2.5435625 2.4049-2.5883575 2.430456-.028664.01635-.1163043-.04448-.2701318-.1875zm6.4168118-.166384c-.487151-.438408-1.4747925-1.373157-1.9646865-1.859471-.343225-.340717-.430753-.447021-.515625-.62624-.09426-.199043-.102224-.240207-.102224-.528361 0-.286778.0082-.329884.100045-.523704.35016-.7392172 1.251993-1.0431767 1.9721955-.6647212.122248.06424.345875.23362.534887.4051362l.324808.294742.284652-.257089c.355508-.3210842.537915-.4473262.758222-.5247582.697686-.2452172 1.486161.08469 1.803878.7547692.08701.183518.09619.231782.09509.5-.002.478115-.05343.574694-.60514 1.135694-.450555.458143-2.155669 2.077754-2.27667 2.162506-.05785.04052-.0881.02068-.409432-.268503zm-7.1450359-5.6757068c-.3411397-.028665-.8322955-.1232281-1.3671875-.2632272l-.1171875-.0306719v-.4987953c0-.2743375.012082-.4987956.026849-.4987956s.1307826.047745.2578125.1061009c.5606242.2575419 1.2045007.3829238 1.8090885.3522832.5953084-.0301707.9719937-.1760754 1.3006478-.503791.3212688-.3203515.4593476-.68245.4593476-1.2045931 0-.7053569-.3115488-1.2359731-.8849954-1.5072841-.3491744-.1652028-.5150747-.1960231-1.046875-.1944856-.4076875.0011781-.5127922.0126591-.8068422.0881319-.1859506.0477272-.4355601.1264419-.5546875.1749209l-.2165953.0881441v-1.8872136-1.88721357h1.984375 1.9843754v.421875.42187497h-1.5312504-1.53125v.9254218.925422l.085937-.0165c.047266-.00908.1984375-.038305.3359375-.064957.3157575-.061202.6672759-.062882 1.046875-.005 1.0758775.1640438 1.7990409.7776691 2.0683429 1.7550482.05741.2083703.06777.3278078.0674.7774425-.0004.4884888-.0073.5538881-.08579.8125-.12875.4242256-.276985.6770509-.570047.9722522-.214886.2164544-.304814.2811466-.5781248.4158859-.3550669.1750447-.6442531.2589713-1.0736556.3115925-.2605688.031932-.7673409.038434-1.0625.013632zm7.0704259-.026227c-1.1903935-.2257908-1.8919605-1.2685074-2.0574645-3.0579421-.04636-.5012631-.0205-1.6041506.04772-2.0351192.231553-1.4628069.876375-2.34992237 1.8885215-2.59813714.316814-.0776942.963169-.0788585 1.253924-.002259.384712.10135277.708491.28686577.98747.56578147.485588.48547827.753476 1.10866957.90805 2.11241287.07879.5116266.07909 1.8073105.000537 2.3124999-.15661 1.0071865-.423307 1.6272437-.908587 2.1124131-.199507.1994625-.309335.2804491-.51872.3825019-.146093.071205-.35.1515359-.453125.1785122-.269996.070628-.85221.085502-1.148324.029336zm1.044382-.8809708c.481377-.225421.79911-.7757528.944931-1.6366788.118332-.6986293.118439-1.9816921.000219-2.6827269-.144408-.8563888-.465105-1.4097742-.950583-1.6403064-.186904-.088753-.229328-.096455-.53125-.096455-.302242 0-.344275.00765-.532858.097017-.489176.2318071-.8020315.7735334-.9495005 1.644114-.122427.722746-.122427 1.9512416 0 2.6739875.14019.827611.4505445 1.3941472.8840725 1.6138325.23017.1166363.35975.1419594.666219.130196.22126-.00849.307377-.027412.46875-.1029799z" stroke-width=".03125"/></svg>