<svg height="16" viewBox="0 0 16 16" width="16" xmlns="http://www.w3.org/2000/svg"><path d="m4.4265829 15.729599c-.011458-.01146-.020833-.426302-.020833-.921875v-.901042h-.203125-.203125v-.3125-.3125h-.8915073-.8915068l.00869-.429687.00869-.429688.8828125-.0083.8828212-.0083v-.342777-.342777l-.8828125-.0083-.8828125-.0083-.00869-.429199-.00869-.4292.8836912-.0083.8836912-.0083.00894-.304687.00894-.304688h.1707492.1707434v-.9374997-.9375h.4374999.4375v.9375.9374997h.34375.34375v-.9374987-.9375h.453125.453125v.9375.9374997h.34375.34375v-.9374997-.9375h.4375.4375v.9375.9374997h.34375.34375v-.9374997-.9375h.4375.4375v.9375.9374997h.3437496.34375v-.9374997-.9375h.4375.4375v.9375.9374997h.203125.203125v.328125.328125h.875.875v.4375.4375h-.875-.875v.34375.34375h.875.875v.4375.4375h-.873827-.873828l-.009.289063-.009.289062-.164062.0094-.164063.0094v.920333.920242h-.43747-.4375v-.921875-.921875h-.34375-.3437496v.921875.921875h-.4375-.4375v-.921875-.921875h-.34375-.34375v.921875.921875h-.4375-.4375v-.921875-.921875h-.34375-.34375v.921875.921875h-.4375-.4375v-.921875-.921875h-.34375-.34375v.921875.921875h-.432292c-.23776 0-.4416663-.0094-.4531245-.02083zm6.5416661-3.666667v-.90625h-3.0312496-3.03125v.90625.90625h3.03125 3.0312496zm-3.6951986-3.9847369c-1.190394-.2257906-1.891961-1.2685072-2.057464-3.0579419-.04636-.5012631-.0205-1.6041506.04772-2.0351192.231553-1.4628069.876375-2.34992249 1.888522-2.59813724.316814-.0776942.963169-.0788585 1.253924-.002259.384712.10135272.708491.28686572.98747.56578152.485588.48547842.7534756 1.10866972.9080496 2.11241292.07879.5116266.07909 1.8073106.000538 2.3125-.156611 1.0071861-.4233076 1.6272434-.9085876 2.1124127-.199507.1994625-.309335.2804491-.51872.3825019-.146093.071205-.35.151536-.453125.1785123-.269996.070628-.85221.085502-1.148324.029336zm1.044382-.8809706c.481377-.225421.79911-.7757528.944931-1.6366788.118332-.6986293.118439-1.9816921.000219-2.6827269-.144408-.8563888-.465105-1.4097742-.950583-1.6403064-.186904-.088753-.229328-.096455-.53125-.096455-.302242 0-.344275.00765-.532858.097017-.631704.2993468-.950191 1.0610044-1.030499 2.4644266-.03365.5881212.001 1.3814781.081 1.8536749.14019.827611.450544 1.3941472.884072 1.6138325.230171.1166363.359751.1419594.666219.130196.221261-.00849.307377-.027412.468751-.1029798zm4.5181176.8809706c-1.190394-.2257906-1.891961-1.2685072-2.057464-3.0579419-.04636-.5012631-.0205-1.6041506.04772-2.0351192.231553-1.4628069.876375-2.34992249 1.888522-2.59813724.316814-.0776942.963169-.0788585 1.253924-.002259.384712.10135272.708491.28686572.98747.56578142.485588.48547842.753476 1.10866972.90805 2.11241292.07879.5116266.07909 1.8073106.000538 2.3125-.156614 1.0071865-.423311 1.6272437-.908591 2.1124131-.199507.1994625-.309335.2804491-.51872.3825019-.146093.071205-.35.1515359-.453125.1785122-.269996.070628-.85221.085502-1.148324.029336zm1.044382-.8809706c.481377-.225421.79911-.7757528.944931-1.6366788.118332-.6986293.118439-1.9816921.000219-2.6827269-.144408-.8563888-.465105-1.4097742-.950583-1.6403064-.186904-.088753-.229328-.096455-.53125-.096455-.302242 0-.344275.00765-.532858.097017-.489177.2318071-.802032.7735334-.949501 1.644114-.122427.722746-.122427 1.9512416 0 2.6739875.140191.827611.450544 1.3941472.884073 1.6138325.23017.1166363.35975.1419594.666219.130196.22126-.00849.307377-.027412.46875-.1029799zm-13.6616825.3500828v-.421875h.828125.828125v-2.8783878-2.8783877l-.075067.01884c-.0412863.0103628-.4174582.0891758-.8359371.1751405-.418479.0859648-.7925115.1636539-.8311834.1726427l-.070312.016343v-.4667558-.46675597l.164062-.03555244c1.454534-.31519831 1.6381829-.34462656 2.1506643-.34462656h.4977732v3.34375007 3.34375h.828125.828125v.421875.421875h-2.15625-2.15625z" stroke-width=".03125"/></svg>