<svg height="16" viewBox="0 0 16 16" width="16" xmlns="http://www.w3.org/2000/svg"><path d="m3.8775267 15.111501c-.032401-.03904.00632-.282176.2155191-1.353142.140259-.718053.2621375-1.33016.2708406-1.360238.01453-.05022-.020756-.05484-.4315941-.05649-.7804628-.0031-.8243147-.02931-.6369-.380092.2374913-.444507 1.7124045-3.0104094 1.7878385-3.1102953.08251-.1092566.167572-.1296284.229532-.054971.04902.059068.03796.1323079-.171968 1.138584-.0917.4395613-.171328.8554513-.17695.9242013l-.01022.125.15625.0207c.08594.01139.340856.02193.566486.02344.466678.0031.512322.02242.453296.191746-.03297.09458-.251556.515701-1.231967 2.373492-.8404297 1.592537-.8133328 1.545768-.901655 1.556267-.043455.0052-.096784-.01202-.1185072-.0382zm6.7010973-1.336622c-.540404-.493684-1.8002062-1.693955-2.1011912-2.001901-.315224-.322515-.423644-.509386-.484076-.834344-.117165-.630019.392919-1.3427413 1.073225-1.4995803.324055-.07471.73664-.01663 1.0348502.145679.08387.04565.29903.213934.478139.373972.179108.1600383.334406.2909783.345107.2909783.0107 0 .166031-.131522.345179-.2922723.179149-.160749.393274-.329036.475835-.373971.317839-.17299.744124-.2236709 1.069448-.127147.499003.148054.845586.467555.999047.9209813.08594.253915.0725.580449-.03527.856784-.08866.22734-.332522.486799-1.481548 1.576275-1.078255 1.022373-1.329892 1.251994-1.370877 1.25094-.01945-.000501-.175993-.129378-.347868-.286394zm-6.4109823-5.7123071c-.8725775-.1233638-1.4860442-.5094716-1.7880729-1.1253897-.1671915-.3409488-.2290812-.6384422-.2275408-1.09375.0014072-.4159488.0499478-.6331897.2088321-.9346188.2502886-.4748378.5576792-.7080306 1.2646388-.9593809.0282297-.0100369-.0172922-.0393375-.1144431-.0736628-.5546295-.1959619-.933021-.5590519-1.1084089-1.0635875-.0578758-.1664904-.0707356-.2707581-.071303-.578125-.0010573-.5728291.1373968-.9437739.4777489-1.27997981.2998942-.2962407.5793148-.4509252 1.0327199-.5717035.2664856-.0709865.3610009-.0799112.8618111-.0813769.482077-.001411.602712.008378.84375.0684629.80583.2008752 1.354653.69975401 1.518398 1.38022231.06054.2515674.05286.7570645-.01494.9830403-.142657.4755266-.456041.8391425-.904235 1.0491738-.145578.06822-.290036.1240359-.321019.1240359-.09109 0-.01312.046725.206167.1235453.610891.2140056 1.051756.6939625 1.206769 1.3137747.07275.2908747.04632.9624069-.04981 1.265805-.109523.345655-.246398.574575-.485808.8125-.308228.3063156-.655885.4814937-1.186773.5979922-.256615.056312-1.070759.082287-1.3484821.043023zm.9975391-.8275547c.77001-.1631684 1.217467-.8452956 1.090554-1.6624991-.124306-.8004225-.72337-1.2331903-1.6459693-1.1890584-.8643563.0413459-1.3882753.5198984-1.442935 1.3179906-.053962.7878994.3615484 1.373885 1.0855059 1.5308663.2644262.057338.6496274.058477.9128444.0027zm.171058-3.7696512c.262226-.096434.47094-.2602179.594814-.4667671.135273-.2255541.17007-.3668315.16907-.6864167-.002266-.7231783-.453112-1.1623977-1.242145-1.2101064-.6830676-.0413016-1.2219789.2083415-1.4209983.6582576-.1413084.3194515-.141544.8149637-.0005375 1.1337296.1320019.298412.482641.5562961.8612507.633423.2633959.053656.8131401.020774 1.0385461-.06212zm5.4378112 4.580829c-1.1903942-.2257906-1.8919612-1.2685072-2.0574642-3.0579419-.04636-.5012631-.0205-1.6041506.04772-2.0351192.231553-1.4628069.876375-2.34992241 1.8885222-2.59813714.316814-.0776942.963169-.0788585 1.253924-.002259.384712.10135273.708491.28686573.98747.56578143.485588.48547831.753476 1.10866961.90805 2.11241291.07879.5116266.07909 1.8073105.000538 2.3124999-.156611 1.0071865-.423308 1.6272437-.908588 2.1124131-.199507.1994625-.309335.2804491-.51872.3825019-.146093.071205-.35.1515359-.453125.1785122-.269996.070628-.85221.085502-1.148324.029336zm1.044382-.8809706c.481377-.2254209.79911-.7757528.944931-1.6366788.118332-.6986293.118439-1.9816921.000219-2.6827269-.144408-.8563888-.465105-1.4097742-.950583-1.6403064-.186904-.088753-.229328-.096455-.53125-.096455-.302242 0-.344275.00765-.532858.097017-.489177.2318071-.8020322.7735334-.9495012 1.644114-.122427.722746-.122427 1.9512416 0 2.6739875.140191.827611.4505442 1.3941472.8840732 1.6138325.23017.1166363.35975.1419594.666219.130196.22126-.00849.307377-.027412.46875-.1029799z" stroke-width=".03125"/></svg>