<svg height="16" viewBox="0 0 16 16" width="16" xmlns="http://www.w3.org/2000/svg"><path d="m4.6076854 15.644346c-.2609875-.06341-.457361-.176294-.6555259-.37684-.4080763-.41298-.6088038-1.093479-.6088038-2.063945 0-.970252.2005822-1.650381.6088038-2.064317.3264696-.33104.7780293-.471318 1.2830103-.398568.9221121.132844 1.39845.97194 1.3981303 2.462885-.0002188 1.019118-.2027853 1.687533-.6385735 2.107115-.3290815.316844-.8954665.453095-1.3870412.33367zm.7542541-.543637c.4182075-.213555.6371534-.865474.6371534-1.897148 0-1.26411-.3110588-1.919297-.9382122-1.976165-.4964203-.04501-.825285.288557-.9932041 1.007415-.039802.17039-.051098.384555-.051098.96875 0 .793614.022705.976395.1698178 1.367083.086657.230134.3303138.501524.5096085.567613.178655.06585.4987937.0478.6659347-.03755zm2.8082459.543637c-.5542844-.13466-.9623247-.595801-1.1366222-1.284535-.1726175-.682097-.1726175-1.630403 0-2.3125.1390522-.549464.4644091-1.002658.8496478-1.183489.3976788-.18667.958656-.183755 1.3461241.007.6458472.31795.9667309 1.092462.9664649 2.332744-.000218 1.019118-.2027852 1.687533-.6385734 2.107115-.3290815.316844-.8954665.453095-1.3870412.33367zm.7542541-.543637c.4182074-.213555.6371534-.865474.6371534-1.897148 0-1.26411-.3110588-1.919297-.9382122-1.976165-.4964203-.04501-.825285.288557-.9932041 1.007415-.039802.17039-.051098.384555-.051098.96875 0 .793614.022705.976395.1698178 1.367083.086657.230134.3303138.501524.5096085.567613.178655.06585.4987937.0478.6659347-.03755zm2.5188045.51433c.02241-.04151.694643-1.160004 1.493862-2.485535l1.453125-2.410057.254433-.000125.254434-.000125-1.490965 2.476562-1.490965 2.476563-.257331.0091-.25733.0091.04074-.07548zm3.078784.04062c-.358657-.09001-.611822-.332152-.735995-.703944-.183717-.550077-.07001-1.228108.261556-1.559675.339285-.339286.930642-.388987 1.362576-.114518.566108.359728.665989 1.490317.183144 2.073069-.14725.177718-.450896.313446-.727458.32517-.124091.0053-.278811-.0038-.343823-.0201zm.5815-.477067c.220515-.168195.334563-.591842.270896-1.006278-.04249-.276605-.131747-.462644-.274022-.571162-.09351-.07132-.142681-.08509-.303921-.08509-.160814 0-.210498.01383-.302921.08432-.06081.04638-.144085.151847-.185067.234375-.067.134923-.07451.191007-.07451.5563 0 .381844.0051.415941.08507.56757.128943.244505.26424.326612.514234.312073.116932-.0068.191881-.03235.270239-.09211zm-14.94767232.149969v-.265625h.53125.53125002v-1.831513-1.831513l-.070312.01683c-.038672.0093-.26718752.0532-.50781252.09765-.2406255.04446-.4691411.0879-.507813.09653-.069092.01543-.070312.01054-.070312-.281767 0-.163608.00352-.29748.00781-.297492.0043-.000012.2609375-.04913.5703125-.10914.41608172-.08071.64587712-.109179.88281252-.109353l.3203125-.000235v2.125 2.125h.53125.53125v.265625.265625h-1.375-1.37500002zm11.05420232-2.047632c-.198779-.0502-.351751-.145306-.501352-.311699-.204516-.22747-.277102-.438873-.295291-.860013-.02304-.533473.08789-.868133.37321-1.1259.212469-.191953.371443-.246997.712981-.246864.260112.000094.318783.01077.473792.08613.403994.196423.619216.611242.619216 1.193475 0 .596858-.228467 1.024356-.646199 1.209138-.163302.07224-.553932.1018-.736357.05573zm.506076-.428979c.258187-.131654.397202-.482609.369247-.932199-.02396-.385284-.163933-.655372-.389459-.751467-.3357-.14304-.671728.08471-.761331.516015-.05801.279231-.02206.687142.0787.893104.142794.29186.440684.408224.702839.274547zm-10.2955281-3.1926139c-.2310422-.0151419-.318745-.0365537-.48437502-.1182553-.399101-.1968681-.6870779-.5264003-.8305123-.9503563l-.075522-.2232249-.018046-2.5350944c-.00993-1.3943019-.00506-2.9870206.010808-3.5393748l.028853-1.0042804.1136484-.2393112c.1982014-.41735582.5463395-.7253497.99357882-.8790081l.2311916-.0794307 6.140625.010161 6.1406246.010161.1875.0696953c.504574.18755417.901981.61590804 1.035645 1.1162935.02379.089064.0419.319128.04211.5350421l.000371.3787921.351563.022381c.392592.024993.520933.069319.625615.2160754l.0697.09771v2.3492609c0 2.3354941-.000384 2.3497779-.06544 2.4375-.129525.1746569-.27507.2277797-.625627.22835l-.316067.0005135-.01987.1449866c-.01093.079743-.01987.2478006-.01987.3734618 0 .4791482-.136548.8133579-.465141 1.1384647-.267476.2646381-.547755.405311-.876357.4398472-.269325.028306-11.7427834.027967-12.1750041-.00036zm12.1963191-1.1135053c.05557-.035189.136288-.1117491.179363-.1701337.077-.1043732.07834-.1161426.07968-.7016451.0019-.8351778.0333-.9511681.298452-1.1027896.104271-.059625.168748-.069873.442375-.070312l.320311-.0005146v-1.5897359-1.589736l-.338675-.013954c-.386416-.015921-.512054-.0687366-.634394-.2666872-.065208-.1055086-.071344-.1615937-.090173-.8241722-.022592-.7949751-.025427-.8056749-.253534-.9566288l-.127758-.084546-6.0092563.00217-6.009256.00217-.1116678.069014c-.061417.037956-.1435601.113724-.1825395.1683716l-.070872.09936v3.375 3.375l.068538.1093745c.07201.1149156.1580386.1804363.2898522.220755.043511.013309 2.7722249.021818 6.0638096.018909 5.9725838-.00528 5.9849038-.00542 6.0857448-.069269zm-9.1871196-1.0678747-.00832-.8368953-.1784481-.00934-.1784485-.00934-.00905-.25629-.00905-.25629-.7890625-.00835-.7890625-.00835v-.38954-.3895519l.7890625-.00835.7890625-.00835v-.296875-.296875l-.79002-.00835-.79002-.00835.00877-.382274.00877-.382276.78125-.015625.78125-.015625.00908-.2578125.00908-.2578125h.1549862.1549863v-.84375-.84375h.390625.390625v.8448835.8448815l.3046875-.00894.3046875-.00894.00832-.8359375.00832-.8359375h.3901144.3901147v.84375.84375h.296875.296875v-.84375-.84375h.390625.390625v.7943111c0 .4368755.00854.816563.018968.8437499.015434.04022.073665.049431.3125.049431h.293532v-.8437501-.84375h.390625.390625v.8448816.8448815l.3046875-.00894.3046875-.00894.00832-.8359375.00832-.8359375h.3901196.390115v.84375.84375h.171875.171875v.28125.28125h.78125.78125v.3900791.390079l-.773437.00836-.773438.00836-.0089.3046875-.0089.3046875h.782381.782382v.390071.390079l-.773437.00836-.773438.00836-.0091.2404534-.0091.2404535-.131529.00955-.131529.00955-.01563.828125-.01563.828125-.3823.00877-.382301.00877-.0083-.836895-.0083-.8368953h-.2969935-.296875l-.00832.8368953-.00832.836895-.3823097-.00878-.3823003-.00877-.015625-.828125-.015625-.828125h-.296875-.296875l-.00832.8368953-.00832.836895-.3823097-.00877-.3823003-.00877-.00832-.8359375-.00832-.8359375h-.2958698-.2958541l-.00832.8359375-.00832.8359375-.3823003.00877-.3823003.00877-.00832-.836895-.00833-.836895h-.29688-.296875l-.015625.828125-.015625.828125-.3823003.00877-.3823003.00877zm5.8510506-2.4775203v-.8125h-2.7031253-2.703125v.8125.8125h2.703125 2.7031253z" stroke-width=".03125"/></svg>