<svg height="16" viewBox="0 0 16 16" width="16" xmlns="http://www.w3.org/2000/svg"><path d="m4.4315142 13.946513c-.6703578-.623264-1.9290746-1.828429-2.2343633-2.139303-.3780766-.384992-.4513802-.506817-.5110151-.849266-.1527974-.877428.7420571-1.7170771 1.6559174-1.5537612.3083816.055111.5434847.1788021.8728953.4592448.15917.135508.3283713.2780674.3760029.3167984l.086603.07042.3381541-.2977344c.5403347-.4757438.9429016-.6296272 1.4346766-.5484122.6992456.1154778 1.2086116.6813436 1.2088866 1.3429776.000156.350079-.142081.71832-.369268.95608-.153489.160631-2.5435627 2.4049-2.5883577 2.430456-.028664.01635-.1163043-.04448-.2701318-.1875zm6.4168118-.166384c-.487152-.438408-1.474792-1.373157-1.9646863-1.859471-.343226-.340717-.430753-.447021-.515625-.62624-.09426-.199043-.102225-.240207-.102225-.528361 0-.286778.0082-.329884.100046-.523704.35016-.739217 1.2519933-1.0431767 1.9721943-.6647211.122249.06424.345876.2336197.534888.4051357l.324808.2947424.284652-.257089c.355508-.3210844.537915-.4473261.758222-.5247582.697686-.2452172 1.486161.084693 1.803878.7547692.08701.183518.09619.231782.09509.5-.002.478115-.05343.574694-.60514 1.135694-.450555.458143-2.155669 2.077754-2.27667 2.162506-.05785.04052-.0881.02068-.409432-.268503zm-6.4731609-5.6879655c-1.0141091-.1780069-1.6964267-.8883976-2.0144101-2.097291-.1423565-.5412041-.1861627-.9489512-.1857349-1.7288153.0004238-.7724231.0364974-1.0783381.1895719-1.6076294.283897-.9816407.8696184-1.72173823 1.6467722-2.08080539.4017753-.18563152.7129328-.24597402 1.2700509-.24629974.528745-.00030938.78805.04043 1.3046876.20497812l.289062.0920659v.45165771c0 .3031907-.01112.4516578-.03383.4516578-.0186 0-.130091-.042252-.24775-.093892-.117653-.0516413-.3520415-.1318851-.5208571-.17832-.2682219-.0737778-.3640928-.0844146-.7600625-.0843278-.4123047.0000904-.4751619.0077626-.6977447.0851652-.5958537.2072064-.9849022.6338891-1.2220084 1.3402177-.0924931.2755331-.2052469.8937522-.2052469 1.1253522v.1567347l.1383184-.1676525c.2397479-.2905928.5903241-.5146981 1.0023066-.6407234.2772491-.08481.9702362-.076781 1.3125.015208.8246284.2216312 1.3950416.8040009 1.6115826 1.6453631.09231.3586788.114605 1.0039325.04787 1.3855875-.170729.9763823-.799361 1.6750726-1.7219526 1.9138576-.2884891.0746666-.9313756.1056113-1.203125.057911zm.8582825-.8271347c.4811187-.1253157.7983441-.4390457.9927816-.9818435.0795318-.2220231.1113681-.8951747.0570803-1.2069178-.1104569-.6342906-.5594507-1.1266803-1.1233472-1.2319203-.8283097-.1545875-1.5109006.273555-1.725941 1.0825644-.084169.3166525-.092171.8965797-.016672 1.2082644.1410396.5822631.5114665.9905859 1.0235859 1.1283025.2234072.060078.565244.060746.7925124.00155zm5.5402684.8131662c-1.190393-.2257906-1.8919613-1.2685072-2.0574643-3.0579419-.04636-.5012631-.0205-1.6041506.04772-2.0351192.231553-1.4628069.8763753-2.34992239 1.8885213-2.59813714.316814-.0776942.963169-.0788585 1.253924-.002259.384712.10135272.708491.28686571.98747.56578141.485588.48547833.753476 1.10866963.90805 2.11241293.07879.5116266.07909 1.8073105.000537 2.3124999-.15661 1.0071865-.423307 1.6272437-.908587 2.1124131-.199507.1994625-.309335.2804491-.51872.3825019-.146093.071205-.35.1515359-.453125.1785122-.269996.070628-.85221.085502-1.148324.029336zm1.044382-.8809706c.481377-.225421.79911-.7757528.944931-1.6366788.118332-.6986293.118439-1.9816921.000219-2.6827269-.144408-.8563888-.465105-1.4097742-.950583-1.6403064-.186904-.088753-.229328-.096455-.53125-.096455-.302242 0-.344275.00765-.532858.097017-.489177.2318071-.802031.7735334-.9495 1.644114-.122427.722746-.122427 1.9512416 0 2.6739875.14019.827611.450543 1.3941472.884072 1.6138325.23017.1166363.35975.1419594.666219.130196.22126-.00849.307377-.027412.46875-.1029799z" stroke-width=".03125"/></svg>