<svg height="16" viewBox="0 0 16 16" width="16" xmlns="http://www.w3.org/2000/svg" xmlns:xlink="http://www.w3.org/1999/xlink"><filter id="a" height="100%" width="100%" x="0%" y="0%"><feColorMatrix in="SourceGraphic" type="matrix" values="0 0 0 0 1 0 0 0 0 1 0 0 0 0 1 0 0 0 1 0"/></filter><mask id="b"><g filter="url(#a)"><path d="m0 0h16v16h-16z" fill-opacity=".3"/></g></mask><clipPath id="c"><path d="m0 0h1600v1200h-1600z"/></clipPath><mask id="d"><g filter="url(#a)"><path d="m0 0h16v16h-16z" fill-opacity=".05"/></g></mask><clipPath id="e"><path d="m0 0h1600v1200h-1600z"/></clipPath><mask id="f"><g filter="url(#a)"><path d="m0 0h16v16h-16z" fill-opacity=".05"/></g></mask><clipPath id="g"><path d="m0 0h1600v1200h-1600z"/></clipPath><mask id="h"><g filter="url(#a)"><path d="m0 0h16v16h-16z" fill-opacity=".05"/></g></mask><clipPath id="i"><path d="m0 0h1600v1200h-1600z"/></clipPath><mask id="j"><g filter="url(#a)"><path d="m0 0h16v16h-16z" fill-opacity=".05"/></g></mask><clipPath id="k"><path d="m0 0h1600v1200h-1600z"/></clipPath><mask id="l"><g filter="url(#a)"><path d="m0 0h16v16h-16z" fill-opacity=".05"/></g></mask><clipPath id="m"><path d="m0 0h1600v1200h-1600z"/></clipPath><mask id="n"><g filter="url(#a)"><path d="m0 0h16v16h-16z" fill-opacity=".05"/></g></mask><clipPath id="o"><path d="m0 0h1600v1200h-1600z"/></clipPath><mask id="p"><g filter="url(#a)"><path d="m0 0h16v16h-16z" fill-opacity=".3"/></g></mask><clipPath id="q"><path d="m0 0h1600v1200h-1600z"/></clipPath><mask id="r"><g filter="url(#a)"><path d="m0 0h16v16h-16z" fill-opacity=".5"/></g></mask><clipPath id="s"><path d="m0 0h1600v1200h-1600z"/></clipPath><g clip-path="url(#c)" mask="url(#b)" transform="translate(-540 -222)"><path d="m562.460938 212.058594h10.449218c-1.183594.492187-1.296875 2.460937 0 3h-10.449218zm0 0" fill="#2e3436"/></g><path d="m7.5 1.019531c-.550781 0-.996094.445313-.996094.996094v.453125c-.472656.128906-.929687.320312-1.355468.566406l-.324219-.324218c-.390625-.390626-1.019531-.390626-1.410157 0l-.703124.707031c-.390626.390625-.390626 1.019531 0 1.410156l.320312.320313c-.246094.425781-.433594.882812-.5625 1.355468h-.453125c-.550781 0-.996094.445313-.996094.996094v1c0 .550781.445313.996094.996094.996094h.449219c.132812.472656.320312.929687.566406 1.355468l-.320312.320313c-.390626.390625-.390626 1.019531 0 1.410156l.703124.707031c.390626.390626 1.019532.390626 1.410157 0l.320312-.320312c.429688.242188.882813.433594 1.359375.558594v.457031c0 .550781.445313.996094.996094.996094h.996094c.554687 0 1-.445313 1-.996094v-.453125c.472656-.128906.929687-.320312 1.355468-.566406l.320313.324218c.390625.390626 1.019531.390626 1.410156 0l.707031-.707031c.390626-.390625.390626-1.019531 0-1.410156l-.320312-.320313c.242188-.425781.433594-.882812.558594-1.355468h.453125c.554687 0 1-.445313 1-.996094v-1c0-.550781-.445313-.996094-1-.996094h-.449219c-.128906-.472656-.320312-.929687-.566406-1.355468l.324218-.320313c.390626-.390625.390626-1.019531 0-1.410156l-.707031-.707031c-.390625-.390626-1.019531-.390626-1.410156 0l-.320313.320312c-.425781-.242188-.882812-.429688-1.355468-.558594v-.457031c0-.550781-.445313-.996094-1-.996094zm.515625 3.976563c1.660156 0 3 1.34375 3 3s-1.339844 3-3 3c-1.65625 0-3-1.34375-3-3s1.34375-3 3-3zm0 0" fill="#2e3436"/><g clip-path="url(#e)" mask="url(#d)" transform="translate(-540 -222)"><path d="m16 748h1v1h-1zm0 0" fill="#2e3436" fill-rule="evenodd"/></g><g clip-path="url(#g)" mask="url(#f)" transform="translate(-540 -222)"><path d="m17 747h1v1h-1zm0 0" fill="#2e3436" fill-rule="evenodd"/></g><g clip-path="url(#i)" mask="url(#h)" transform="translate(-540 -222)"><path d="m18 750h1v1h-1zm0 0" fill="#2e3436" fill-rule="evenodd"/></g><g clip-path="url(#k)" mask="url(#j)" transform="translate(-540 -222)"><path d="m16 750h1v1h-1zm0 0" fill="#2e3436" fill-rule="evenodd"/></g><g clip-path="url(#m)" mask="url(#l)" transform="translate(-540 -222)"><path d="m17 751h1v1h-1zm0 0" fill="#2e3436" fill-rule="evenodd"/></g><g clip-path="url(#o)" mask="url(#n)" transform="translate(-540 -222)"><path d="m19 751h1v1h-1zm0 0" fill="#2e3436" fill-rule="evenodd"/></g><g clip-path="url(#q)" mask="url(#p)" transform="translate(-540 -222)"><path d="m136 776v7h7v-7zm0 0" fill="#2e3436"/></g><g clip-path="url(#s)" mask="url(#r)" transform="translate(-540 -222)"><path d="m219 758h3v12h-3zm0 0" fill="#2e3436"/></g></svg>